<svg width="282" height="239" xmlns="http://www.w3.org/2000/svg" xmlns:xlink="http://www.w3.org/1999/xlink" xmlns:svgjs="http://svgjs.com/svgjs" viewBox="1963 171 282 239"><svg width="194" height="194" xmlns="http://www.w3.org/2000/svg" xmlns:xlink="http://www.w3.org/1999/xlink" xmlns:svgjs="http://svgjs.com/svgjs" viewBox="0.005 0 193.99 194" fill="#ffda24" x="2029" y="193"><svg xmlns="http://www.w3.org/2000/svg" xmlns:xlink="http://www.w3.org/1999/xlink" width="194" height="194" viewBox="1.266 1.132 192.125 192.135"><path paint-order="stroke fill markers" fill-rule="evenodd" d="M193.39 97.2c0 53.056-43.003 96.067-96.06 96.067-53.05 0-96.064-43.011-96.064-96.068 0-53.05 43.014-96.067 96.063-96.067 53.058 0 96.062 43.017 96.062 96.067z"/></svg></svg><svg width="238" height="238" xmlns="http://www.w3.org/2000/svg" xmlns:xlink="http://www.w3.org/1999/xlink" xmlns:svgjs="http://svgjs.com/svgjs" viewBox="0.002 0 237.997 238" fill="#ffda24" x="2007" y="171"><svg xmlns="http://www.w3.org/2000/svg" xmlns:xlink="http://www.w3.org/1999/xlink" width="238" height="238" viewBox="1.29 1.163 236.07 236.073"><path paint-order="stroke fill markers" fill-rule="evenodd" d="M40.236 31.37L31.5 40.104c-4.516 4.519-4.516 11.907 0 16.432l8.516 8.504a96.457 96.457 0 0 1 25.159-25.166l-8.504-8.504c-4.524-4.525-11.912-4.525-16.436 0zm158.195 0c-4.537-4.513-11.924-4.513-16.448 0l-8.506 8.51a96.227 96.227 0 0 1 25.173 25.166l8.503-8.504c4.526-4.525 4.526-11.912 0-16.432l-8.722-8.74zM125.505 1.163h-12.337c-6.406 0-11.636 5.228-11.636 11.621V24.85c5.776-1.087 11.708-1.718 17.797-1.718 6.091 0 12.023.631 17.798 1.718V12.784c0-6.393-5.23-11.621-11.622-11.621zM12.924 101.403c-6.393 0-11.634 5.229-11.634 11.627v12.344c0 6.394 5.241 11.622 11.634 11.622h12.053c-1.08-5.774-1.711-11.713-1.711-17.797 0-6.083.63-12.021 1.71-17.796H12.925zm185.726 71.95a96.453 96.453 0 0 1-25.173 25.172l8.506 8.498c4.524 4.519 11.924 4.519 16.448 0l8.722-8.728c4.526-4.525 4.526-11.92 0-16.444l-8.503-8.498zm27.09-71.95h-12.06c1.08 5.775 1.71 11.713 1.71 17.796 0 6.084-.63 12.023-1.71 17.797h12.06c6.392 0 11.62-5.228 11.62-11.622V113.03c0-6.398-5.228-11.627-11.62-11.627zm-185.735 71.95l-8.504 8.504c-4.516 4.525-4.516 11.918 0 16.438l8.735 8.734c4.524 4.52 11.912 4.52 16.436 0l8.504-8.504a96.63 96.63 0 0 1-25.171-25.172zm61.527 40.203v12.058c0 6.394 5.23 11.622 11.636 11.622h12.337c6.393 0 11.622-5.228 11.622-11.622v-12.058c-5.775 1.08-11.707 1.711-17.798 1.711-6.089 0-12.021-.631-17.797-1.711z"/></svg></svg><svg width="204" height="204" xmlns="http://www.w3.org/2000/svg" xmlns:xlink="http://www.w3.org/1999/xlink" xmlns:svgjs="http://svgjs.com/svgjs" viewBox="0.005 0 203.99 204" fill="#ffa300" x="2024" y="188"><svg xmlns="http://www.w3.org/2000/svg" xmlns:xlink="http://www.w3.org/1999/xlink" width="204" height="204" viewBox="1.305 1.171 202.048 202.058"><path paint-order="stroke fill markers" fill-rule="evenodd" d="M84.532 2.833V7.85c5.776-1.087 11.708-1.718 17.797-1.718 6.091 0 12.023.631 17.798 1.718V2.833C114.34 1.802 108.42 1.17 102.33 1.17c-6.076 0-12.009.63-17.797 1.662zm97.118 45.213l3.543-3.542a101.54 101.54 0 0 0-25.16-25.172l-3.556 3.548a96.227 96.227 0 0 1 25.173 25.166zM2.96 84.403C1.93 90.19 1.305 96.122 1.305 102.2c0 6.078.624 12.01 1.655 17.797h5.017c-1.08-5.774-1.711-11.713-1.711-17.797 0-6.083.63-12.021 1.71-17.796H2.96zm153.517 97.122l3.555 3.536a101.413 101.413 0 0 0 25.16-25.166l-3.542-3.542a96.453 96.453 0 0 1-25.173 25.172zm45.215-97.122h-5.011c1.079 5.775 1.71 11.713 1.71 17.796 0 6.084-.631 12.023-1.71 17.797h5.01c1.03-5.787 1.662-11.719 1.662-17.797 0-6.077-.631-12.01-1.661-17.796zM84.532 196.556v5.01c5.788 1.032 11.721 1.662 17.797 1.662 6.091 0 12.011-.63 17.798-1.662v-5.01c-5.775 1.08-11.707 1.711-17.798 1.711-6.089 0-12.021-.631-17.797-1.711zm-61.527-40.203l-3.543 3.542a101.409 101.409 0 0 0 25.172 25.173l3.542-3.543a96.63 96.63 0 0 1-25.171-25.172zM19.462 44.498l3.555 3.542a96.457 96.457 0 0 1 25.159-25.166l-3.542-3.549a101.813 101.813 0 0 0-25.172 25.173z"/></svg></svg><svg width="204" height="204" xmlns="http://www.w3.org/2000/svg" xmlns:xlink="http://www.w3.org/1999/xlink" xmlns:svgjs="http://svgjs.com/svgjs" viewBox="0 0.001 204 203.998" fill="#fff" opacity=".2" x="2007" y="171"><svg xmlns="http://www.w3.org/2000/svg" xmlns:xlink="http://www.w3.org/1999/xlink" width="204" height="204" viewBox="1.29 1.163 202.187 202.185"><path paint-order="stroke fill markers" fill-rule="evenodd" d="M181.983 31.37l-8.506 8.51c-10.748-7.363-23.067-12.538-36.35-15.03V12.784c0-6.393-5.23-11.621-11.622-11.621h-12.337c-6.406 0-11.636 5.228-11.636 11.621V24.85c-13.282 2.492-25.607 7.667-36.356 15.024l-8.504-8.504c-4.524-4.525-11.912-4.525-16.436 0L31.5 40.104c-4.516 4.519-4.516 11.907 0 16.432l8.516 8.504c-7.364 10.754-12.547 23.08-15.04 36.363H12.924c-6.393 0-11.634 5.229-11.634 11.627v12.344c0 6.394 5.241 11.622 11.634 11.622h12.053c2.493 13.284 7.676 25.61 15.028 36.357l-8.504 8.504c-4.516 4.525-4.516 11.918 0 16.438l5.045 5.053L203.478 36.416l-5.047-5.046c-4.537-4.513-11.924-4.513-16.448 0z"/></svg></svg><svg width="153" height="174" xmlns="http://www.w3.org/2000/svg" xmlns:xlink="http://www.w3.org/1999/xlink" xmlns:svgjs="http://svgjs.com/svgjs" viewBox="0.172 0 152.656 174" fill="#fff" x="1963" y="236"><svg xmlns="http://www.w3.org/2000/svg" xmlns:xlink="http://www.w3.org/1999/xlink" width="153" height="174" viewBox="1.278 1.201 151.207 172.349"><path paint-order="stroke fill markers" fill-rule="evenodd" d="M151.648 1.201c-31.711 0-58.569 20.696-67.899 49.299-17.836 3.967-32.368 16.558-39.04 33.203-24.118.818-43.431 20.571-43.431 44.876 0 24.283 19.253 43.997 43.302 44.892v.079h107.905V1.24c-.279-.006-.558-.04-.837-.04z"/></svg></svg><svg width="123" height="174" xmlns="http://www.w3.org/2000/svg" xmlns:xlink="http://www.w3.org/1999/xlink" xmlns:svgjs="http://svgjs.com/svgjs" viewBox="0.631 0 121.737 174" fill="#f2f4f9" x="2114" y="236"><svg xmlns="http://www.w3.org/2000/svg" width="123" height="174" viewBox="1.485 1.241 120.554 172.309"><path paint-order="stroke fill markers" fill-rule="evenodd" d="M71.488 63.862C67.193 28.84 37.588 1.653 1.485 1.242V173.55h68.014v-.131c29.223-1.268 52.54-25.29 52.54-54.824 0-28.863-22.273-52.483-50.551-54.733z"/></svg></svg></svg>