<?xml version="1.0" encoding="utf-8"?>
<svg width="286" height="181" xmlns="http://www.w3.org/2000/svg" xmlns:xlink="http://www.w3.org/1999/xlink"
    viewBox="796 2583 286 181">
    <svg width="160" height="181" xmlns="http://www.w3.org/2000/svg" xmlns:xlink="http://www.w3.org/1999/xlink"
        viewBox="0.606 0 158.789 181" fill="#fff" x="796" y="2583">
        <svg xmlns="http://www.w3.org/2000/svg" xmlns:xlink="http://www.w3.org/1999/xlink" width="160" height="181"
            viewBox="1.943 1.07 157.738 179.802">
            <path paint-order="stroke fill markers" fill-rule="evenodd"
                d="M158.811 1.07c-33.093 0-61.105 21.586-70.83 51.43-18.61 4.137-33.78 17.274-40.737 34.64-25.157.855-45.3 21.46-45.3 46.82 0 25.33 20.073 45.898 45.17 46.826v.086H159.68V1.112c-.29-.012-.575-.042-.87-.042z" />
        </svg>
    </svg>
    <svg width="128" height="181" xmlns="http://www.w3.org/2000/svg" xmlns:xlink="http://www.w3.org/1999/xlink"
        viewBox="0.68 0 126.641 181" fill="#f2f4f9" x="954" y="2583"><svg xmlns="http://www.w3.org/2000/svg" width="128"
            height="181" viewBox="1.681 1.111 125.774 179.761">
            <path paint-order="stroke fill markers" fill-rule="evenodd"
                d="M74.72 66.444C70.24 29.9 39.34 1.542 1.682 1.111v179.76h70.96v-.133c30.491-1.322 54.814-26.386 54.814-57.198 0-30.11-23.231-54.748-52.734-57.096z" />
        </svg></svg></svg>