<svg width="285" height="229" xmlns="http://www.w3.org/2000/svg" xmlns:xlink="http://www.w3.org/1999/xlink" xmlns:svgjs="http://svgjs.com/svgjs" viewBox="1947 2096 285 229"><svg width="159" height="182" xmlns="http://www.w3.org/2000/svg" xmlns:xlink="http://www.w3.org/1999/xlink" xmlns:svgjs="http://svgjs.com/svgjs" viewBox="0 0.38 159 181.239" fill="#fff" x="1947" y="2096"><svg xmlns="http://www.w3.org/2000/svg" xmlns:xlink="http://www.w3.org/1999/xlink" width="159" height="182" viewBox="1.047 1.53 157.739 179.802"><path paint-order="stroke fill markers" fill-rule="evenodd" d="M157.913 1.53c-33.092 0-61.101 21.587-70.828 51.429-18.61 4.138-33.78 17.276-40.737 34.641-25.157.856-45.301 21.46-45.301 46.82 0 25.33 20.073 45.9 45.171 46.828v.084h112.568V1.573c-.29-.013-.577-.043-.873-.043z"/></svg></svg><svg width="128" height="182" xmlns="http://www.w3.org/2000/svg" xmlns:xlink="http://www.w3.org/1999/xlink" xmlns:svgjs="http://svgjs.com/svgjs" viewBox="0.328 0 127.343 182" fill="#f2f4f9" x="2104" y="2096"><svg xmlns="http://www.w3.org/2000/svg" xmlns:xlink="http://www.w3.org/1999/xlink" width="128" height="182" viewBox="1.786 1.573 125.775 179.759"><path paint-order="stroke fill markers" fill-rule="evenodd" d="M74.827 66.904C70.34 30.36 39.441 2.003 1.787 1.574v179.758H72.74v-.133c30.498-1.322 54.82-26.387 54.82-57.198 0-30.111-23.23-54.75-52.734-57.097z"/></svg></svg><svg width="112" height="15" xmlns="http://www.w3.org/2000/svg" xmlns:xlink="http://www.w3.org/1999/xlink" xmlns:svgjs="http://svgjs.com/svgjs" viewBox="0 0.689 112 13.622" fill="#00e1ff" x="1972" y="2231"><svg xmlns="http://www.w3.org/2000/svg" xmlns:xlink="http://www.w3.org/1999/xlink" width="112" height="15" viewBox="1.404 1.531 110.417 13.43"><path paint-order="stroke fill markers" fill-rule="evenodd" d="M111.821 11.746a3.224 3.224 0 0 1-3.22 3.215H4.624a3.227 3.227 0 0 1-3.22-3.215V4.76c0-1.773 1.453-3.228 3.22-3.228h103.977a3.234 3.234 0 0 1 3.22 3.228v6.987z"/></svg></svg><svg width="112" height="15" xmlns="http://www.w3.org/2000/svg" xmlns:xlink="http://www.w3.org/1999/xlink" xmlns:svgjs="http://svgjs.com/svgjs" viewBox="0 0.683 112 13.634" fill="#00e1ff" x="1986" y="2310"><svg xmlns="http://www.w3.org/2000/svg" xmlns:xlink="http://www.w3.org/1999/xlink" width="112" height="15" viewBox="1.458 1.275 110.418 13.441"><path paint-order="stroke fill markers" fill-rule="evenodd" d="M1.458 4.502a3.241 3.241 0 0 1 3.227-3.227H108.66c1.765 0 3.215 1.456 3.215 3.227v6.975c0 1.77-1.45 3.24-3.215 3.24H4.685c-1.77 0-3.227-1.47-3.227-3.24V4.502z"/></svg></svg><svg width="77" height="15" xmlns="http://www.w3.org/2000/svg" xmlns:xlink="http://www.w3.org/1999/xlink" xmlns:svgjs="http://svgjs.com/svgjs" viewBox="0 0.58 77 13.84" fill="#00e1ff" x="2087" y="2270"><svg xmlns="http://www.w3.org/2000/svg" xmlns:xlink="http://www.w3.org/1999/xlink" width="77" height="15" viewBox="1.651 1.102 74.686 13.424"><path paint-order="stroke fill markers" fill-rule="evenodd" d="M76.336 11.311a3.224 3.224 0 0 1-3.226 3.215H4.872a3.226 3.226 0 0 1-3.221-3.215V4.324a3.232 3.232 0 0 1 3.221-3.222H73.11a3.23 3.23 0 0 1 3.226 3.222v6.987z"/></svg></svg><svg width="77" height="15" xmlns="http://www.w3.org/2000/svg" xmlns:xlink="http://www.w3.org/1999/xlink" xmlns:svgjs="http://svgjs.com/svgjs" viewBox="0 0.581 77 13.839" fill="#00e1ff" x="2122" y="2310"><svg xmlns="http://www.w3.org/2000/svg" xmlns:xlink="http://www.w3.org/1999/xlink" width="77" height="15" viewBox="1.661 1.288 74.685 13.423"><path paint-order="stroke fill markers" fill-rule="evenodd" d="M1.661 4.502A3.223 3.223 0 0 1 4.89 1.288h68.236a3.226 3.226 0 0 1 3.222 3.214v6.987c0 1.77-1.45 3.222-3.222 3.222H4.89a3.23 3.23 0 0 1-3.228-3.222V4.502z"/></svg></svg><svg width="49" height="15" xmlns="http://www.w3.org/2000/svg" xmlns:xlink="http://www.w3.org/1999/xlink" xmlns:svgjs="http://svgjs.com/svgjs" viewBox="0 0.559 49 13.883" fill="#00e1ff" x="2007" y="2270"><svg xmlns="http://www.w3.org/2000/svg" xmlns:xlink="http://www.w3.org/1999/xlink" width="49" height="15" viewBox="1.36 1.108 47.359 13.418"><path paint-order="stroke fill markers" fill-rule="evenodd" d="M1.36 11.42a3.113 3.113 0 0 0 3.105 3.106h41.15a3.113 3.113 0 0 0 3.105-3.105V4.215a3.114 3.114 0 0 0-3.105-3.107H4.465A3.114 3.114 0 0 0 1.36 4.215v7.206z"/></svg></svg><svg width="49" height="15" xmlns="http://www.w3.org/2000/svg" xmlns:xlink="http://www.w3.org/1999/xlink" xmlns:svgjs="http://svgjs.com/svgjs" viewBox="0 0.556 49 13.887" fill="#00e1ff" x="2162" y="2231"><svg xmlns="http://www.w3.org/2000/svg" xmlns:xlink="http://www.w3.org/1999/xlink" width="49" height="15" viewBox="1.639 1.544 47.361 13.423"><path paint-order="stroke fill markers" fill-rule="evenodd" d="M1.639 11.861a3.112 3.112 0 0 0 3.105 3.106h41.15A3.112 3.112 0 0 0 49 11.86V4.65a3.112 3.112 0 0 0-3.106-3.105H4.744A3.111 3.111 0 0 0 1.64 4.649v7.212z"/></svg></svg><svg width="20" height="15" xmlns="http://www.w3.org/2000/svg" xmlns:xlink="http://www.w3.org/1999/xlink" xmlns:svgjs="http://svgjs.com/svgjs" viewBox="0.022 0 19.957 15" fill="#00e1ff" x="2110" y="2231"><svg xmlns="http://www.w3.org/2000/svg" xmlns:xlink="http://www.w3.org/1999/xlink" width="20" height="15" viewBox="1.62 1.544 17.858 13.423"><path paint-order="stroke fill markers" fill-rule="evenodd" d="M1.62 11.861a3.113 3.113 0 0 0 3.107 3.106h11.645a3.112 3.112 0 0 0 3.107-3.106V4.65a3.112 3.112 0 0 0-3.107-3.105H4.727A3.112 3.112 0 0 0 1.62 4.649v7.212z"/></svg></svg><svg width="252" height="46" xmlns="http://www.w3.org/2000/svg" xmlns:xlink="http://www.w3.org/1999/xlink" xmlns:svgjs="http://svgjs.com/svgjs" viewBox="0 1.131 252 43.739" fill="#d0d5d8" x="1973" y="2232"><svg xmlns="http://www.w3.org/2000/svg" width="252" height="46" viewBox="1.393 1.951 249.938 43.381"><path paint-order="stroke fill markers" fill-rule="evenodd" d="M156.479 3.65v7.211a3.112 3.112 0 0 1-3.107 3.106h-11.645c-.85 0-1.626-.345-2.184-.905l26.04 26.04h21.527a3.23 3.23 0 0 1 3.226 3.222v3.008h8.941L155.914 1.969c.327.49.565 1.05.565 1.68zm-45.658.109v6.987a3.224 3.224 0 0 1-3.22 3.215H3.624a3.176 3.176 0 0 1-2.192-.893l-.04.043 32.221 32.22h1.747v-3.116a3.114 3.114 0 0 1 3.105-3.107h41.15a3.114 3.114 0 0 1 3.105 3.107v3.117h32.93v-3.008a3.232 3.232 0 0 1 3.222-3.222h28.465L110.209 1.975c.359.522.612 1.11.612 1.784zm28.6 9.128l-.023.03.127.128c-.043-.043-.061-.11-.104-.158zM237.515 1.95l-.086.012c.328.491.571 1.05.571 1.686v7.212a3.112 3.112 0 0 1-3.106 3.106h-41.15c-.726 0-1.37-.291-1.903-.715l-.036.054 28.636 28.636c13.214-4.69 24.165-14.091 30.89-26.174L237.515 1.951z"/></svg></svg></svg>