<svg width="269" height="268" xmlns="http://www.w3.org/2000/svg" xmlns:xlink="http://www.w3.org/1999/xlink"
      viewBox="813 621 269 268"><svg width="228" height="227"
        xmlns="http://www.w3.org/2000/svg" xmlns:xlink="http://www.w3.org/1999/xlink"
          viewBox="0.5 0 227 227" fill="#d1d1b0" x="854" y="621"><svg
            xmlns="http://www.w3.org/2000/svg" xmlns:xlink="http://www.w3.org/1999/xlink" width="228" height="227"
            viewBox="1.378 1.045 225.716 225.716">
            <path paint-order="stroke fill markers" fill-rule="evenodd"
                d="M93.812 1.045c-26.353 0-50.89 7.68-71.571 20.87C9.048 42.591 1.378 67.133 1.378 93.481c0 73.609 59.664 133.28 133.282 133.28 26.344 0 50.884-7.674 71.572-20.86 13.186-20.684 20.862-45.22 20.862-71.574 0-73.612-59.677-133.283-133.282-133.283z" />
        </svg></svg><svg width="248" height="247" xmlns="http://www.w3.org/2000/svg"
        xmlns:xlink="http://www.w3.org/1999/xlink"   viewBox="0.503 0 246.995 247"
        fill="#c6c5a3" x="813" y="642"><svg xmlns="http://www.w3.org/2000/svg"
            xmlns:xlink="http://www.w3.org/1999/xlink" width="248" height="247" viewBox="1.529 1.075 245.53 245.535">
            <path paint-order="stroke fill markers" fill-rule="evenodd"
                d="M42.378 72.482c0-26.282 7.636-50.763 20.768-71.407C26.131 24.755 1.53 66.125 1.53 113.328c0 73.612 59.677 133.282 133.283 133.282 47.193 0 88.564-24.599 112.246-61.604-20.65 13.119-45.127 20.756-71.398 20.756-73.618 0-133.282-59.671-133.282-133.28z" />
        </svg></svg><svg width="44" height="45" xmlns="http://www.w3.org/2000/svg"
        xmlns:xlink="http://www.w3.org/1999/xlink"   viewBox="0 0.505 44 43.991"
        fill="#c1be99" x="843" y="712"><svg xmlns="http://www.w3.org/2000/svg"
            xmlns:xlink="http://www.w3.org/1999/xlink" width="44" height="45" viewBox="1.514 1.906 42.317 42.308">
            <path paint-order="stroke fill markers" fill-rule="evenodd"
                d="M18.847 1.906a24.91 24.91 0 0 0-13.423 3.91 24.953 24.953 0 0 0-3.91 13.413c0 13.805 11.183 24.985 24.991 24.985A24.79 24.79 0 0 0 39.92 40.3a24.82 24.82 0 0 0 3.912-13.41c0-13.8-11.185-24.985-24.984-24.985z" />
        </svg></svg><svg width="61" height="61" xmlns="http://www.w3.org/2000/svg"
        xmlns:xlink="http://www.w3.org/1999/xlink"   viewBox="0 0.002 61 60.997"
        fill="#c1be99" x="928" y="713"><svg xmlns="http://www.w3.org/2000/svg"
            xmlns:xlink="http://www.w3.org/1999/xlink" width="61" height="61" viewBox="1.597 1.622 59.3 59.297">
            <path paint-order="stroke fill markers" fill-rule="evenodd"
                d="M25.884 1.622A34.861 34.861 0 0 0 7.08 7.104a34.889 34.889 0 0 0-5.483 18.798c0 19.337 15.68 35.017 35.02 35.017 6.92 0 13.362-2.014 18.796-5.478a34.818 34.818 0 0 0 5.484-18.8c0-19.343-15.677-35.019-35.013-35.019z" />
        </svg></svg><svg width="26" height="27" xmlns="http://www.w3.org/2000/svg"
        xmlns:xlink="http://www.w3.org/1999/xlink"   viewBox="0 0.5 26 26.001"
        fill="#c1be99" x="881" y="808"><svg xmlns="http://www.w3.org/2000/svg"
            xmlns:xlink="http://www.w3.org/1999/xlink" width="26" height="27" viewBox="1.155 1.839 24.78 24.781">
            <path paint-order="stroke fill markers" fill-rule="evenodd"
                d="M11.302 1.839a14.57 14.57 0 0 0-7.86 2.293 14.556 14.556 0 0 0-2.287 7.858c0 8.089 6.544 14.63 14.633 14.63 2.887 0 5.58-.843 7.855-2.286a14.588 14.588 0 0 0 2.292-7.864c0-8.077-6.553-14.631-14.633-14.631z" />
        </svg></svg><svg width="33" height="32" xmlns="http://www.w3.org/2000/svg"
        xmlns:xlink="http://www.w3.org/1999/xlink"   viewBox="0.499 0 32.003 32"
        fill="#c1be99" x="996" y="659"><svg xmlns="http://www.w3.org/2000/svg"
            xmlns:xlink="http://www.w3.org/1999/xlink" width="33" height="32" viewBox="1.905 1.486 30.389 30.386">
            <path paint-order="stroke fill markers" fill-rule="evenodd"
                d="M14.35 1.486c-3.55 0-6.85 1.032-9.631 2.808a17.784 17.784 0 0 0-2.814 9.641c0 9.9 8.04 17.937 17.939 17.937 3.554 0 6.847-1.028 9.64-2.809a17.853 17.853 0 0 0 2.81-9.632c0-9.908-8.026-17.945-17.943-17.945z" />
        </svg></svg><svg width="19" height="19" xmlns="http://www.w3.org/2000/svg"
        xmlns:xlink="http://www.w3.org/1999/xlink"   viewBox="0.002 0 18.997 19"
        fill="#c1be99" x="902" y="646"><svg xmlns="http://www.w3.org/2000/svg"
            xmlns:xlink="http://www.w3.org/1999/xlink" width="19" height="19" viewBox="1.63 1.591 17.302 17.305">
            <path paint-order="stroke fill markers" fill-rule="evenodd"
                d="M8.714 1.59c-2.022 0-3.9.59-5.48 1.596A10.199 10.199 0 0 0 1.63 8.678c0 5.642 4.57 10.218 10.214 10.218 2.024 0 3.903-.59 5.493-1.602a10.165 10.165 0 0 0 1.595-5.488c0-5.645-4.58-10.215-10.218-10.215z" />
        </svg></svg><svg width="34" height="33" xmlns="http://www.w3.org/2000/svg"
        xmlns:xlink="http://www.w3.org/1999/xlink"   viewBox="0.503 0 32.994 33"
        fill="#c1be99" x="1030" y="749"><svg xmlns="http://www.w3.org/2000/svg"
            xmlns:xlink="http://www.w3.org/1999/xlink" width="34" height="33" viewBox="1.969 1.388 31.556 31.561">
            <path paint-order="stroke fill markers" fill-rule="evenodd"
                d="M14.891 1.388c-3.693 0-7.13 1.06-10.01 2.925-1.853 2.883-2.912 6.306-2.912 10 0 10.29 8.343 18.636 18.63 18.636 3.683 0 7.115-1.067 10.006-2.908 1.862-2.896 2.92-6.33 2.92-10.02 0-10.284-8.343-18.633-18.634-18.633z" />
        </svg></svg><svg width="29" height="29" xmlns="http://www.w3.org/2000/svg"
        xmlns:xlink="http://www.w3.org/1999/xlink"   fill="#c1be99" x="975"
        y="828"><svg xmlns="http://www.w3.org/2000/svg" xmlns:xlink="http://www.w3.org/1999/xlink" width="29"
            height="29" viewBox="1.657 1.429 27.207 27.207">
            <path paint-order="stroke fill markers" fill-rule="evenodd"
                d="M12.796 1.429c-3.175 0-6.13.93-8.622 2.517a15.938 15.938 0 0 0-2.517 8.628c0 8.867 7.19 16.062 16.065 16.062 3.174 0 6.131-.922 8.625-2.511a16.002 16.002 0 0 0 2.517-8.632c0-8.868-7.19-16.064-16.068-16.064z" />
        </svg></svg><svg width="35" height="35" xmlns="http://www.w3.org/2000/svg"
        xmlns:xlink="http://www.w3.org/1999/xlink"   viewBox="0 0.001 35 34.997"
        fill="#b7b284" x="991" y="662"><svg xmlns="http://www.w3.org/2000/svg"
            xmlns:xlink="http://www.w3.org/1999/xlink" width="35" height="35" viewBox="1.403 1.349 33.027 33.024">
            <path paint-order="stroke fill markers" fill-rule="evenodd"
                d="M6.905 10.935c0-3.533 1.022-6.82 2.783-9.586C4.714 4.54 1.403 10.086 1.403 16.43c0 9.908 8.034 17.942 17.948 17.942 6.35 0 11.892-3.312 15.079-8.282a17.817 17.817 0 0 1-9.586 2.781c-9.9 0-17.94-8.037-17.94-17.937z" />
        </svg></svg><svg width="21" height="20" xmlns="http://www.w3.org/2000/svg"
        xmlns:xlink="http://www.w3.org/1999/xlink"   viewBox="0.505 0 19.991 20"
        fill="#b7b284" x="899" y="648"><svg xmlns="http://www.w3.org/2000/svg"
            xmlns:xlink="http://www.w3.org/1999/xlink" width="21" height="20" viewBox="1.497 1.213 18.803 18.812">
            <path paint-order="stroke fill markers" fill-rule="evenodd"
                d="M4.63 6.678c0-2.01.589-3.875 1.593-5.465C3.386 3.03 1.497 6.186 1.497 9.806c0 5.646 4.567 10.22 10.217 10.22 3.61 0 6.767-1.887 8.586-4.713a10.2 10.2 0 0 1-5.456 1.583C9.2 16.896 4.63 12.32 4.63 6.678z" />
        </svg></svg><svg width="67" height="66" xmlns="http://www.w3.org/2000/svg"
        xmlns:xlink="http://www.w3.org/1999/xlink"   viewBox="0.503 0 65.995 66"
        fill="#b7b284" x="917" y="719"><svg xmlns="http://www.w3.org/2000/svg"
            xmlns:xlink="http://www.w3.org/1999/xlink" width="67" height="66" viewBox="1.869 1.141 64.502 64.507">
            <path paint-order="stroke fill markers" fill-rule="evenodd"
                d="M12.597 19.902a34.9 34.9 0 0 1 5.462-18.76c-9.727 6.222-16.19 17.092-16.19 29.5 0 19.334 15.671 35.007 35.015 35.007 12.4 0 23.27-6.463 29.487-16.186a34.834 34.834 0 0 1-18.754 5.456c-19.34 0-35.02-15.68-35.02-35.017z" />
        </svg></svg><svg width="36" height="36" xmlns="http://www.w3.org/2000/svg"
        xmlns:xlink="http://www.w3.org/1999/xlink"   viewBox="0.009 0 35.982 36"
        fill="#b7b284" x="1025" y="752"><svg xmlns="http://www.w3.org/2000/svg"
            xmlns:xlink="http://www.w3.org/1999/xlink" width="36" height="36" viewBox="1.243 1.356 34.301 34.318">
            <path paint-order="stroke fill markers" fill-rule="evenodd"
                d="M6.97 11.313c0-3.675 1.048-7.085 2.886-9.957-5.168 3.315-8.613 9.077-8.613 15.664 0 10.294 8.343 18.655 18.648 18.655 6.585 0 12.34-3.442 15.653-8.6a18.572 18.572 0 0 1-9.945 2.874c-10.287 0-18.63-8.346-18.63-18.636z" />
        </svg></svg><svg width="32" height="31" xmlns="http://www.w3.org/2000/svg"
        xmlns:xlink="http://www.w3.org/1999/xlink"   viewBox="1.736 0 28.528 31"
        fill="#b7b284" x="970" y="831"><svg xmlns="http://www.w3.org/2000/svg"
            xmlns:xlink="http://www.w3.org/1999/xlink" width="32" height="31" viewBox="1.731 1.429 29.57 32.132">
            <path paint-order="stroke fill markers" fill-rule="evenodd"
                d="M13.687 2.026c1.319-.352 2.68-.597 4.11-.597-1.43 0-2.794.245-4.11.597zm-7.03 10.548c0-3.16.915-6.102 2.5-8.587C4.7 6.845 1.73 11.812 1.73 17.493c0 8.88 7.191 16.068 16.065 16.068 5.684 0 10.648-2.966 13.505-7.416a15.969 15.969 0 0 1-8.58 2.49c-8.873 0-16.064-7.194-16.064-16.061z" />
        </svg></svg><svg width="29" height="29" xmlns="http://www.w3.org/2000/svg"
        xmlns:xlink="http://www.w3.org/1999/xlink"   viewBox="0.003 0 28.994 29"
        fill="#b7b284" x="876" y="811"><svg xmlns="http://www.w3.org/2000/svg"
            xmlns:xlink="http://www.w3.org/1999/xlink" width="29" height="29" viewBox="1.672 1.175 26.925 26.931">
            <path paint-order="stroke fill markers" fill-rule="evenodd"
                d="M6.155 8.99c0-2.878.836-5.555 2.268-7.815-4.052 2.601-6.75 7.124-6.75 12.295 0 8.082 6.544 14.636 14.63 14.636 5.17 0 9.692-2.7 12.294-6.752a14.616 14.616 0 0 1-7.81 2.266c-8.088 0-14.632-6.541-14.632-14.63z" />
        </svg></svg><svg width="48" height="48" xmlns="http://www.w3.org/2000/svg"
        xmlns:xlink="http://www.w3.org/1999/xlink"   viewBox="0 0.008 48 47.984"
        fill="#b7b284" x="835" y="716"><svg xmlns="http://www.w3.org/2000/svg" width="48" height="48"
            viewBox="1.857 1.9 45.986 45.971">
            <path paint-order="stroke fill markers" fill-rule="evenodd"
                d="M9.514 15.23c0-4.905 1.432-9.47 3.864-13.33C6.464 6.344 1.857 14.062 1.857 22.89c0 13.796 11.188 24.981 24.99 24.981 8.834 0 16.553-4.612 20.996-11.527a24.807 24.807 0 0 1-13.338 3.87c-13.808 0-24.99-11.18-24.99-24.985z" />
        </svg></svg></svg>