<svg width="287" height="314" xmlns="http://www.w3.org/2000/svg" xmlns:xlink="http://www.w3.org/1999/xlink" xmlns:svgjs="http://svgjs.com/svgjs" viewBox="1399 1599 287 314"><svg width="195" height="196" xmlns="http://www.w3.org/2000/svg" xmlns:xlink="http://www.w3.org/1999/xlink" xmlns:svgjs="http://svgjs.com/svgjs" viewBox="0 0.497 195 195.006" fill="#d1d1b0" x="1491" y="1599"><svg xmlns="http://www.w3.org/2000/svg" xmlns:xlink="http://www.w3.org/1999/xlink" width="195" height="196" viewBox="1.371 1.817 193.274 193.28"><path paint-order="stroke fill markers" fill-rule="evenodd" d="M80.516 1.817c-22.565 0-43.574 6.575-61.288 17.873C7.935 37.396 1.37 58.41 1.37 80.974c0 63.03 51.085 114.124 114.132 114.124 22.55 0 43.568-6.569 61.28-17.86 11.288-17.713 17.863-38.722 17.863-61.29 0-63.034-51.096-114.13-114.13-114.13z"/></svg></svg><svg width="212" height="213" xmlns="http://www.w3.org/2000/svg" xmlns:xlink="http://www.w3.org/1999/xlink" xmlns:svgjs="http://svgjs.com/svgjs" viewBox="0 0.5 212 212.001" fill="#c6c5a3" x="1456" y="1617"><svg xmlns="http://www.w3.org/2000/svg" xmlns:xlink="http://www.w3.org/1999/xlink" width="212" height="213" viewBox="1.386 1.826 210.251 210.252"><path paint-order="stroke fill markers" fill-rule="evenodd" d="M36.371 62.974c0-22.51 6.54-43.472 17.78-61.148C22.457 22.104 1.386 57.53 1.386 97.947c0 63.035 51.103 114.131 114.13 114.131 40.415 0 75.845-21.063 96.12-52.755-17.68 11.236-38.643 17.775-61.133 17.775-63.047 0-114.132-51.093-114.132-114.124z"/></svg></svg><svg width="38" height="38" xmlns="http://www.w3.org/2000/svg" xmlns:xlink="http://www.w3.org/1999/xlink" xmlns:svgjs="http://svgjs.com/svgjs" viewBox="0 0.005 38 37.99" fill="#c1be99" x="1482" y="1678"><svg xmlns="http://www.w3.org/2000/svg" xmlns:xlink="http://www.w3.org/1999/xlink" width="38" height="38" viewBox="1.068 1.479 36.236 36.227"><path paint-order="stroke fill markers" fill-rule="evenodd" d="M15.904 1.48c-4.221 0-8.164 1.23-11.489 3.344A21.359 21.359 0 0 0 1.068 16.31c0 11.826 9.57 21.397 21.4 21.397 4.227 0 8.164-1.229 11.48-3.35a21.22 21.22 0 0 0 3.356-11.483c0-11.816-9.585-21.394-21.4-21.394z"/></svg></svg><svg width="53" height="52" xmlns="http://www.w3.org/2000/svg" xmlns:xlink="http://www.w3.org/1999/xlink" xmlns:svgjs="http://svgjs.com/svgjs" viewBox="0.5 0 52 52" fill="#c1be99" x="1554" y="1679"><svg xmlns="http://www.w3.org/2000/svg" xmlns:xlink="http://www.w3.org/1999/xlink" width="53" height="52" viewBox="1.921 1.089 50.781 50.781"><path paint-order="stroke fill markers" fill-rule="evenodd" d="M22.72 1.089A29.815 29.815 0 0 0 6.621 5.787a29.842 29.842 0 0 0-4.7 16.095c0 16.56 13.423 29.988 29.989 29.988 5.925 0 11.439-1.725 16.097-4.691a29.873 29.873 0 0 0 4.695-16.098c0-16.566-13.423-29.992-29.982-29.992z"/></svg></svg><svg width="23" height="23" xmlns="http://www.w3.org/2000/svg" xmlns:xlink="http://www.w3.org/1999/xlink" xmlns:svgjs="http://svgjs.com/svgjs" viewBox="0.002 0 22.997 23" fill="#c1be99" x="1514" y="1760"><svg xmlns="http://www.w3.org/2000/svg" xmlns:xlink="http://www.w3.org/1999/xlink" width="23" height="23" viewBox="1.3 1.627 21.217 21.22"><path paint-order="stroke fill markers" fill-rule="evenodd" d="M9.986 1.627c-2.475 0-4.78.72-6.734 1.964A12.48 12.48 0 0 0 1.3 10.318c0 6.926 5.599 12.529 12.526 12.529a12.5 12.5 0 0 0 6.726-1.96 12.464 12.464 0 0 0 1.965-6.733c0-6.915-5.61-12.527-12.531-12.527z"/></svg></svg><svg width="28" height="28" xmlns="http://www.w3.org/2000/svg" xmlns:xlink="http://www.w3.org/1999/xlink" xmlns:svgjs="http://svgjs.com/svgjs" viewBox="0 0.002 28 27.996" fill="#c1be99" x="1613" y="1632"><svg xmlns="http://www.w3.org/2000/svg" xmlns:xlink="http://www.w3.org/1999/xlink" width="28" height="28" viewBox="1.411 1.736 26.022 26.018"><path paint-order="stroke fill markers" fill-rule="evenodd" d="M12.076 1.736a15.21 15.21 0 0 0-8.25 2.405 15.214 15.214 0 0 0-2.415 8.254c0 8.474 6.891 15.359 15.366 15.359 3.038 0 5.865-.88 8.254-2.405a15.308 15.308 0 0 0 2.402-8.25c0-8.482-6.865-15.363-15.357-15.363z"/></svg></svg><svg width="17" height="17" xmlns="http://www.w3.org/2000/svg" xmlns:xlink="http://www.w3.org/1999/xlink" xmlns:svgjs="http://svgjs.com/svgjs" viewBox="0.004 0 16.992 17" fill="#c1be99" x="1532" y="1621"><svg xmlns="http://www.w3.org/2000/svg" xmlns:xlink="http://www.w3.org/1999/xlink" width="17" height="17" viewBox="1.691 1.693 14.813 14.819"><path paint-order="stroke fill markers" fill-rule="evenodd" d="M7.757 1.693a8.712 8.712 0 0 0-4.695 1.365 8.722 8.722 0 0 0-1.371 4.7c0 4.835 3.906 8.755 8.746 8.755a8.697 8.697 0 0 0 4.695-1.372A8.746 8.746 0 0 0 7.757 1.694z"/></svg></svg><svg width="29" height="29" xmlns="http://www.w3.org/2000/svg" xmlns:xlink="http://www.w3.org/1999/xlink" xmlns:svgjs="http://svgjs.com/svgjs" viewBox="0.002 0 28.997 29" fill="#c1be99" x="1642" y="1709"><svg xmlns="http://www.w3.org/2000/svg" xmlns:xlink="http://www.w3.org/1999/xlink" width="29" height="29" viewBox="1.582 1.721 27.021 27.024"><path paint-order="stroke fill markers" fill-rule="evenodd" d="M12.652 1.72c-3.168 0-6.11.907-8.577 2.503a15.778 15.778 0 0 0-2.493 8.561c0 8.813 7.144 15.961 15.957 15.961 3.155 0 6.091-.915 8.565-2.492 1.59-2.482 2.5-5.42 2.5-8.576 0-8.81-7.146-15.956-15.952-15.956z"/></svg></svg><svg width="25" height="25" xmlns="http://www.w3.org/2000/svg" xmlns:xlink="http://www.w3.org/1999/xlink" xmlns:svgjs="http://svgjs.com/svgjs" viewBox="0 0.002 25 24.996" fill="#c1be99" x="1595" y="1777"><svg xmlns="http://www.w3.org/2000/svg" xmlns:xlink="http://www.w3.org/1999/xlink" width="25" height="25" viewBox="1.221 1.404 23.298 23.294"><path paint-order="stroke fill markers" fill-rule="evenodd" d="M10.756 1.404c-2.717 0-5.247.794-7.383 2.153a13.67 13.67 0 0 0-2.152 7.388c0 7.593 6.156 13.753 13.751 13.753 2.717 0 5.252-.789 7.389-2.15a13.683 13.683 0 0 0 2.158-7.39c0-7.596-6.163-13.754-13.763-13.754z"/></svg></svg><svg width="30" height="30" xmlns="http://www.w3.org/2000/svg" xmlns:xlink="http://www.w3.org/1999/xlink" xmlns:svgjs="http://svgjs.com/svgjs" viewBox="0.002 0 29.997 30" fill="#b7b284" x="1608" y="1635"><svg xmlns="http://www.w3.org/2000/svg" xmlns:xlink="http://www.w3.org/1999/xlink" width="30" height="30" viewBox="1.705 1.187 28.277 28.28"><path paint-order="stroke fill markers" fill-rule="evenodd" d="M6.411 9.395c0-3.026.874-5.84 2.385-8.208-4.259 2.732-7.09 7.48-7.09 12.913 0 8.489 6.878 15.368 15.37 15.368 5.433 0 10.177-2.84 12.907-7.094a15.252 15.252 0 0 1-8.206 2.38c-8.475 0-15.366-6.885-15.366-15.359z"/></svg></svg><svg width="18" height="18" xmlns="http://www.w3.org/2000/svg" xmlns:xlink="http://www.w3.org/1999/xlink" xmlns:svgjs="http://svgjs.com/svgjs" viewBox="0.002 0 17.996 18" fill="#b7b284" x="1530" y="1623"><svg xmlns="http://www.w3.org/2000/svg" xmlns:xlink="http://www.w3.org/1999/xlink" width="18" height="18" viewBox="1.003 1.083 16.105 16.109"><path paint-order="stroke fill markers" fill-rule="evenodd" d="M3.69 5.759c0-1.72.498-3.315 1.36-4.676C2.622 2.638 1.002 5.34 1.002 8.44a8.749 8.749 0 0 0 8.754 8.752c3.087 0 5.786-1.615 7.352-4.04a8.73 8.73 0 0 1-4.672 1.36c-4.84 0-8.746-3.92-8.746-8.753z"/></svg></svg><svg width="57" height="58" xmlns="http://www.w3.org/2000/svg" xmlns:xlink="http://www.w3.org/1999/xlink" xmlns:svgjs="http://svgjs.com/svgjs" viewBox="0 0.499 57 57.003" fill="#b7b284" x="1545" y="1683"><svg xmlns="http://www.w3.org/2000/svg" xmlns:xlink="http://www.w3.org/1999/xlink" width="57" height="58" viewBox="1.733 1.817 55.233 55.236"><path paint-order="stroke fill markers" fill-rule="evenodd" d="M10.921 17.882c0-5.914 1.73-11.421 4.677-16.065C7.27 7.145 1.733 16.454 1.733 27.081c0 16.553 13.423 29.973 29.987 29.973 10.615 0 19.926-5.532 25.246-13.858A29.82 29.82 0 0 1 40.91 47.87c-16.566 0-29.989-13.429-29.989-29.988z"/></svg></svg><svg width="32" height="31" xmlns="http://www.w3.org/2000/svg" xmlns:xlink="http://www.w3.org/1999/xlink" xmlns:svgjs="http://svgjs.com/svgjs" viewBox="0.507 0 30.987 31" fill="#b7b284" x="1637" y="1712"><svg xmlns="http://www.w3.org/2000/svg" xmlns:xlink="http://www.w3.org/1999/xlink" width="32" height="31" viewBox="1.68 1.259 29.375 29.388"><path paint-order="stroke fill markers" fill-rule="evenodd" d="M6.582 9.784c0-3.144.904-6.066 2.474-8.525C4.627 4.1 1.68 9.032 1.68 14.677c0 8.812 7.145 15.97 15.972 15.97 5.633 0 10.565-2.949 13.403-7.367a15.916 15.916 0 0 1-8.516 2.465c-8.813 0-15.957-7.148-15.957-15.96z"/></svg></svg><svg width="27" height="27" xmlns="http://www.w3.org/2000/svg" xmlns:xlink="http://www.w3.org/1999/xlink" xmlns:svgjs="http://svgjs.com/svgjs" viewBox="1.074 0 24.852 27" fill="#b7b284" x="1591" y="1779"><svg xmlns="http://www.w3.org/2000/svg" xmlns:xlink="http://www.w3.org/1999/xlink" width="27" height="27" viewBox="1.999 1.404 25.324 27.513"><path paint-order="stroke fill markers" fill-rule="evenodd" d="M12.244 1.913c1.123-.3 2.293-.509 3.512-.509-1.219 0-2.39.208-3.512.51zm-6.023 9.032c0-2.706.782-5.225 2.14-7.351C4.542 6.038 2 10.292 2 15.157c0 7.604 6.158 13.76 13.757 13.76 4.871 0 9.122-2.54 11.568-6.35a13.713 13.713 0 0 1-7.352 2.131c-7.595 0-13.751-6.16-13.751-13.753z"/></svg></svg><svg width="25" height="25" xmlns="http://www.w3.org/2000/svg" xmlns:xlink="http://www.w3.org/1999/xlink" xmlns:svgjs="http://svgjs.com/svgjs" viewBox="0.003 0 24.994 25" fill="#b7b284" x="1510" y="1762"><svg xmlns="http://www.w3.org/2000/svg" xmlns:xlink="http://www.w3.org/1999/xlink" width="25" height="25" viewBox="1.46 1.628 23.055 23.061"><path paint-order="stroke fill markers" fill-rule="evenodd" d="M5.3 8.318c0-2.463.716-4.759 1.94-6.69-3.468 2.228-5.78 6.097-5.78 10.526 0 6.924 5.598 12.534 12.526 12.534 4.428 0 8.297-2.31 10.529-5.782a12.52 12.52 0 0 1-6.689 1.94C10.9 20.847 5.3 15.245 5.3 8.319z"/></svg></svg><svg width="41" height="42" xmlns="http://www.w3.org/2000/svg" xmlns:xlink="http://www.w3.org/1999/xlink" xmlns:svgjs="http://svgjs.com/svgjs" viewBox="0 0.504 41 40.993" fill="#b7b284" x="1475" y="1681"><svg xmlns="http://www.w3.org/2000/svg" xmlns:xlink="http://www.w3.org/1999/xlink" width="41" height="42" viewBox="1.51 1.898 39.372 39.365"><path paint-order="stroke fill markers" fill-rule="evenodd" d="M8.068 13.31a21.34 21.34 0 0 1 3.306-11.412C5.447 5.703 1.51 12.311 1.51 19.873c0 11.815 9.578 21.39 21.394 21.39 7.57 0 14.175-3.948 17.978-9.872a21.215 21.215 0 0 1-11.415 3.315c-11.829 0-21.4-9.571-21.4-21.397z"/></svg></svg><svg width="160" height="182" xmlns="http://www.w3.org/2000/svg" xmlns:xlink="http://www.w3.org/1999/xlink" xmlns:svgjs="http://svgjs.com/svgjs" viewBox="0.166 0 159.669 182" fill="#fff" x="1399" y="1662"><svg xmlns="http://www.w3.org/2000/svg" xmlns:xlink="http://www.w3.org/1999/xlink" width="160" height="182" viewBox="1.427 1.782 157.738 179.799"><path paint-order="stroke fill markers" fill-rule="evenodd" d="M158.298 1.782c-33.094 0-61.104 21.587-70.834 51.429-18.61 4.138-33.78 17.276-40.737 34.641-25.157.856-45.3 21.461-45.3 46.822 0 25.326 20.073 45.9 45.17 46.823v.084h112.568V1.825c-.29-.013-.576-.043-.867-.043z"/></svg></svg><svg width="127" height="182" xmlns="http://www.w3.org/2000/svg" xmlns:xlink="http://www.w3.org/1999/xlink" xmlns:svgjs="http://svgjs.com/svgjs" viewBox="0 0.242 127 181.515" fill="#f2f4f9" x="1557" y="1662"><svg xmlns="http://www.w3.org/2000/svg" xmlns:xlink="http://www.w3.org/1999/xlink" width="127" height="182" viewBox="1.165 1.825 125.769 179.756"><path paint-order="stroke fill markers" fill-rule="evenodd" d="M74.2 67.156C69.725 30.611 38.826 2.256 1.165 1.825v179.756h70.961v-.133c30.487-1.322 54.809-26.383 54.809-57.195 0-30.11-23.23-54.75-52.735-57.097z"/></svg></svg><svg width="113" height="15" xmlns="http://www.w3.org/2000/svg" xmlns:xlink="http://www.w3.org/1999/xlink" xmlns:svgjs="http://svgjs.com/svgjs" viewBox="0 0.626 113 13.749" fill="#00e1ff" x="1433" y="1797"><svg xmlns="http://www.w3.org/2000/svg" xmlns:xlink="http://www.w3.org/1999/xlink" width="113" height="15" viewBox="1.713 1.296 110.417 13.435"><path paint-order="stroke fill markers" fill-rule="evenodd" d="M112.13 11.507a3.235 3.235 0 0 1-3.22 3.223H4.932a3.232 3.232 0 0 1-3.22-3.223V4.522a3.235 3.235 0 0 1 3.22-3.226h103.976a3.238 3.238 0 0 1 3.221 3.226v6.985z"/></svg></svg><svg width="113" height="15" xmlns="http://www.w3.org/2000/svg" xmlns:xlink="http://www.w3.org/1999/xlink" xmlns:svgjs="http://svgjs.com/svgjs" viewBox="0 0.622 113 13.757" fill="#00e1ff" x="1433" y="1874"><svg xmlns="http://www.w3.org/2000/svg" xmlns:xlink="http://www.w3.org/1999/xlink" width="113" height="15" viewBox="1.713 1.389 110.417 13.442"><path paint-order="stroke fill markers" fill-rule="evenodd" d="M112.13 11.603c0 1.772-1.456 3.228-3.22 3.228H4.932c-1.768 0-3.22-1.456-3.22-3.228V4.628c0-1.77 1.452-3.24 3.22-3.24h103.976c1.765 0 3.221 1.47 3.221 3.24v6.975z"/></svg></svg><svg width="77" height="15" xmlns="http://www.w3.org/2000/svg" xmlns:xlink="http://www.w3.org/1999/xlink" xmlns:svgjs="http://svgjs.com/svgjs" viewBox="0 0.584 77 13.833" fill="#00e1ff" x="1488" y="1835"><svg xmlns="http://www.w3.org/2000/svg" xmlns:xlink="http://www.w3.org/1999/xlink" width="77" height="15" viewBox="1.788 1.447 74.692 13.418"><path paint-order="stroke fill markers" fill-rule="evenodd" d="M76.48 11.65c0 1.772-1.455 3.215-3.228 3.215H5.01a3.227 3.227 0 0 1-3.22-3.215V4.664a3.232 3.232 0 0 1 3.22-3.217h68.243c1.773 0 3.229 1.45 3.229 3.217v6.986z"/></svg></svg><svg width="69" height="59" xmlns="http://www.w3.org/2000/svg" xmlns:xlink="http://www.w3.org/1999/xlink" xmlns:svgjs="http://svgjs.com/svgjs" viewBox="0 0.496 69 58.007" fill="#98d24d" x="1557" y="1753"><svg xmlns="http://www.w3.org/2000/svg" xmlns:xlink="http://www.w3.org/1999/xlink" width="69" height="59" viewBox="1.354 1.505 67.432 56.689"><path paint-order="stroke fill markers" fill-rule="evenodd" d="M65.018 7.253c-6.71.709-10.99 4.078-10.99 4.078l-.474-1.086c-1.807.477-5.762 2.008-5.762 2.008l.035-1.586c-2.631.783-6.726 6.1-7.897 6.1-2.946-5.187-5.13-5.554-5.13-5.554l-.717 4.233c-5.64-10.811-12.18-13.84-12.198-13.941-1.304 3.517-1.122 13.853-1.122 13.853l-2.146-1.313c-1.274 3.458.083 9.643.083 9.643s-2.473-.938-5.216-1.446c-.46 3.28.595 4.884 1.553 7.317-.601-.101-.613-.232-4.816-.365-5.616-.236-8.867 3.372-8.867 3.372l1.03 2.743c3.004 8.704 9.148 9.458 9.148 9.458l-3.93.202c2.535 5.506 8.807 5.178 8.807 5.178l-3.07.97c3.858 4.881 9.602 4.754 9.602 4.754l-1.735 1.203c1.316 1.259 4.75 1.134 6.873 1.099L68.785 6.919l-3.767.334z"/></svg></svg><svg width="84" height="74" xmlns="http://www.w3.org/2000/svg" xmlns:xlink="http://www.w3.org/1999/xlink" xmlns:svgjs="http://svgjs.com/svgjs" viewBox="0 0.427 84 73.146" fill="#83ba36" x="1559" y="1758"><svg xmlns="http://www.w3.org/2000/svg" xmlns:xlink="http://www.w3.org/1999/xlink" width="84" height="74" viewBox="2.027 1.908 82.214 71.591"><path paint-order="stroke fill markers" fill-rule="evenodd" d="M60.124 64.098c-1.128-4.053-1.261-4.04-1.504-4.592 2.595.341 4.415.987 7.479-.24-1.135-2.539-2.639-4.722-2.639-4.722s6.32-.158 9.377-2.215l-1.783-1.78s10.081-2.268 13.187-4.388c-.096.012-4.598-5.613-16.45-8.518l3.954-1.71s-.884-2.025-6.623-3.659c-.292-1.134 3.912-6.376 4.04-9.126l-1.528.421s.545-4.218.582-6.087l-1.166-.191s2.245-4.955 1.342-11.651l-.577-3.732-.899 1.12.87-1.11-40.707 51.255c-.51.473-3.47 2.208-11.537 5.877-8.068 3.664-11.483 3.027-12.666 3.233-1.177.22-.788 1.389-.788 1.389s0 1.311 1.644 1.232c1.633-.092 7.697-.764 15.941-5.49 3.086-1.765 6.204-3.03 8.339-4.53.485 1.992 1.202 4.402 2.427 5.17l.753-1.968s1.237 5.61 6.901 8.188l.212-3.209s1.17 6.17 7.122 7.328l-.74-3.87s2.19 5.787 11.373 6.635l2.9.34s2.735-4.009 1.164-9.4z"/></svg></svg><svg width="65" height="42" xmlns="http://www.w3.org/2000/svg" xmlns:xlink="http://www.w3.org/1999/xlink" xmlns:svgjs="http://svgjs.com/svgjs" viewBox="0 0.072 65 41.857" fill="#83ba36" x="1569" y="1871"><svg xmlns="http://www.w3.org/2000/svg" xmlns:xlink="http://www.w3.org/1999/xlink" width="65" height="42" viewBox="1.503 1.016 63.148 40.664"><path paint-order="stroke fill markers" fill-rule="evenodd" d="M1.509 12.735c-.425 19.301 20.787 22.856 23.05 23.328 7.133 1.105 37.327 4.877 40.092 5.618 0 0-24.104-26.24-60.085-40.665-2.876 5.993-2.972 9.73-3.057 11.72z"/></svg></svg><svg width="87" height="53" xmlns="http://www.w3.org/2000/svg" xmlns:xlink="http://www.w3.org/1999/xlink" xmlns:svgjs="http://svgjs.com/svgjs" viewBox="0 0.542 87 51.915" fill="#98d24d" x="1547" y="1860"><svg xmlns="http://www.w3.org/2000/svg" xmlns:xlink="http://www.w3.org/1999/xlink" width="87" height="53" viewBox="1.586 12.92 85.065 50.761"><path paint-order="stroke fill markers" fill-rule="evenodd" d="M2.831 18.249c11.507-1.165 22.826 4.44 23.735 4.767C62.547 37.441 86.65 63.681 86.65 63.681c-1.673-3.277-2.256-7.365-3.286-14.946-2.008-14.4-7.916-22.26-9.966-24.712-22.316-22.539-43.679-4.087-46.286-2.28-15.044-6.382-24.979-4.755-24.979-4.755s-.655.024-.533.631c.157.691.654.667 1.23.63z"/></svg></svg><svg width="243" height="85" xmlns="http://www.w3.org/2000/svg" xmlns:xlink="http://www.w3.org/1999/xlink" xmlns:svgjs="http://svgjs.com/svgjs" viewBox="0 0.464 243 84.072" fill="#d0d5d8" x="1435" y="1759"><svg xmlns="http://www.w3.org/2000/svg" width="243" height="85" viewBox="1.001 1.919 241.814 83.662"><path paint-order="stroke fill markers" fill-rule="evenodd" d="M190.827 1.958c.019.14.116.754.565 3.682.903 6.696-1.342 11.65-1.342 11.65l1.166.192c-.037 1.87-.582 6.087-.582 6.087l1.527-.42c-.127 2.75-4.33 7.99-4.039 9.125 5.739 1.634 6.623 3.66 6.623 3.66l-3.954 1.71c11.852 2.904 16.354 8.529 16.45 8.517-3.106 2.12-13.187 4.389-13.187 4.389l1.783 1.78c-3.056 2.056-9.377 2.214-9.377 2.214s1.504 2.183 2.639 4.721c-3.064 1.228-4.884.582-7.479.24.243.553.376.54 1.504 4.593 1.57 5.391-1.164 9.4-1.164 9.4l-2.9-.34c-9.184-.848-11.373-6.636-11.373-6.636l.74 3.87c-5.951-1.158-7.122-7.327-7.122-7.327l-.212 3.21c-5.664-2.58-6.901-8.19-6.901-8.19l-.753 1.969c-1.225-.768-1.942-3.178-2.427-5.17-2.135 1.5-5.253 2.765-8.339 4.53-8.244 4.726-14.308 5.398-15.941 5.49-1.644.08-1.644-1.232-1.644-1.232s-.389-1.168.788-1.389c.595-.103 1.737.003 3.738-.318L109.79 42.14c.2.421.34.881.34 1.382v6.985a3.235 3.235 0 0 1-3.222 3.223H2.933c-.737 0-1.389-.294-1.932-.716l32.57 32.567h21.217v-3.917a3.232 3.232 0 0 1 3.221-3.217h68.243c1.773 0 3.229 1.45 3.229 3.217v3.917h64.645v-.133c21.333-.923 39.615-13.491 48.69-31.503L190.827 1.958zm-.042-.04l-.869 1.11.887-1.094-.018-.015z"/></svg></svg></svg>