<svg width="287" height="291" xmlns="http://www.w3.org/2000/svg" xmlns:xlink="http://www.w3.org/1999/xlink" xmlns:svgjs="http://svgjs.com/svgjs" viewBox="235 1601 287 291"><svg width="195" height="195" xmlns="http://www.w3.org/2000/svg" xmlns:xlink="http://www.w3.org/1999/xlink" xmlns:svgjs="http://svgjs.com/svgjs" viewBox="0.002 0 194.996 195" fill="#d1d1b0" x="327" y="1601"><svg xmlns="http://www.w3.org/2000/svg" xmlns:xlink="http://www.w3.org/1999/xlink" width="195" height="195" viewBox="1.293 1.371 193.274 193.278"><path paint-order="stroke fill markers" fill-rule="evenodd" d="M80.437 1.371c-22.565 0-43.575 6.574-61.287 17.872C7.856 36.95 1.293 57.962 1.293 80.527c0 63.03 51.084 114.122 114.13 114.122 22.552 0 43.569-6.567 61.28-17.858 11.29-17.711 17.864-38.724 17.864-61.29 0-63.034-51.097-114.13-114.13-114.13z"/></svg></svg><svg width="212" height="212" xmlns="http://www.w3.org/2000/svg" xmlns:xlink="http://www.w3.org/1999/xlink" xmlns:svgjs="http://svgjs.com/svgjs" viewBox="0 0 212 211.999" fill="#c6c5a3" x="292" y="1619"><svg xmlns="http://www.w3.org/2000/svg" xmlns:xlink="http://www.w3.org/1999/xlink" width="212" height="212" viewBox="1.306 1.38 210.252 210.251"><path paint-order="stroke fill markers" fill-rule="evenodd" d="M36.293 62.527c0-22.51 6.538-43.472 17.778-61.147C22.378 21.657 1.306 57.083 1.306 97.5c0 63.035 51.103 114.13 114.13 114.13 40.415 0 75.845-21.062 96.122-52.755-17.68 11.237-38.644 17.774-61.135 17.774-63.046 0-114.13-51.091-114.13-114.122z"/></svg></svg><svg width="38" height="38" xmlns="http://www.w3.org/2000/svg" xmlns:xlink="http://www.w3.org/1999/xlink" xmlns:svgjs="http://svgjs.com/svgjs" viewBox="0 0.005 38 37.99" fill="#c1be99" x="318" y="1680"><svg xmlns="http://www.w3.org/2000/svg" xmlns:xlink="http://www.w3.org/1999/xlink" width="38" height="38" viewBox="1.988 1.033 36.236 36.226"><path paint-order="stroke fill markers" fill-rule="evenodd" d="M16.825 1.033A21.36 21.36 0 0 0 5.336 4.377a21.355 21.355 0 0 0-3.348 11.485c0 11.825 9.572 21.398 21.4 21.398a21.23 21.23 0 0 0 11.482-3.352 21.219 21.219 0 0 0 3.354-11.482c0-11.817-9.584-21.393-21.4-21.393z"/></svg></svg><svg width="53" height="53" xmlns="http://www.w3.org/2000/svg" xmlns:xlink="http://www.w3.org/1999/xlink" xmlns:svgjs="http://svgjs.com/svgjs" viewBox="0 0.001 53 52.999" fill="#c1be99" x="390" y="1680"><svg xmlns="http://www.w3.org/2000/svg" xmlns:xlink="http://www.w3.org/1999/xlink" width="53" height="53" viewBox="1.842 1.642 50.782 50.78"><path paint-order="stroke fill markers" fill-rule="evenodd" d="M22.641 1.642A29.824 29.824 0 0 0 6.543 6.34a29.83 29.83 0 0 0-4.701 16.096c0 16.56 13.424 29.988 29.988 29.988a29.86 29.86 0 0 0 16.098-4.692 29.863 29.863 0 0 0 4.695-16.098c0-16.565-13.423-29.99-29.982-29.99z"/></svg></svg><svg width="23" height="23" xmlns="http://www.w3.org/2000/svg" xmlns:xlink="http://www.w3.org/1999/xlink" xmlns:svgjs="http://svgjs.com/svgjs" viewBox="0.001 0 22.997 23" fill="#c1be99" x="350" y="1762"><svg xmlns="http://www.w3.org/2000/svg" xmlns:xlink="http://www.w3.org/1999/xlink" width="23" height="23" viewBox="1.221 1.179 21.217 21.22"><path paint-order="stroke fill markers" fill-rule="evenodd" d="M9.907 1.179c-2.475 0-4.78.721-6.733 1.965A12.467 12.467 0 0 0 1.22 9.871c0 6.927 5.598 12.527 12.525 12.527 2.475 0 4.78-.72 6.727-1.959a12.465 12.465 0 0 0 1.965-6.732c0-6.915-5.61-12.528-12.531-12.528z"/></svg></svg><svg width="28" height="28" xmlns="http://www.w3.org/2000/svg" xmlns:xlink="http://www.w3.org/1999/xlink" xmlns:svgjs="http://svgjs.com/svgjs" viewBox="0 0.002 28 27.997" fill="#c1be99" x="449" y="1634"><svg xmlns="http://www.w3.org/2000/svg" xmlns:xlink="http://www.w3.org/1999/xlink" width="28" height="28" viewBox="1.332 1.288 26.021 26.019"><path paint-order="stroke fill markers" fill-rule="evenodd" d="M11.995 1.288c-3.044 0-5.87.879-8.249 2.406a15.21 15.21 0 0 0-2.414 8.254c0 8.474 6.891 15.359 15.365 15.359 3.039 0 5.865-.88 8.255-2.406a15.293 15.293 0 0 0 2.402-8.249c0-8.482-6.866-15.364-15.359-15.364z"/></svg></svg><svg width="17" height="17" xmlns="http://www.w3.org/2000/svg" xmlns:xlink="http://www.w3.org/1999/xlink" xmlns:svgjs="http://svgjs.com/svgjs" viewBox="0.004 0 16.992 17" fill="#c1be99" x="368" y="1623"><svg xmlns="http://www.w3.org/2000/svg" xmlns:xlink="http://www.w3.org/1999/xlink" width="17" height="17" viewBox="1.612 1.245 14.812 14.819"><path paint-order="stroke fill markers" fill-rule="evenodd" d="M7.677 1.245A8.703 8.703 0 0 0 2.983 2.61a8.724 8.724 0 0 0-1.371 4.701 8.743 8.743 0 0 0 13.44 7.383 8.748 8.748 0 0 0-7.375-13.45z"/></svg></svg><svg width="29" height="29" xmlns="http://www.w3.org/2000/svg" xmlns:xlink="http://www.w3.org/1999/xlink" xmlns:svgjs="http://svgjs.com/svgjs" viewBox="0.002 0 28.997 29" fill="#c1be99" x="478" y="1711"><svg xmlns="http://www.w3.org/2000/svg" xmlns:xlink="http://www.w3.org/1999/xlink" width="29" height="29" viewBox="1.502 1.272 27.022 27.025"><path paint-order="stroke fill markers" fill-rule="evenodd" d="M12.572 1.272c-3.166 0-6.108.908-8.577 2.502a15.79 15.79 0 0 0-2.493 8.563c0 8.812 7.145 15.96 15.959 15.96 3.154 0 6.09-.915 8.564-2.491a15.83 15.83 0 0 0 2.5-8.577c0-8.811-7.146-15.957-15.953-15.957z"/></svg></svg><svg width="25" height="26" xmlns="http://www.w3.org/2000/svg" xmlns:xlink="http://www.w3.org/1999/xlink" xmlns:svgjs="http://svgjs.com/svgjs" viewBox="0 0.502 25 24.996" fill="#c1be99" x="431" y="1778"><svg xmlns="http://www.w3.org/2000/svg" xmlns:xlink="http://www.w3.org/1999/xlink" width="25" height="26" viewBox="1.142 1.957 23.298 23.294"><path paint-order="stroke fill markers" fill-rule="evenodd" d="M10.677 1.957c-2.718 0-5.246.794-7.382 2.152a13.666 13.666 0 0 0-2.153 7.389c0 7.593 6.156 13.753 13.75 13.753a13.7 13.7 0 0 0 7.389-2.15 13.676 13.676 0 0 0 2.159-7.391c0-7.595-6.162-13.753-13.763-13.753z"/></svg></svg><svg width="30" height="30" xmlns="http://www.w3.org/2000/svg" xmlns:xlink="http://www.w3.org/1999/xlink" xmlns:svgjs="http://svgjs.com/svgjs" viewBox="0.002 0 29.997 30" fill="#b7b284" x="444" y="1636"><svg xmlns="http://www.w3.org/2000/svg" xmlns:xlink="http://www.w3.org/1999/xlink" width="30" height="30" viewBox="1.625 1.739 28.278 28.281"><path paint-order="stroke fill markers" fill-rule="evenodd" d="M6.332 9.948c0-3.026.874-5.84 2.384-8.209-4.258 2.733-7.09 7.483-7.09 12.913 0 8.49 6.878 15.368 15.37 15.368 5.435 0 10.178-2.837 12.907-7.093a15.248 15.248 0 0 1-8.206 2.38c-8.474 0-15.365-6.885-15.365-15.359z"/></svg></svg><svg width="18" height="18" xmlns="http://www.w3.org/2000/svg" xmlns:xlink="http://www.w3.org/1999/xlink" xmlns:svgjs="http://svgjs.com/svgjs" viewBox="0.003 0 17.994 18" fill="#b7b284" x="365" y="1624"><svg xmlns="http://www.w3.org/2000/svg" xmlns:xlink="http://www.w3.org/1999/xlink" width="18" height="18" viewBox="1.924 1.636 16.105 16.11"><path paint-order="stroke fill markers" fill-rule="evenodd" d="M4.612 6.311A8.7 8.7 0 0 1 5.97 1.636C3.544 3.19 1.924 5.893 1.924 8.993a8.748 8.748 0 0 0 8.753 8.752c3.087 0 5.786-1.616 7.352-4.039a8.729 8.729 0 0 1-4.67 1.358 8.743 8.743 0 0 1-8.747-8.753z"/></svg></svg><svg width="57" height="57" xmlns="http://www.w3.org/2000/svg" xmlns:xlink="http://www.w3.org/1999/xlink" xmlns:svgjs="http://svgjs.com/svgjs" viewBox="0.002 0 56.997 57" fill="#b7b284" x="381" y="1685"><svg xmlns="http://www.w3.org/2000/svg" xmlns:xlink="http://www.w3.org/1999/xlink" width="57" height="57" viewBox="1.653 1.37 55.233 55.236"><path paint-order="stroke fill markers" fill-rule="evenodd" d="M10.842 17.435A29.879 29.879 0 0 1 15.519 1.37C7.19 6.7 1.653 16.007 1.653 26.633c0 16.553 13.423 29.973 29.988 29.973 10.615 0 19.925-5.53 25.245-13.856a29.819 29.819 0 0 1-16.056 4.673c-16.564 0-29.988-13.429-29.988-29.988z"/></svg></svg><svg width="31" height="32" xmlns="http://www.w3.org/2000/svg" xmlns:xlink="http://www.w3.org/1999/xlink" xmlns:svgjs="http://svgjs.com/svgjs" viewBox="0 0.493 31 31.014" fill="#b7b284" x="473" y="1713"><svg xmlns="http://www.w3.org/2000/svg" xmlns:xlink="http://www.w3.org/1999/xlink" width="31" height="32" viewBox="1.601 1.812 29.375 29.389"><path paint-order="stroke fill markers" fill-rule="evenodd" d="M6.502 10.337c0-3.145.904-6.066 2.474-8.525C4.55 4.653 1.601 9.585 1.601 15.229 1.6 24.042 8.746 31.2 17.57 31.2c5.636 0 10.567-2.95 13.405-7.367a15.92 15.92 0 0 1-8.515 2.465c-8.814 0-15.96-7.149-15.96-15.961z"/></svg></svg><svg width="28" height="27" xmlns="http://www.w3.org/2000/svg" xmlns:xlink="http://www.w3.org/1999/xlink" xmlns:svgjs="http://svgjs.com/svgjs" viewBox="1.574 0 24.851 27" fill="#b7b284" x="426" y="1781"><svg xmlns="http://www.w3.org/2000/svg" xmlns:xlink="http://www.w3.org/1999/xlink" width="28" height="27" viewBox="1.92 1.957 25.323 27.513"><path paint-order="stroke fill markers" fill-rule="evenodd" d="M12.165 2.466c1.122-.3 2.292-.509 3.512-.509-1.22 0-2.39.209-3.512.509zm-6.023 9.032c0-2.706.783-5.227 2.141-7.352C4.461 6.59 1.92 10.846 1.92 15.71c0 7.603 6.157 13.76 13.757 13.76 4.87 0 9.123-2.538 11.567-6.35a13.707 13.707 0 0 1-7.351 2.13c-7.595 0-13.751-6.16-13.751-13.752z"/></svg></svg><svg width="25" height="25" xmlns="http://www.w3.org/2000/svg" xmlns:xlink="http://www.w3.org/1999/xlink" xmlns:svgjs="http://svgjs.com/svgjs" viewBox="0.004 0 24.992 25" fill="#b7b284" x="346" y="1764"><svg xmlns="http://www.w3.org/2000/svg" xmlns:xlink="http://www.w3.org/1999/xlink" width="25" height="25" viewBox="1.381 1.18 23.055 23.063"><path paint-order="stroke fill markers" fill-rule="evenodd" d="M5.22 7.871c0-2.462.716-4.759 1.942-6.691-3.47 2.23-5.78 6.096-5.78 10.527 0 6.924 5.598 12.535 12.525 12.535 4.427 0 8.297-2.311 10.53-5.784a12.518 12.518 0 0 1-6.691 1.94c-6.927 0-12.525-5.6-12.525-12.527z"/></svg></svg><svg width="41" height="41" xmlns="http://www.w3.org/2000/svg" xmlns:xlink="http://www.w3.org/1999/xlink" xmlns:svgjs="http://svgjs.com/svgjs" viewBox="0 0.004 41 40.993" fill="#b7b284" x="311" y="1683"><svg xmlns="http://www.w3.org/2000/svg" xmlns:xlink="http://www.w3.org/1999/xlink" width="41" height="41" viewBox="1.431 1.45 39.372 39.365"><path paint-order="stroke fill markers" fill-rule="evenodd" d="M7.988 12.862c0-4.197 1.225-8.106 3.306-11.412-5.926 3.806-9.863 10.414-9.863 17.976 0 11.815 9.578 21.39 21.394 21.39 7.57 0 14.175-3.948 17.978-9.872a21.214 21.214 0 0 1-11.415 3.316c-11.828 0-21.4-9.573-21.4-21.398z"/></svg></svg><svg width="159" height="182" xmlns="http://www.w3.org/2000/svg" xmlns:xlink="http://www.w3.org/1999/xlink" xmlns:svgjs="http://svgjs.com/svgjs" viewBox="0 0.378 159 181.244" fill="#fff" x="235" y="1658"><svg xmlns="http://www.w3.org/2000/svg" xmlns:xlink="http://www.w3.org/1999/xlink" width="159" height="182" viewBox="1.093 1.641 157.736 179.803"><path paint-order="stroke fill markers" fill-rule="evenodd" d="M157.961 1.642c-33.093 0-61.105 21.587-70.834 51.43-18.61 4.136-33.78 17.275-40.736 34.64-25.16.856-45.298 21.46-45.298 46.821 0 25.33 20.071 45.898 45.164 46.826v.085h112.572V1.684c-.292-.011-.577-.042-.868-.042z"/></svg></svg><svg width="128" height="182" xmlns="http://www.w3.org/2000/svg" xmlns:xlink="http://www.w3.org/1999/xlink" xmlns:svgjs="http://svgjs.com/svgjs" viewBox="0.331 0 127.338 182" fill="#f2f4f9" x="392" y="1658"><svg xmlns="http://www.w3.org/2000/svg" xmlns:xlink="http://www.w3.org/1999/xlink" width="128" height="182" viewBox="1.829 1.684 125.771 179.76"><path paint-order="stroke fill markers" fill-rule="evenodd" d="M74.865 67.017C70.388 30.47 39.49 2.115 1.829 1.684v179.76H72.79v-.133c30.486-1.323 54.809-26.385 54.809-57.199 0-30.11-23.232-54.748-52.734-57.095z"/></svg></svg><svg width="75" height="67" xmlns="http://www.w3.org/2000/svg" xmlns:xlink="http://www.w3.org/1999/xlink" xmlns:svgjs="http://svgjs.com/svgjs" viewBox="0 0.325 75 66.35" fill="#00e1ff" x="405" y="1811"><svg xmlns="http://www.w3.org/2000/svg" xmlns:xlink="http://www.w3.org/1999/xlink" width="75" height="67" viewBox="4.057 1.698 73.594 65.106"><path paint-order="stroke fill markers" fill-rule="evenodd" d="M74.655 1.866L29.356 14.032l-3.845 1.031c-4.5 1.48-8.735 3.979-12.3 7.546-12.205 12.204-12.205 31.991 0 44.195l64.44-64.44c-.632-.632-1.675-.851-2.996-.498z"/></svg></svg><svg width="67" height="75" xmlns="http://www.w3.org/2000/svg" xmlns:xlink="http://www.w3.org/1999/xlink" xmlns:svgjs="http://svgjs.com/svgjs" viewBox="0.325 0 66.35 75" fill="#00c6f4" x="414" y="1812"><svg xmlns="http://www.w3.org/2000/svg" xmlns:xlink="http://www.w3.org/1999/xlink" width="67" height="75" viewBox="1.21 1.363 65.106 73.594"><path paint-order="stroke fill markers" fill-rule="evenodd" d="M52.95 53.526l1.03-3.882L66.149 4.358c.352-1.316.134-2.364-.497-2.995L1.21 65.803c12.203 12.205 31.989 12.205 44.193 0 3.567-3.567 6.053-7.789 7.545-12.277z"/></svg></svg><svg width="23" height="27" xmlns="http://www.w3.org/2000/svg" xmlns:xlink="http://www.w3.org/1999/xlink" xmlns:svgjs="http://svgjs.com/svgjs" viewBox="0.068 0 22.864 27" fill="#d0d5d8" x="473" y="1812"><svg xmlns="http://www.w3.org/2000/svg" xmlns:xlink="http://www.w3.org/1999/xlink" width="23" height="27" viewBox="1.313 1.363 20.915 24.698"><path paint-order="stroke fill markers" fill-rule="evenodd" d="M7.148 4.358L1.313 26.062c7.642-1.638 14.74-4.768 20.914-9.112L6.651 1.363c.63.631.85 1.679.497 2.995z"/></svg></svg><svg width="87" height="97" xmlns="http://www.w3.org/2000/svg" xmlns:xlink="http://www.w3.org/1999/xlink" xmlns:svgjs="http://svgjs.com/svgjs" viewBox="0 0.159 87 96.682" fill="#00e1ff" x="255" y="1795"><svg xmlns="http://www.w3.org/2000/svg" xmlns:xlink="http://www.w3.org/1999/xlink" width="87" height="97" viewBox="2.055 1.216 85.43 94.938"><path paint-order="stroke fill markers" fill-rule="evenodd" d="M87.01 68.549l-10.9-6.295 9.486-2.543a.958.958 0 0 0 .68-1.17l-1.535-5.714a.961.961 0 0 0-1.171-.68l-17.056 4.575-13.915-8.038 13.915-8.037 17.056 4.574a.96.96 0 0 0 1.171-.68l1.534-5.713a.97.97 0 0 0-.679-1.177l-9.486-2.536 10.9-6.296a.958.958 0 0 0 .345-1.31L84.4 22.39a.951.951 0 0 0-1.304-.351l-10.906 6.29 2.548-9.48a.963.963 0 0 0-.68-1.177l-5.713-1.53a.953.953 0 0 0-1.177.674l-4.574 17.057-13.908 8.031V26.568l12.476-12.482a.952.952 0 0 0 0-1.353l-4.172-4.185a.97.97 0 0 0-1.36 0l-6.944 6.951V2.174a.961.961 0 0 0-.965-.958h-5.907a.96.96 0 0 0-.958.958v13.325l-6.952-6.951a.956.956 0 0 0-1.347 0l-4.185 4.185a.952.952 0 0 0 0 1.353l12.484 12.482v15.335l-13.278-7.667-4.568-17.05a.96.96 0 0 0-1.177-.68l-5.713 1.535a.959.959 0 0 0-.68 1.17l2.548 9.487-11.536-6.66a.956.956 0 0 0-1.311.352l-2.96 5.12a.96.96 0 0 0 .352 1.31l11.537 6.66-9.487 2.541a.969.969 0 0 0-.68 1.176l1.529 5.71a.967.967 0 0 0 1.177.678l17.056-4.568 13.272 7.667-13.272 7.667L6.61 51.777a.959.959 0 0 0-1.171.68L3.904 58.17a.959.959 0 0 0 .68 1.17l9.487 2.549-11.537 6.659a.96.96 0 0 0-.352 1.31l2.96 5.12c.26.46.85.618 1.31.35l11.537-6.66-2.548 9.487a.96.96 0 0 0 .68 1.171l5.713 1.535a.965.965 0 0 0 1.177-.68l4.568-17.05 13.278-7.666v16.067L28.373 84.016a.953.953 0 0 0 0 1.353l4.185 4.179a.945.945 0 0 0 1.347 0l6.952-6.939v12.585c0 .529.43.96.958.96h5.907c.534 0 .965-.431.965-.96V82.61l6.945 6.939a.96.96 0 0 0 1.359 0l4.172-4.179a.953.953 0 0 0 0-1.353L48.687 71.533V55.466l13.908 8.037 4.574 17.044a.96.96 0 0 0 1.177.68l5.713-1.529a.967.967 0 0 0 .68-1.178l-2.548-9.486 10.906 6.296a.95.95 0 0 0 1.304-.352l2.954-5.119a.958.958 0 0 0-.346-1.31z"/></svg></svg><svg width="92" height="45" xmlns="http://www.w3.org/2000/svg" xmlns:xlink="http://www.w3.org/1999/xlink" xmlns:svgjs="http://svgjs.com/svgjs" viewBox="0 0.754 92 43.493" fill="#d0d5d8" x="269" y="1795"><svg xmlns="http://www.w3.org/2000/svg" width="92" height="45" viewBox="1.545 1.936 89.916 42.508"><path paint-order="stroke fill markers" fill-rule="evenodd" d="M51.732 18.435l-5.362-5.368-.085-.054c.17.357.182.776-.122 1.073L33.687 26.568v15.335l13.908-8.031 4.137-15.437zM1.545 42.928c3.155.8 6.43 1.31 9.814 1.431v.085h3.24l-5.933-3.427-7.12 1.91zm11.034-8.692l13.278 7.667v-6.746L8.059 17.367l4.52 16.87zM33.687 15.5l6.727-6.733-6.824-6.83c.024.085.097.146.097.238v13.325zm57.775 28.945L69.402 22.39l2.953 5.12a.958.958 0 0 1-.346 1.31l-10.9 6.295 9.487 2.536a.97.97 0 0 1 .68 1.177l-1.505 5.616h21.69zM65.234 23.688l-5.665-5.672-.049.013c.182.225.297.51.219.819l-2.548 9.48 8.043-4.64zM44.938 44.444h20.745l-14.17-3.797-6.575 3.797z"/></svg></svg></svg>