<svg width="285" height="319" xmlns="http://www.w3.org/2000/svg" xmlns:xlink="http://www.w3.org/1999/xlink" xmlns:svgjs="http://svgjs.com/svgjs" viewBox="220 2040 285 319"><svg width="195" height="195" xmlns="http://www.w3.org/2000/svg" xmlns:xlink="http://www.w3.org/1999/xlink" xmlns:svgjs="http://svgjs.com/svgjs" viewBox="0.003 0 194.994 195" fill="#d1d1b0" x="308" y="2040"><svg xmlns="http://www.w3.org/2000/svg" xmlns:xlink="http://www.w3.org/1999/xlink" width="195" height="195" viewBox="1.659 1.295 193.274 193.28"><path paint-order="stroke fill markers" fill-rule="evenodd" d="M80.803 1.295c-22.563 0-43.575 6.575-61.287 17.869C8.222 36.876 1.66 57.888 1.66 80.451c0 63.033 51.084 114.124 114.13 114.124 22.552 0 43.57-6.57 61.282-17.863 11.287-17.711 17.862-38.723 17.862-61.287 0-63.034-51.096-114.13-114.13-114.13z"/></svg></svg><svg width="212" height="212" xmlns="http://www.w3.org/2000/svg" xmlns:xlink="http://www.w3.org/1999/xlink" xmlns:svgjs="http://svgjs.com/svgjs" viewBox="0 0 211.999 212" fill="#c6c5a3" x="273" y="2058"><svg xmlns="http://www.w3.org/2000/svg" xmlns:xlink="http://www.w3.org/1999/xlink" width="212" height="212" viewBox="1.673 1.304 210.251 210.252"><path paint-order="stroke fill markers" fill-rule="evenodd" d="M36.66 62.451c0-22.509 6.538-43.472 17.777-61.147-31.692 20.278-52.764 55.7-52.764 96.12 0 63.036 51.103 114.132 114.13 114.132 40.415 0 75.844-21.059 96.122-52.758-17.681 11.24-38.644 17.777-61.135 17.777-63.047 0-114.13-51.09-114.13-114.124z"/></svg></svg><svg width="38" height="39" xmlns="http://www.w3.org/2000/svg" xmlns:xlink="http://www.w3.org/1999/xlink" xmlns:svgjs="http://svgjs.com/svgjs" viewBox="0 0.503 38 37.993" fill="#c1be99" x="299" y="2118"><svg xmlns="http://www.w3.org/2000/svg" xmlns:xlink="http://www.w3.org/1999/xlink" width="38" height="39" viewBox="1.355 1.954 36.236 36.23"><path paint-order="stroke fill markers" fill-rule="evenodd" d="M16.19 1.954a21.366 21.366 0 0 0-11.487 3.35A21.353 21.353 0 0 0 1.355 16.79c0 11.822 9.571 21.393 21.4 21.393 4.227 0 8.163-1.23 11.481-3.353a21.205 21.205 0 0 0 3.355-11.477c0-11.815-9.584-21.399-21.4-21.399z"/></svg></svg><svg width="52" height="53" xmlns="http://www.w3.org/2000/svg" xmlns:xlink="http://www.w3.org/1999/xlink" xmlns:svgjs="http://svgjs.com/svgjs" viewBox="0 0.499 52 52.001" fill="#c1be99" x="372" y="2119"><svg xmlns="http://www.w3.org/2000/svg" xmlns:xlink="http://www.w3.org/1999/xlink" width="52" height="53" viewBox="1.208 1.566 50.781 50.782"><path paint-order="stroke fill markers" fill-rule="evenodd" d="M22.007 1.566A29.755 29.755 0 0 0 5.91 6.267a29.822 29.822 0 0 0-4.7 16.093c0 16.559 13.422 29.989 29.988 29.989a29.91 29.91 0 0 0 16.098-4.69 29.883 29.883 0 0 0 4.695-16.098c0-16.57-13.423-29.995-29.983-29.995z"/></svg></svg><svg width="23" height="23" xmlns="http://www.w3.org/2000/svg" xmlns:xlink="http://www.w3.org/1999/xlink" xmlns:svgjs="http://svgjs.com/svgjs" viewBox="0 0 23 22.999" fill="#c1be99" x="331" y="2201"><svg xmlns="http://www.w3.org/2000/svg" xmlns:xlink="http://www.w3.org/1999/xlink" width="23" height="23" viewBox="1.587 1.107 21.217 21.217"><path paint-order="stroke fill markers" fill-rule="evenodd" d="M10.273 1.107c-2.475 0-4.78.715-6.733 1.965a12.45 12.45 0 0 0-1.953 6.72c0 6.927 5.598 12.532 12.526 12.532 2.474 0 4.78-.722 6.727-1.96a12.456 12.456 0 0 0 1.965-6.732c0-6.915-5.61-12.525-12.532-12.525z"/></svg></svg><svg width="28" height="28" xmlns="http://www.w3.org/2000/svg" xmlns:xlink="http://www.w3.org/1999/xlink" xmlns:svgjs="http://svgjs.com/svgjs" viewBox="0 0.003 28 27.993" fill="#c1be99" x="430" y="2073"><svg xmlns="http://www.w3.org/2000/svg" xmlns:xlink="http://www.w3.org/1999/xlink" width="28" height="28" viewBox="1.7 1.214 26.021 26.015"><path paint-order="stroke fill markers" fill-rule="evenodd" d="M12.362 1.214c-3.044 0-5.87.879-8.249 2.407A15.197 15.197 0 0 0 1.7 11.87c0 8.48 6.89 15.358 15.363 15.358 3.039 0 5.866-.873 8.255-2.401a15.285 15.285 0 0 0 2.403-8.25c0-8.48-6.867-15.363-15.359-15.363z"/></svg></svg><svg width="16" height="16" xmlns="http://www.w3.org/2000/svg" xmlns:xlink="http://www.w3.org/1999/xlink" xmlns:svgjs="http://svgjs.com/svgjs" viewBox="0.006 0 15.988 16" fill="#c1be99" x="350" y="2062"><svg xmlns="http://www.w3.org/2000/svg" xmlns:xlink="http://www.w3.org/1999/xlink" width="16" height="16" viewBox="1.978 1.169 14.812 14.823"><path paint-order="stroke fill markers" fill-rule="evenodd" d="M8.044 1.169a8.708 8.708 0 0 0-4.695 1.37 8.699 8.699 0 0 0-1.371 4.694c0 4.84 3.906 8.76 8.747 8.76 1.723 0 3.335-.51 4.694-1.372a8.716 8.716 0 0 0 1.371-4.706c0-4.83-3.918-8.746-8.746-8.746z"/></svg></svg><svg width="29" height="29" xmlns="http://www.w3.org/2000/svg" xmlns:xlink="http://www.w3.org/1999/xlink" xmlns:svgjs="http://svgjs.com/svgjs" viewBox="0 0 29 28.999" fill="#c1be99" x="459" y="2150"><svg xmlns="http://www.w3.org/2000/svg" xmlns:xlink="http://www.w3.org/1999/xlink" width="29" height="29" viewBox="1.869 1.198 27.022 27.021"><path paint-order="stroke fill markers" fill-rule="evenodd" d="M12.938 1.198c-3.166 0-6.108.904-8.576 2.505a15.758 15.758 0 0 0-2.493 8.559c0 8.812 7.145 15.958 15.958 15.958 3.154 0 6.09-.91 8.565-2.486a15.861 15.861 0 0 0 2.498-8.577c0-8.813-7.145-15.959-15.952-15.959z"/></svg></svg><svg width="25" height="26" xmlns="http://www.w3.org/2000/svg" xmlns:xlink="http://www.w3.org/1999/xlink" xmlns:svgjs="http://svgjs.com/svgjs" viewBox="0 0.503 25 24.993" fill="#c1be99" x="412" y="2217"><svg xmlns="http://www.w3.org/2000/svg" xmlns:xlink="http://www.w3.org/1999/xlink" width="25" height="26" viewBox="1.508 1.884 23.298 23.292"><path paint-order="stroke fill markers" fill-rule="evenodd" d="M11.044 1.884A13.7 13.7 0 0 0 3.66 4.03a13.67 13.67 0 0 0-2.153 7.389c0 7.593 6.157 13.756 13.751 13.756 2.717 0 5.253-.79 7.388-2.147a13.68 13.68 0 0 0 2.16-7.394c0-7.595-6.164-13.751-13.763-13.751z"/></svg></svg><svg width="30" height="30" xmlns="http://www.w3.org/2000/svg" xmlns:xlink="http://www.w3.org/1999/xlink" xmlns:svgjs="http://svgjs.com/svgjs" viewBox="0.003 0 29.994 30" fill="#b7b284" x="426" y="2075"><svg xmlns="http://www.w3.org/2000/svg" xmlns:xlink="http://www.w3.org/1999/xlink" width="30" height="30" viewBox="1.992 1.664 28.278 28.284"><path paint-order="stroke fill markers" fill-rule="evenodd" d="M6.7 9.87c0-3.02.873-5.834 2.383-8.206-4.258 2.735-7.09 7.479-7.09 12.913 0 8.493 6.878 15.371 15.37 15.371 5.434 0 10.177-2.839 12.907-7.096a15.277 15.277 0 0 1-8.207 2.376C13.589 25.228 6.7 18.35 6.7 9.87z"/></svg></svg><svg width="18" height="18" xmlns="http://www.w3.org/2000/svg" xmlns:xlink="http://www.w3.org/1999/xlink" xmlns:svgjs="http://svgjs.com/svgjs" viewBox="0.003 0 17.993 18" fill="#b7b284" x="347" y="2063"><svg xmlns="http://www.w3.org/2000/svg" xmlns:xlink="http://www.w3.org/1999/xlink" width="18" height="18" viewBox="1.291 1.563 16.104 16.109"><path paint-order="stroke fill markers" fill-rule="evenodd" d="M3.978 6.233c0-1.717.497-3.311 1.36-4.67C2.91 3.116 1.29 5.823 1.29 8.915a8.749 8.749 0 0 0 8.753 8.758c3.087 0 5.786-1.618 7.35-4.04a8.746 8.746 0 0 1-4.67 1.36c-4.84 0-8.746-3.92-8.746-8.76z"/></svg></svg><svg width="57" height="57" xmlns="http://www.w3.org/2000/svg" xmlns:xlink="http://www.w3.org/1999/xlink" xmlns:svgjs="http://svgjs.com/svgjs" viewBox="0.003 0 56.994 57" fill="#b7b284" x="363" y="2124"><svg xmlns="http://www.w3.org/2000/svg" xmlns:xlink="http://www.w3.org/1999/xlink" width="57" height="57" viewBox="1.019 1.292 55.233 55.239"><path paint-order="stroke fill markers" fill-rule="evenodd" d="M10.208 17.36a29.904 29.904 0 0 1 4.677-16.068C6.557 6.622 1.019 15.934 1.019 26.562c0 16.546 13.423 29.97 29.988 29.97 10.615 0 19.926-5.533 25.245-13.86a29.798 29.798 0 0 1-16.055 4.677c-16.566 0-29.989-13.43-29.989-29.989z"/></svg></svg><svg width="32" height="32" xmlns="http://www.w3.org/2000/svg" xmlns:xlink="http://www.w3.org/1999/xlink" xmlns:svgjs="http://svgjs.com/svgjs" viewBox="0.003 0 31.995 32" fill="#b7b284" x="454" y="2152"><svg xmlns="http://www.w3.org/2000/svg" xmlns:xlink="http://www.w3.org/1999/xlink" width="32" height="32" viewBox="1.968 1.739 29.376 29.381"><path paint-order="stroke fill markers" fill-rule="evenodd" d="M6.869 10.262c0-3.148.903-6.067 2.475-8.523-4.429 2.84-7.376 7.77-7.376 13.418 0 8.807 7.145 15.963 15.97 15.963 5.635 0 10.566-2.947 13.406-7.362a15.947 15.947 0 0 1-8.517 2.462c-8.813 0-15.958-7.146-15.958-15.958z"/></svg></svg><svg width="27" height="27" xmlns="http://www.w3.org/2000/svg" xmlns:xlink="http://www.w3.org/1999/xlink" xmlns:svgjs="http://svgjs.com/svgjs" viewBox="1.074 0 24.851 27" fill="#b7b284" x="408" y="2220"><svg xmlns="http://www.w3.org/2000/svg" xmlns:xlink="http://www.w3.org/1999/xlink" width="27" height="27" viewBox="1.287 1.884 25.324 27.514"><path paint-order="stroke fill markers" fill-rule="evenodd" d="M11.532 2.392c1.122-.301 2.292-.508 3.512-.508-1.22 0-2.39.207-3.512.508zM5.508 11.42c0-2.706.783-5.223 2.142-7.352-3.821 2.45-6.363 6.701-6.363 11.567 0 7.6 6.156 13.762 13.757 13.762 4.87 0 9.122-2.54 11.567-6.356a13.712 13.712 0 0 1-7.352 2.135c-7.594 0-13.75-6.163-13.75-13.756z"/></svg></svg><svg width="25" height="25" xmlns="http://www.w3.org/2000/svg" xmlns:xlink="http://www.w3.org/1999/xlink" xmlns:svgjs="http://svgjs.com/svgjs" viewBox="0.003 0 24.995 25" fill="#b7b284" x="327" y="2203"><svg xmlns="http://www.w3.org/2000/svg" xmlns:xlink="http://www.w3.org/1999/xlink" width="25" height="25" viewBox="1.748 1.108 23.056 23.061"><path paint-order="stroke fill markers" fill-rule="evenodd" d="M5.587 7.793c0-2.463.716-4.756 1.941-6.685-3.47 2.226-5.78 6.091-5.78 10.524 0 6.92 5.598 12.537 12.525 12.537 4.428 0 8.298-2.316 10.53-5.785a12.5 12.5 0 0 1-6.69 1.94c-6.928 0-12.526-5.605-12.526-12.531z"/></svg></svg><svg width="42" height="41" xmlns="http://www.w3.org/2000/svg" xmlns:xlink="http://www.w3.org/1999/xlink" xmlns:svgjs="http://svgjs.com/svgjs" viewBox="0.497 0 41.007 41" fill="#b7b284" x="292" y="2122"><svg xmlns="http://www.w3.org/2000/svg" xmlns:xlink="http://www.w3.org/1999/xlink" width="42" height="41" viewBox="1.798 1.376 39.372 39.365"><path paint-order="stroke fill markers" fill-rule="evenodd" d="M8.355 12.79c0-4.197 1.225-8.11 3.305-11.414-5.926 3.807-9.862 10.413-9.862 17.977 0 11.816 9.577 21.388 21.393 21.388 7.57 0 14.175-3.948 17.978-9.875a21.224 21.224 0 0 1-11.415 3.317c-11.828 0-21.4-9.57-21.4-21.393z"/></svg></svg><svg width="159" height="182" xmlns="http://www.w3.org/2000/svg" xmlns:xlink="http://www.w3.org/1999/xlink" xmlns:svgjs="http://svgjs.com/svgjs" viewBox="0 0.383 159 181.234" fill="#fff" x="220" y="2098"><svg xmlns="http://www.w3.org/2000/svg" xmlns:xlink="http://www.w3.org/1999/xlink" width="159" height="182" viewBox="1.083 1.755 157.739 179.797"><path paint-order="stroke fill markers" fill-rule="evenodd" d="M157.955 1.755c-33.097 0-61.108 21.582-70.834 51.426-18.61 4.134-33.78 17.274-40.737 34.645-25.157.85-45.3 21.46-45.3 46.815 0 25.33 20.073 45.904 45.17 46.826v.085h112.568V1.792c-.29-.012-.576-.037-.867-.037z"/></svg></svg><svg width="128" height="182" xmlns="http://www.w3.org/2000/svg" xmlns:xlink="http://www.w3.org/1999/xlink" xmlns:svgjs="http://svgjs.com/svgjs" viewBox="0.331 0 127.337 182" fill="#f2f4f9" x="377" y="2098"><svg xmlns="http://www.w3.org/2000/svg" xmlns:xlink="http://www.w3.org/1999/xlink" width="128" height="182" viewBox="1.822 1.792 125.77 179.76"><path paint-order="stroke fill markers" fill-rule="evenodd" d="M74.858 67.13C70.38 30.58 39.483 2.229 1.822 1.793v179.76h70.962v-.134c30.485-1.321 54.808-26.385 54.808-57.198 0-30.11-23.23-54.747-52.734-57.09z"/></svg></svg><svg width="76" height="67" xmlns="http://www.w3.org/2000/svg" xmlns:xlink="http://www.w3.org/1999/xlink" xmlns:svgjs="http://svgjs.com/svgjs" viewBox="0.132 0 75.735 67" fill="#00e1ff" x="245" y="2242"><svg xmlns="http://www.w3.org/2000/svg" xmlns:xlink="http://www.w3.org/1999/xlink" width="76" height="67" viewBox="4.858 1.427 73.595 65.107"><path paint-order="stroke fill markers" fill-rule="evenodd" d="M75.46 1.596L30.155 13.763l-3.842 1.032a31.097 31.097 0 0 0-12.301 7.545c-12.204 12.203-12.207 31.99 0 44.194L78.453 2.092c-.634-.631-1.68-.849-2.993-.496z"/></svg></svg><svg width="67" height="75" xmlns="http://www.w3.org/2000/svg" xmlns:xlink="http://www.w3.org/1999/xlink" xmlns:svgjs="http://svgjs.com/svgjs" viewBox="0.321 0 66.357 75" fill="#00c6f4" x="255" y="2243"><svg xmlns="http://www.w3.org/2000/svg" xmlns:xlink="http://www.w3.org/1999/xlink" width="67" height="75" viewBox="1.012 1.092 65.106 73.586"><path paint-order="stroke fill markers" fill-rule="evenodd" d="M52.748 53.256l1.035-3.882L65.95 4.077c.353-1.298.133-2.353-.497-2.985L1.012 65.534c12.198 12.192 31.987 12.192 44.191 0a31.139 31.139 0 0 0 7.545-12.278z"/></svg></svg><svg width="75" height="67" xmlns="http://www.w3.org/2000/svg" xmlns:xlink="http://www.w3.org/1999/xlink" xmlns:svgjs="http://svgjs.com/svgjs" viewBox="0 0.324 75 66.351" fill="#00e1ff" x="390" y="2251"><svg xmlns="http://www.w3.org/2000/svg" xmlns:xlink="http://www.w3.org/1999/xlink" width="75" height="67" viewBox="5.051 1.804 73.593 65.107"><path paint-order="stroke fill markers" fill-rule="evenodd" d="M75.648 1.973L30.35 14.14l-3.846 1.03c-4.5 1.48-8.734 3.978-12.3 7.546C2 34.92 2 54.707 14.203 66.91L78.643 2.47c-.63-.631-1.673-.85-2.996-.497z"/></svg></svg><svg width="67" height="76" xmlns="http://www.w3.org/2000/svg" xmlns:xlink="http://www.w3.org/1999/xlink" xmlns:svgjs="http://svgjs.com/svgjs" viewBox="0 0.132 67 75.736" fill="#00c6f4" x="399" y="2252"><svg xmlns="http://www.w3.org/2000/svg" xmlns:xlink="http://www.w3.org/1999/xlink" width="67" height="76" viewBox="1.203 1.47 65.106 73.594"><path paint-order="stroke fill markers" fill-rule="evenodd" d="M52.943 53.634l1.03-3.881L66.143 4.466c.351-1.309.133-2.365-.498-2.996L1.204 65.91c12.203 12.204 31.99 12.204 44.193 0 3.567-3.567 6.054-7.788 7.546-12.277z"/></svg></svg><svg width="45" height="37" xmlns="http://www.w3.org/2000/svg" xmlns:xlink="http://www.w3.org/1999/xlink" xmlns:svgjs="http://svgjs.com/svgjs" viewBox="0 0.236 45 36.528" fill="#d0d5d8" x="311" y="2243"><svg xmlns="http://www.w3.org/2000/svg" xmlns:xlink="http://www.w3.org/1999/xlink" width="45" height="37" viewBox="1.228 1.092 43.685 35.46"><path paint-order="stroke fill markers" fill-rule="evenodd" d="M9.95 4.077L1.228 36.552h43.684L9.453 1.092c.63.632.85 1.687.497 2.985z"/></svg></svg><svg width="23" height="27" xmlns="http://www.w3.org/2000/svg" xmlns:xlink="http://www.w3.org/1999/xlink" xmlns:svgjs="http://svgjs.com/svgjs" viewBox="0.069 0 22.863 27" fill="#d0d5d8" x="458" y="2252"><svg xmlns="http://www.w3.org/2000/svg" xmlns:xlink="http://www.w3.org/1999/xlink" width="23" height="27" viewBox="1.306 1.47 20.915 24.699"><path paint-order="stroke fill markers" fill-rule="evenodd" d="M7.142 4.466L1.306 26.169c7.643-1.638 14.74-4.768 20.915-9.11L6.644 1.469c.63.632.85 1.688.498 2.997z"/></svg></svg><svg width="65" height="42" xmlns="http://www.w3.org/2000/svg" xmlns:xlink="http://www.w3.org/1999/xlink" xmlns:svgjs="http://svgjs.com/svgjs" viewBox="0 0.073 65 41.855" fill="#83ba36" x="299" y="2317"><svg xmlns="http://www.w3.org/2000/svg" xmlns:xlink="http://www.w3.org/1999/xlink" width="65" height="42" viewBox="1.145 1.336 63.149 40.663"><path paint-order="stroke fill markers" fill-rule="evenodd" d="M64.288 13.055c.425 19.3-20.793 22.855-23.049 23.328-7.133 1.104-37.328 4.876-40.094 5.616 0 0 24.105-26.24 60.086-40.663 2.875 5.991 2.973 9.73 3.057 11.719z"/></svg></svg><svg width="87" height="52" xmlns="http://www.w3.org/2000/svg" xmlns:xlink="http://www.w3.org/1999/xlink" xmlns:svgjs="http://svgjs.com/svgjs" viewBox="0 0.043 87 51.914" fill="#98d24d" x="299" y="2307"><svg xmlns="http://www.w3.org/2000/svg" width="87" height="52" viewBox="1.145 13.239 85.067 50.76"><path paint-order="stroke fill markers" fill-rule="evenodd" d="M84.96 18.567c-11.5-1.163-22.82 4.442-23.73 4.769C25.25 37.76 1.146 63.999 1.146 63.999c1.674-3.275 2.257-7.363 3.288-14.944 2.002-14.402 7.91-22.262 9.96-24.712 22.321-22.54 43.685-4.09 46.292-2.28 15.043-6.382 24.978-4.757 24.978-4.757s.655.024.535.631c-.159.692-.656.667-1.238.63z"/></svg></svg></svg>