<svg width="286" height="315" xmlns="http://www.w3.org/2000/svg" xmlns:xlink="http://www.w3.org/1999/xlink" xmlns:svgjs="http://svgjs.com/svgjs" viewBox="1404 1086 286 315"><svg width="195" height="195" xmlns="http://www.w3.org/2000/svg" xmlns:xlink="http://www.w3.org/1999/xlink" xmlns:svgjs="http://svgjs.com/svgjs" viewBox="0.003 0 194.995 195" fill="#d1d1b0" x="1485" y="1086"><svg xmlns="http://www.w3.org/2000/svg" xmlns:xlink="http://www.w3.org/1999/xlink" width="195" height="195" viewBox="1.676 1.362 193.275 193.28"><path paint-order="stroke fill markers" fill-rule="evenodd" d="M80.82 1.362c-22.564 0-43.575 6.575-61.287 17.872C8.24 36.94 1.676 57.954 1.676 80.518c0 63.03 51.085 114.124 114.13 114.124 22.552 0 43.57-6.569 61.281-17.86 11.288-17.712 17.864-38.722 17.864-61.29 0-63.033-51.097-114.13-114.13-114.13z"/></svg></svg><svg width="212" height="212" xmlns="http://www.w3.org/2000/svg" xmlns:xlink="http://www.w3.org/1999/xlink" xmlns:svgjs="http://svgjs.com/svgjs" viewBox="0 0.001 212 211.998" fill="#c6c5a3" x="1450" y="1104"><svg xmlns="http://www.w3.org/2000/svg" xmlns:xlink="http://www.w3.org/1999/xlink" width="212" height="212" viewBox="1.69 1.371 210.253 210.251"><path paint-order="stroke fill markers" fill-rule="evenodd" d="M36.676 62.518c0-22.51 6.54-43.473 17.78-61.147C22.761 21.648 1.69 57.074 1.69 97.492c0 63.034 51.103 114.13 114.13 114.13 40.416 0 75.844-21.063 96.123-52.756-17.682 11.237-38.646 17.776-61.136 17.776-63.046 0-114.131-51.093-114.131-114.124z"/></svg></svg><svg width="38" height="38" xmlns="http://www.w3.org/2000/svg" xmlns:xlink="http://www.w3.org/1999/xlink" xmlns:svgjs="http://svgjs.com/svgjs" viewBox="0 0.005 38 37.991" fill="#c1be99" x="1476" y="1165"><svg xmlns="http://www.w3.org/2000/svg" xmlns:xlink="http://www.w3.org/1999/xlink" width="38" height="38" viewBox="1.372 1.023 36.235 36.227"><path paint-order="stroke fill markers" fill-rule="evenodd" d="M16.208 1.023c-4.221 0-8.164 1.23-11.489 3.346a21.36 21.36 0 0 0-3.347 11.485c0 11.824 9.57 21.396 21.399 21.396 4.228 0 8.164-1.229 11.483-3.35a21.219 21.219 0 0 0 3.354-11.483c0-11.817-9.583-21.394-21.4-21.394z"/></svg></svg><svg width="52" height="53" xmlns="http://www.w3.org/2000/svg" xmlns:xlink="http://www.w3.org/1999/xlink" xmlns:svgjs="http://svgjs.com/svgjs" viewBox="0 0.501 52 51.998" fill="#c1be99" x="1549" y="1165"><svg xmlns="http://www.w3.org/2000/svg" xmlns:xlink="http://www.w3.org/1999/xlink" width="52" height="53" viewBox="1.225 1.634 50.782 50.78"><path paint-order="stroke fill markers" fill-rule="evenodd" d="M22.025 1.634A29.813 29.813 0 0 0 5.927 6.33a29.824 29.824 0 0 0-4.702 16.095c0 16.56 13.424 29.988 29.99 29.988 5.924 0 11.439-1.725 16.097-4.691a29.863 29.863 0 0 0 4.695-16.1c0-16.564-13.424-29.99-29.982-29.99z"/></svg></svg><svg width="23" height="23" xmlns="http://www.w3.org/2000/svg" xmlns:xlink="http://www.w3.org/1999/xlink" xmlns:svgjs="http://svgjs.com/svgjs" viewBox="0.003 0 22.995 23" fill="#c1be99" x="1508" y="1247"><svg xmlns="http://www.w3.org/2000/svg" xmlns:xlink="http://www.w3.org/1999/xlink" width="23" height="23" viewBox="1.606 1.17 21.216 21.221"><path paint-order="stroke fill markers" fill-rule="evenodd" d="M10.29 1.17c-2.475 0-4.779.722-6.732 1.965a12.463 12.463 0 0 0-1.952 6.727c0 6.926 5.597 12.528 12.524 12.528 2.474 0 4.78-.721 6.727-1.959a12.465 12.465 0 0 0 1.965-6.732c0-6.916-5.61-12.53-12.532-12.53z"/></svg></svg><svg width="28" height="28" xmlns="http://www.w3.org/2000/svg" xmlns:xlink="http://www.w3.org/1999/xlink" xmlns:svgjs="http://svgjs.com/svgjs" viewBox="0 0.002 28 27.996" fill="#c1be99" x="1607" y="1119"><svg xmlns="http://www.w3.org/2000/svg" xmlns:xlink="http://www.w3.org/1999/xlink" width="28" height="28" viewBox="1.716 1.28 26.022 26.018"><path paint-order="stroke fill markers" fill-rule="evenodd" d="M12.38 1.28c-3.045 0-5.873.88-8.249 2.405a15.204 15.204 0 0 0-2.415 8.255c0 8.474 6.892 15.358 15.365 15.358 3.038 0 5.865-.88 8.254-2.405a15.303 15.303 0 0 0 2.404-8.249c0-8.482-6.868-15.364-15.359-15.364z"/></svg></svg><svg width="16" height="17" xmlns="http://www.w3.org/2000/svg" xmlns:xlink="http://www.w3.org/1999/xlink" xmlns:svgjs="http://svgjs.com/svgjs" viewBox="0 0.496 16 16.007" fill="#c1be99" x="1527" y="1108"><svg xmlns="http://www.w3.org/2000/svg" xmlns:xlink="http://www.w3.org/1999/xlink" width="16" height="17" viewBox="1.995 1.237 14.811 14.818"><path paint-order="stroke fill markers" fill-rule="evenodd" d="M8.06 1.237a8.697 8.697 0 0 0-4.693 1.365 8.715 8.715 0 0 0-1.372 4.701 8.743 8.743 0 0 0 13.44 7.382A8.745 8.745 0 0 0 8.06 1.237z"/></svg></svg><svg width="29" height="29" xmlns="http://www.w3.org/2000/svg" xmlns:xlink="http://www.w3.org/1999/xlink" xmlns:svgjs="http://svgjs.com/svgjs" viewBox="0.003 0 28.995 29" fill="#c1be99" x="1636" y="1196"><svg xmlns="http://www.w3.org/2000/svg" xmlns:xlink="http://www.w3.org/1999/xlink" width="29" height="29" viewBox="1.886 1.264 27.021 27.026"><path paint-order="stroke fill markers" fill-rule="evenodd" d="M12.955 1.264c-3.166 0-6.107.908-8.577 2.502a15.781 15.781 0 0 0-2.492 8.562c0 8.814 7.146 15.962 15.959 15.962 3.153 0 6.089-.917 8.563-2.493a15.826 15.826 0 0 0 2.5-8.577c0-8.81-7.146-15.956-15.953-15.956z"/></svg></svg><svg width="25" height="26" xmlns="http://www.w3.org/2000/svg" xmlns:xlink="http://www.w3.org/1999/xlink" xmlns:svgjs="http://svgjs.com/svgjs" viewBox="0 0.502 25 24.996" fill="#c1be99" x="1589" y="1263"><svg xmlns="http://www.w3.org/2000/svg" xmlns:xlink="http://www.w3.org/1999/xlink" width="25" height="26" viewBox="1.526 1.948 23.298 23.294"><path paint-order="stroke fill markers" fill-rule="evenodd" d="M11.06 1.948c-2.717 0-5.246.794-7.381 2.153a13.668 13.668 0 0 0-2.153 7.388c0 7.594 6.155 13.753 13.75 13.753a13.69 13.69 0 0 0 7.388-2.15 13.68 13.68 0 0 0 2.16-7.39c0-7.595-6.163-13.754-13.763-13.754z"/></svg></svg><svg width="30" height="30" xmlns="http://www.w3.org/2000/svg" xmlns:xlink="http://www.w3.org/1999/xlink" xmlns:svgjs="http://svgjs.com/svgjs" viewBox="0.001 0 29.998 30" fill="#b7b284" x="1603" y="1121"><svg xmlns="http://www.w3.org/2000/svg" xmlns:xlink="http://www.w3.org/1999/xlink" width="30" height="30" viewBox="1.009 1.73 28.278 28.281"><path paint-order="stroke fill markers" fill-rule="evenodd" d="M5.716 9.94c0-3.026.874-5.84 2.384-8.21C3.84 4.463 1.009 9.212 1.009 14.644c0 8.489 6.879 15.367 15.371 15.367 5.436 0 10.178-2.84 12.907-7.093a15.248 15.248 0 0 1-8.206 2.38c-8.473 0-15.365-6.884-15.365-15.358z"/></svg></svg><svg width="18" height="18" xmlns="http://www.w3.org/2000/svg" xmlns:xlink="http://www.w3.org/1999/xlink" xmlns:svgjs="http://svgjs.com/svgjs" viewBox="0.004 0 17.992 18" fill="#b7b284" x="1524" y="1109"><svg xmlns="http://www.w3.org/2000/svg" xmlns:xlink="http://www.w3.org/1999/xlink" width="18" height="18" viewBox="1.308 1.626 16.105 16.111"><path paint-order="stroke fill markers" fill-rule="evenodd" d="M3.995 6.303c0-1.719.497-3.315 1.359-4.677-2.427 1.556-4.046 4.258-4.046 7.357a8.75 8.75 0 0 0 8.753 8.754c3.088 0 5.786-1.617 7.351-4.04a8.73 8.73 0 0 1-4.67 1.359 8.743 8.743 0 0 1-8.747-8.753z"/></svg></svg><svg width="57" height="57" xmlns="http://www.w3.org/2000/svg" xmlns:xlink="http://www.w3.org/1999/xlink" xmlns:svgjs="http://svgjs.com/svgjs" viewBox="0.001 0 56.997 57" fill="#b7b284" x="1540" y="1170"><svg xmlns="http://www.w3.org/2000/svg" xmlns:xlink="http://www.w3.org/1999/xlink" width="57" height="57" viewBox="1.036 1.362 55.233 55.236"><path paint-order="stroke fill markers" fill-rule="evenodd" d="M10.225 17.426c0-5.914 1.73-11.422 4.678-16.064C6.574 6.69 1.036 15.998 1.036 26.624c0 16.554 13.423 29.974 29.989 29.974 10.615 0 19.925-5.532 25.245-13.857a29.817 29.817 0 0 1-16.056 4.673c-16.565 0-29.99-13.429-29.99-29.988z"/></svg></svg><svg width="31" height="32" xmlns="http://www.w3.org/2000/svg" xmlns:xlink="http://www.w3.org/1999/xlink" xmlns:svgjs="http://svgjs.com/svgjs" viewBox="0 0.494 31 31.012" fill="#b7b284" x="1632" y="1198"><svg xmlns="http://www.w3.org/2000/svg" xmlns:xlink="http://www.w3.org/1999/xlink" width="31" height="32" viewBox="1.985 1.803 29.376 29.387"><path paint-order="stroke fill markers" fill-rule="evenodd" d="M6.886 10.328c0-3.145.903-6.066 2.474-8.525C4.933 4.644 1.985 9.576 1.985 15.22c0 8.813 7.144 15.97 15.97 15.97 5.636 0 10.567-2.947 13.406-7.366a15.93 15.93 0 0 1-8.516 2.466c-8.813 0-15.959-7.148-15.959-15.962z"/></svg></svg><svg width="27" height="27" xmlns="http://www.w3.org/2000/svg" xmlns:xlink="http://www.w3.org/1999/xlink" xmlns:svgjs="http://svgjs.com/svgjs" viewBox="1.075 0 24.851 27" fill="#b7b284" x="1585" y="1266"><svg xmlns="http://www.w3.org/2000/svg" xmlns:xlink="http://www.w3.org/1999/xlink" width="27" height="27" viewBox="1.304 1.948 25.323 27.513"><path paint-order="stroke fill markers" fill-rule="evenodd" d="M11.548 2.457c1.123-.3 2.294-.51 3.513-.51-1.219 0-2.39.21-3.513.51zm-6.022 9.032a13.6 13.6 0 0 1 2.14-7.352C3.845 6.58 1.304 10.837 1.304 15.7c0 7.603 6.156 13.76 13.757 13.76 4.87 0 9.123-2.54 11.566-6.351a13.696 13.696 0 0 1-7.351 2.132c-7.595 0-13.75-6.16-13.75-13.753z"/></svg></svg><svg width="25" height="25" xmlns="http://www.w3.org/2000/svg" xmlns:xlink="http://www.w3.org/1999/xlink" xmlns:svgjs="http://svgjs.com/svgjs" viewBox="0.003 0 24.993 25" fill="#b7b284" x="1504" y="1249"><svg xmlns="http://www.w3.org/2000/svg" xmlns:xlink="http://www.w3.org/1999/xlink" width="25" height="25" viewBox="1.765 1.171 23.056 23.062"><path paint-order="stroke fill markers" fill-rule="evenodd" d="M5.606 7.862c0-2.463.714-4.759 1.94-6.69C4.075 3.4 1.764 7.266 1.764 11.698c0 6.923 5.6 12.534 12.525 12.534 4.428 0 8.297-2.311 10.53-5.784a12.52 12.52 0 0 1-6.69 1.941c-6.927 0-12.524-5.602-12.524-12.528z"/></svg></svg><svg width="42" height="41" xmlns="http://www.w3.org/2000/svg" xmlns:xlink="http://www.w3.org/1999/xlink" xmlns:svgjs="http://svgjs.com/svgjs" viewBox="0.497 0 41.007 41" fill="#b7b284" x="1469" y="1168"><svg xmlns="http://www.w3.org/2000/svg" xmlns:xlink="http://www.w3.org/1999/xlink" width="42" height="41" viewBox="1.815 1.441 39.372 39.366"><path paint-order="stroke fill markers" fill-rule="evenodd" d="M8.372 12.854c0-4.198 1.225-8.107 3.306-11.413-5.927 3.807-9.863 10.415-9.863 17.976 0 11.816 9.577 21.39 21.393 21.39 7.57 0 14.175-3.949 17.979-9.872A21.225 21.225 0 0 1 29.77 34.25c-11.828 0-21.399-9.572-21.399-21.396z"/></svg></svg><svg width="160" height="182" xmlns="http://www.w3.org/2000/svg" xmlns:xlink="http://www.w3.org/1999/xlink" xmlns:svgjs="http://svgjs.com/svgjs" viewBox="0.166 0 159.668 182" fill="#fff" x="1404" y="1143"><svg xmlns="http://www.w3.org/2000/svg" xmlns:xlink="http://www.w3.org/1999/xlink" width="160" height="182" viewBox="1.735 1.63 157.739 179.802"><path paint-order="stroke fill markers" fill-rule="evenodd" d="M158.603 1.63c-33.094 0-61.106 21.588-70.832 51.43C69.16 57.197 53.992 70.335 47.035 87.7c-25.157.855-45.3 21.46-45.3 46.82 0 25.33 20.073 45.899 45.17 46.826v.086h112.569V1.673c-.293-.013-.577-.043-.871-.043z"/></svg></svg><svg width="128" height="182" xmlns="http://www.w3.org/2000/svg" xmlns:xlink="http://www.w3.org/1999/xlink" xmlns:svgjs="http://svgjs.com/svgjs" viewBox="0.33 0 127.34 182" fill="#f2f4f9" x="1562" y="1143"><svg xmlns="http://www.w3.org/2000/svg" xmlns:xlink="http://www.w3.org/1999/xlink" width="128" height="182" viewBox="1.474 1.673 125.772 179.759"><path paint-order="stroke fill markers" fill-rule="evenodd" d="M74.512 67.005C70.029 30.46 39.132 2.103 1.474 1.673v179.76h70.958v-.134c30.491-1.322 54.814-26.385 54.814-57.198 0-30.11-23.231-54.748-52.734-57.096z"/></svg></svg><svg width="46" height="50" xmlns="http://www.w3.org/2000/svg" xmlns:xlink="http://www.w3.org/1999/xlink" xmlns:svgjs="http://svgjs.com/svgjs" viewBox="0.504 0 44.991 50" fill="#00e1ff" x="1516" y="1351"><svg xmlns="http://www.w3.org/2000/svg" xmlns:xlink="http://www.w3.org/1999/xlink" width="46" height="50" viewBox="1.817 1.634 43.506 48.349"><path paint-order="stroke fill markers" fill-rule="evenodd" d="M45.08 35.927l-5.55-3.206 4.828-1.295c.26-.07.419-.34.35-.6l-.78-2.906a.49.49 0 0 0-.601-.346l-8.68 2.326-7.088-4.091 7.088-4.094 8.68 2.329a.49.49 0 0 0 .6-.346l.78-2.908a.495.495 0 0 0-.35-.6l-4.826-1.293 5.548-3.205a.49.49 0 0 0 .18-.667l-1.508-2.609a.487.487 0 0 0-.663-.176l-5.555 3.203 1.3-4.828a.496.496 0 0 0-.346-.6l-2.911-.778a.487.487 0 0 0-.6.344l-2.324 8.685-7.084 4.088v-7.808l6.353-6.358a.484.484 0 0 0 0-.688l-2.129-2.13a.485.485 0 0 0-.688 0l-3.536 3.537V2.123a.494.494 0 0 0-.492-.489h-3.011a.492.492 0 0 0-.489.489v6.784L18.04 5.371a.485.485 0 0 0-.688 0L15.219 7.5a.491.491 0 0 0 0 .688l6.357 6.358v7.808l-6.76-3.903-2.326-8.683a.489.489 0 0 0-.6-.345l-2.906.78a.487.487 0 0 0-.346.597l1.295 4.83-5.877-3.39a.49.49 0 0 0-.665.176l-1.51 2.609a.493.493 0 0 0 .18.667l5.877 3.393-4.832 1.296a.492.492 0 0 0-.347.596l.781 2.91c.07.257.34.415.597.345l8.687-2.33 6.758 3.907-6.758 3.906-8.687-2.33a.483.483 0 0 0-.594.347L2.76 30.64a.493.493 0 0 0 .347.597l4.835 1.296-5.88 3.394a.489.489 0 0 0-.18.664l1.51 2.608a.488.488 0 0 0 .665.178l5.877-3.39-1.295 4.828a.49.49 0 0 0 .346.601l2.906.78c.264.069.53-.085.6-.346l2.326-8.683 6.76-3.903v8.182l-6.357 6.357a.491.491 0 0 0 0 .688l2.132 2.13a.485.485 0 0 0 .688 0l3.537-3.537v6.411c0 .268.221.488.489.488h3.01c.27 0 .493-.22.493-.488v-6.411l3.536 3.536a.485.485 0 0 0 .688 0l2.13-2.129a.484.484 0 0 0 0-.688l-6.354-6.357v-8.182l7.084 4.09 2.325 8.68c.071.262.34.419.599.35l2.91-.78a.497.497 0 0 0 .347-.6l-1.3-4.83 5.555 3.203c.23.134.53.055.663-.178l1.507-2.608a.486.486 0 0 0-.179-.664z"/></svg></svg><svg width="88" height="97" xmlns="http://www.w3.org/2000/svg" xmlns:xlink="http://www.w3.org/1999/xlink" xmlns:svgjs="http://svgjs.com/svgjs" viewBox="0.357 0 87.287 97" fill="#00e1ff" x="1425" y="1280"><svg xmlns="http://www.w3.org/2000/svg" xmlns:xlink="http://www.w3.org/1999/xlink" width="88" height="97" viewBox="1.601 1.203 85.432 94.939"><path paint-order="stroke fill markers" fill-rule="evenodd" d="M86.555 68.537l-10.903-6.293 9.487-2.544a.96.96 0 0 0 .679-1.174l-1.533-5.71a.96.96 0 0 0-1.172-.68l-17.051 4.57-13.915-8.034 13.915-8.036 17.05 4.57a.955.955 0 0 0 1.173-.676l1.533-5.714a.968.968 0 0 0-.679-1.177L75.652 35.1l10.903-6.293a.96.96 0 0 0 .349-1.31l-2.958-5.122a.957.957 0 0 0-1.307-.349l-10.902 6.29 2.544-9.484a.959.959 0 0 0-.68-1.173l-5.71-1.528a.956.956 0 0 0-1.177.673l-4.57 17.056-13.912 8.031V26.557l12.48-12.483a.952.952 0 0 0 0-1.352l-4.18-4.183a.96.96 0 0 0-1.355 0l-6.945 6.946V2.162a.962.962 0 0 0-.961-.959h-5.913a.962.962 0 0 0-.96.959v13.323l-6.945-6.946a.959.959 0 0 0-1.353 0l-4.18 4.183a.955.955 0 0 0 0 1.352l12.479 12.483v15.334l-13.275-7.667-4.568-17.05a.957.957 0 0 0-1.177-.677l-5.71 1.532a.956.956 0 0 0-.678 1.17l2.543 9.487-11.54-6.66a.957.957 0 0 0-1.307.349l-2.96 5.122a.964.964 0 0 0 .351 1.31l11.538 6.66-9.487 2.542a.964.964 0 0 0-.677 1.177l1.53 5.71a.966.966 0 0 0 1.174.68l17.052-4.57 13.275 7.666-13.275 7.667-17.052-4.573a.96.96 0 0 0-1.172.68l-1.532 5.713a.956.956 0 0 0 .677 1.171l9.49 2.544-11.54 6.663a.96.96 0 0 0-.352 1.307l2.96 5.123a.958.958 0 0 0 1.307.352l11.54-6.66-2.543 9.483a.958.958 0 0 0 .678 1.174l5.71 1.535a.967.967 0 0 0 1.177-.68l4.568-17.05L40.4 55.454v16.067l-12.48 12.483a.956.956 0 0 0 0 1.354l4.18 4.182a.953.953 0 0 0 1.354 0l6.946-6.945v12.589c0 .524.433.958.959.958h5.913c.527 0 .96-.434.96-.958v-12.59l6.946 6.946a.956.956 0 0 0 1.355 0l4.18-4.182a.953.953 0 0 0 0-1.354l-12.48-12.483V55.454l13.912 8.037 4.57 17.044a.964.964 0 0 0 1.177.682l5.71-1.531a.96.96 0 0 0 .68-1.173l-2.544-9.488 10.902 6.294a.958.958 0 0 0 1.307-.352l2.958-5.123a.955.955 0 0 0-.349-1.307z"/></svg></svg><svg width="91" height="44" xmlns="http://www.w3.org/2000/svg" xmlns:xlink="http://www.w3.org/1999/xlink" xmlns:svgjs="http://svgjs.com/svgjs" viewBox="0 0.491 91 43.017" fill="#d0d5d8" x="1440" y="1281"><svg xmlns="http://www.w3.org/2000/svg" xmlns:xlink="http://www.w3.org/1999/xlink" width="91" height="44" viewBox="1.087 1.928 89.916 42.505"><path paint-order="stroke fill markers" fill-rule="evenodd" d="M51.28 18.423l-5.368-5.368-.085-.055c.176.358.183.78-.115 1.074l-12.48 12.483v15.334l13.912-8.03 4.137-15.438zM1.088 42.913c3.16.804 6.436 1.31 9.819 1.434v.086h3.234l-5.932-3.427-7.12 1.907zm11.037-8.69L25.4 41.892v-6.745L7.605 17.352l4.52 16.872zm21.108-18.738l6.73-6.73-6.827-6.827c.024.081.097.142.097.234v13.323zm57.771 28.948L68.946 22.375l2.958 5.122a.96.96 0 0 1-.349 1.31L60.652 35.1l9.487 2.54a.968.968 0 0 1 .679 1.176l-1.505 5.617h21.69zm-26.22-20.757l-5.672-5.671-.042.011c.18.229.293.51.212.816l-2.544 9.484 8.045-4.64zM44.486 44.433h20.74l-14.165-3.797-6.575 3.797z"/></svg></svg><svg width="87" height="97" xmlns="http://www.w3.org/2000/svg" xmlns:xlink="http://www.w3.org/1999/xlink" xmlns:svgjs="http://svgjs.com/svgjs" viewBox="0 0.159 87 96.682" fill="#00e1ff" x="1571" y="1280"><svg xmlns="http://www.w3.org/2000/svg" xmlns:xlink="http://www.w3.org/1999/xlink" width="87" height="97" viewBox="2.047 1.203 85.431 94.939"><path paint-order="stroke fill markers" fill-rule="evenodd" d="M87.001 68.537L76.1 62.244l9.486-2.544a.959.959 0 0 0 .68-1.174l-1.532-5.71a.96.96 0 0 0-1.174-.68l-17.05 4.57-13.915-8.034 13.915-8.036 17.05 4.57a.955.955 0 0 0 1.174-.676l1.532-5.714a.967.967 0 0 0-.68-1.177L76.1 35.1 87 28.807a.961.961 0 0 0 .349-1.31l-2.956-5.122a.958.958 0 0 0-1.308-.349l-10.903 6.29 2.545-9.484a.958.958 0 0 0-.679-1.173l-5.712-1.528a.957.957 0 0 0-1.177.673L62.59 33.86l-13.911 8.031V26.557l12.48-12.483a.952.952 0 0 0 0-1.352l-4.18-4.183a.96.96 0 0 0-1.355 0l-6.945 6.946V2.162a.962.962 0 0 0-.961-.959h-5.915a.962.962 0 0 0-.958.959v13.323l-6.944-6.946a.957.957 0 0 0-1.353 0l-4.183 4.183a.956.956 0 0 0 0 1.352l12.48 12.483v15.334l-13.274-7.667-4.568-17.05a.956.956 0 0 0-1.177-.677l-5.71 1.532a.958.958 0 0 0-.68 1.17l2.545 9.487-11.54-6.66a.956.956 0 0 0-1.307.349l-2.96 5.122a.962.962 0 0 0 .353 1.31l11.535 6.66-9.486 2.542a.963.963 0 0 0-.675 1.177l1.527 5.71a.967.967 0 0 0 1.174.68l17.054-4.57 13.275 7.666-13.275 7.667-17.054-4.573a.96.96 0 0 0-1.171.68l-1.53 5.713a.955.955 0 0 0 .675 1.171l9.49 2.544-11.54 6.663a.957.957 0 0 0-.352 1.307l2.96 5.123a.957.957 0 0 0 1.307.352l11.54-6.66-2.545 9.483a.96.96 0 0 0 .68 1.174l5.71 1.535a.966.966 0 0 0 1.177-.68l4.568-17.05 13.274-7.667v16.067l-12.48 12.483a.957.957 0 0 0 0 1.354l4.183 4.182a.952.952 0 0 0 1.353 0l6.944-6.945v12.589c0 .524.434.958.958.958h5.915c.527 0 .96-.434.96-.958v-12.59l6.946 6.946a.956.956 0 0 0 1.356 0l4.18-4.182a.953.953 0 0 0 0-1.354L48.679 71.521V55.454l13.91 8.037 4.571 17.044a.965.965 0 0 0 1.177.682l5.712-1.531a.96.96 0 0 0 .679-1.173l-2.545-9.488 10.903 6.294a.959.959 0 0 0 1.308-.352l2.956-5.123A.956.956 0 0 0 87 68.537z"/></svg></svg><svg width="87" height="45" xmlns="http://www.w3.org/2000/svg" xmlns:xlink="http://www.w3.org/1999/xlink" xmlns:svgjs="http://svgjs.com/svgjs" viewBox="0 0.653 87 43.693" fill="#d0d5d8" x="1579" y="1280"><svg xmlns="http://www.w3.org/2000/svg" width="87" height="45" viewBox="1.868 1.928 84.634 42.505"><path paint-order="stroke fill markers" fill-rule="evenodd" d="M50.934 44.433h4.498v-.134a57.31 57.31 0 0 0 5.29-.491 60.182 60.182 0 0 0 4.994-.922c.036-.01.072-.012.103-.021l-8.31-2.23-6.575 3.798zm20.295-20.757l-5.671-5.671-.043.011c.186.231.295.51.213.816l-2.545 9.484 8.046-4.64zm-13.502-5.253l-5.368-5.368-.084-.055c.087.177.138.34.111.528a.78.78 0 0 1-.226.546L39.679 26.557v15.334l13.91-8.03 4.138-15.438zM1.868 44.433h18.72l-5.932-3.427-12.788 3.427zm73.526-22.058l2.956 5.122a.961.961 0 0 1-.349 1.31L67.1 35.1l9.486 2.54c.51.142.817.667.68 1.176l-.037.13a57.146 57.146 0 0 0 4.777-2.516c.009-.006.015-.014.027-.016a58.973 58.973 0 0 0 4.47-2.93l-11.108-11.11zm-35.715-6.89l6.73-6.73-6.828-6.827c.026.081.098.142.098.234v13.323zM18.57 34.224l13.274 7.667v-6.745L14.052 17.352l4.519 16.872z"/></svg></svg></svg>