<svg width="279" height="294" xmlns="http://www.w3.org/2000/svg" xmlns:xlink="http://www.w3.org/1999/xlink" xmlns:svgjs="http://svgjs.com/svgjs" viewBox="1412 625 279 294"><svg width="195" height="195" xmlns="http://www.w3.org/2000/svg" xmlns:xlink="http://www.w3.org/1999/xlink" xmlns:svgjs="http://svgjs.com/svgjs" fill="#d1d1b0" x="1496" y="625"><svg xmlns="http://www.w3.org/2000/svg" xmlns:xlink="http://www.w3.org/1999/xlink" width="195" height="195" viewBox="1.542 1.704 193.281 193.281"><path paint-order="stroke fill markers" fill-rule="evenodd" d="M80.693 1.704c-22.567 0-43.578 6.575-61.287 17.872C8.109 37.281 1.542 58.296 1.542 80.86c0 63.03 51.091 114.124 114.131 114.124 22.559 0 43.572-6.57 61.283-17.86 11.291-17.711 17.867-38.723 17.867-61.29 0-63.033-51.103-114.13-114.13-114.13z"/></svg></svg><svg width="212" height="212" xmlns="http://www.w3.org/2000/svg" xmlns:xlink="http://www.w3.org/1999/xlink" xmlns:svgjs="http://svgjs.com/svgjs" viewBox="0 0 211.999 212" fill="#c6c5a3" x="1461" y="643"><svg xmlns="http://www.w3.org/2000/svg" xmlns:xlink="http://www.w3.org/1999/xlink" width="212" height="212" viewBox="1.562 1.712 210.25 210.251"><path paint-order="stroke fill markers" fill-rule="evenodd" d="M36.542 62.86c0-22.51 6.54-43.472 17.783-61.148C22.63 21.99 1.562 57.416 1.562 97.834c0 63.033 51.1 114.13 114.13 114.13 40.414 0 75.84-21.062 96.12-52.755-17.686 11.236-38.644 17.775-61.139 17.775-63.04 0-114.13-51.093-114.13-114.124z"/></svg></svg><svg width="38" height="38" xmlns="http://www.w3.org/2000/svg" xmlns:xlink="http://www.w3.org/1999/xlink" xmlns:svgjs="http://svgjs.com/svgjs" viewBox="0 0.005 38 37.99" fill="#c1be99" x="1487" y="704"><svg xmlns="http://www.w3.org/2000/svg" xmlns:xlink="http://www.w3.org/1999/xlink" width="38" height="38" viewBox="1.238 1.365 36.236 36.227"><path paint-order="stroke fill markers" fill-rule="evenodd" d="M16.081 1.365c-4.228 0-8.17 1.232-11.495 3.346a21.378 21.378 0 0 0-3.348 11.485c0 11.825 9.575 21.396 21.399 21.396 4.231 0 8.165-1.228 11.486-3.35a21.219 21.219 0 0 0 3.35-11.483c0-11.816-9.576-21.394-21.392-21.394z"/></svg></svg><svg width="52" height="52" xmlns="http://www.w3.org/2000/svg" xmlns:xlink="http://www.w3.org/1999/xlink" xmlns:svgjs="http://svgjs.com/svgjs" fill="#c1be99" x="1560" y="705"><svg xmlns="http://www.w3.org/2000/svg" xmlns:xlink="http://www.w3.org/1999/xlink" width="52" height="52" viewBox="1.095 1.975 50.781 50.782"><path paint-order="stroke fill markers" fill-rule="evenodd" d="M21.892 1.975c-5.93 0-11.45 1.732-16.098 4.698a29.844 29.844 0 0 0-4.699 16.094c0 16.56 13.426 29.99 29.988 29.99 5.924 0 11.44-1.726 16.098-4.693a29.835 29.835 0 0 0 4.695-16.097c0-16.566-13.423-29.992-29.984-29.992z"/></svg></svg><svg width="23" height="23" xmlns="http://www.w3.org/2000/svg" xmlns:xlink="http://www.w3.org/1999/xlink" xmlns:svgjs="http://svgjs.com/svgjs" viewBox="0.001 0 22.998 23" fill="#c1be99" x="1519" y="786"><svg xmlns="http://www.w3.org/2000/svg" xmlns:xlink="http://www.w3.org/1999/xlink" width="23" height="23" viewBox="1.472 1.512 21.22 21.222"><path paint-order="stroke fill markers" fill-rule="evenodd" d="M10.16 1.512c-2.475 0-4.783.721-6.733 1.965a12.473 12.473 0 0 0-1.955 6.727c0 6.927 5.6 12.53 12.527 12.53 2.475 0 4.78-.724 6.727-1.96a12.46 12.46 0 0 0 1.966-6.734c0-6.914-5.61-12.528-12.532-12.528z"/></svg></svg><svg width="28" height="28" xmlns="http://www.w3.org/2000/svg" xmlns:xlink="http://www.w3.org/1999/xlink" xmlns:svgjs="http://svgjs.com/svgjs" viewBox="0 0.002 28 27.995" fill="#c1be99" x="1618" y="658"><svg xmlns="http://www.w3.org/2000/svg" xmlns:xlink="http://www.w3.org/1999/xlink" width="28" height="28" viewBox="1.588 1.622 26.023 26.018"><path paint-order="stroke fill markers" fill-rule="evenodd" d="M12.245 1.622c-3.04 0-5.868.88-8.245 2.405a15.202 15.202 0 0 0-2.412 8.255c0 8.474 6.886 15.359 15.363 15.359 3.041 0 5.864-.88 8.255-2.406a15.307 15.307 0 0 0 2.405-8.249c0-8.483-6.87-15.364-15.366-15.364z"/></svg></svg><svg width="17" height="17" xmlns="http://www.w3.org/2000/svg" xmlns:xlink="http://www.w3.org/1999/xlink" xmlns:svgjs="http://svgjs.com/svgjs" viewBox="0.001 0 16.997 17" fill="#c1be99" x="1537" y="647"><svg xmlns="http://www.w3.org/2000/svg" xmlns:xlink="http://www.w3.org/1999/xlink" width="17" height="17" viewBox="1.862 1.579 14.815 14.818"><path paint-order="stroke fill markers" fill-rule="evenodd" d="M7.927 1.58a8.694 8.694 0 0 0-4.691 1.364 8.745 8.745 0 0 0 12.073 12.082 8.724 8.724 0 0 0 1.368-4.7c0-4.834-3.922-8.747-8.75-8.747z"/></svg></svg><svg width="29" height="29" xmlns="http://www.w3.org/2000/svg" xmlns:xlink="http://www.w3.org/1999/xlink" xmlns:svgjs="http://svgjs.com/svgjs" viewBox="0.002 0 28.996 29" fill="#c1be99" x="1647" y="735"><svg xmlns="http://www.w3.org/2000/svg" xmlns:xlink="http://www.w3.org/1999/xlink" width="29" height="29" viewBox="1.755 1.606 27.021 27.025"><path paint-order="stroke fill markers" fill-rule="evenodd" d="M12.822 1.606c-3.164 0-6.105.907-8.573 2.503a15.761 15.761 0 0 0-2.494 8.56c0 8.814 7.146 15.963 15.955 15.963 3.154 0 6.09-.916 8.568-2.494a15.798 15.798 0 0 0 2.498-8.576c0-8.81-7.14-15.956-15.954-15.956z"/></svg></svg><svg width="25" height="25" xmlns="http://www.w3.org/2000/svg" xmlns:xlink="http://www.w3.org/1999/xlink" xmlns:svgjs="http://svgjs.com/svgjs" viewBox="0 0.001 25 24.997" fill="#c1be99" x="1600" y="803"><svg xmlns="http://www.w3.org/2000/svg" xmlns:xlink="http://www.w3.org/1999/xlink" width="25" height="25" viewBox="1.396 1.289 23.298 23.295"><path paint-order="stroke fill markers" fill-rule="evenodd" d="M10.93 1.289c-2.717 0-5.247.795-7.382 2.153a13.67 13.67 0 0 0-2.152 7.388c0 7.595 6.156 13.754 13.753 13.754 2.718 0 5.25-.788 7.385-2.15a13.687 13.687 0 0 0 2.16-7.39c0-7.595-6.16-13.755-13.764-13.755z"/></svg></svg><svg width="31" height="30" xmlns="http://www.w3.org/2000/svg" xmlns:xlink="http://www.w3.org/1999/xlink" xmlns:svgjs="http://svgjs.com/svgjs" viewBox="0.499 0 30.003 30" fill="#b7b284" x="1613" y="661"><svg xmlns="http://www.w3.org/2000/svg" xmlns:xlink="http://www.w3.org/1999/xlink" width="31" height="30" viewBox="1.875 1.073 28.282 28.28"><path paint-order="stroke fill markers" fill-rule="evenodd" d="M6.588 9.282c0-3.027.874-5.84 2.381-8.21-4.258 2.733-7.094 7.483-7.094 12.914 0 8.489 6.882 15.366 15.37 15.366 5.44 0 10.182-2.837 12.912-7.092a15.263 15.263 0 0 1-8.206 2.38c-8.477 0-15.363-6.884-15.363-15.358z"/></svg></svg><svg width="18" height="18" xmlns="http://www.w3.org/2000/svg" xmlns:xlink="http://www.w3.org/1999/xlink" xmlns:svgjs="http://svgjs.com/svgjs" viewBox="0.006 0 17.989 18" fill="#b7b284" x="1535" y="649"><svg xmlns="http://www.w3.org/2000/svg" xmlns:xlink="http://www.w3.org/1999/xlink" width="18" height="18" viewBox="1.179 1.969 16.1 16.11"><path paint-order="stroke fill markers" fill-rule="evenodd" d="M3.862 6.646a8.71 8.71 0 0 1 1.361-4.677C2.795 3.524 1.179 6.227 1.179 9.326a8.747 8.747 0 0 0 8.748 8.753c3.09 0 5.793-1.617 7.352-4.04a8.696 8.696 0 0 1-4.67 1.358 8.745 8.745 0 0 1-8.747-8.751z"/></svg></svg><svg width="58" height="57" xmlns="http://www.w3.org/2000/svg" xmlns:xlink="http://www.w3.org/1999/xlink" xmlns:svgjs="http://svgjs.com/svgjs" viewBox="0.501 0 56.997 57" fill="#b7b284" x="1550" y="709"><svg xmlns="http://www.w3.org/2000/svg" xmlns:xlink="http://www.w3.org/1999/xlink" width="58" height="57" viewBox="1.909 1.703 55.233 55.236"><path paint-order="stroke fill markers" fill-rule="evenodd" d="M11.095 17.767a29.856 29.856 0 0 1 4.68-16.064C7.445 7.031 1.909 16.34 1.909 26.967c0 16.553 13.42 29.972 29.983 29.972 10.617 0 19.928-5.531 25.25-13.856a29.843 29.843 0 0 1-16.059 4.674c-16.562 0-29.988-13.43-29.988-29.99z"/></svg></svg><svg width="32" height="31" xmlns="http://www.w3.org/2000/svg" xmlns:xlink="http://www.w3.org/1999/xlink" xmlns:svgjs="http://svgjs.com/svgjs" viewBox="0.509 0 30.983 31" fill="#b7b284" x="1642" y="738"><svg xmlns="http://www.w3.org/2000/svg" xmlns:xlink="http://www.w3.org/1999/xlink" width="32" height="31" viewBox="1.855 1.144 29.372 29.388"><path paint-order="stroke fill markers" fill-rule="evenodd" d="M6.755 9.67c0-3.146.9-6.066 2.474-8.526-4.427 2.842-7.374 7.774-7.374 13.418 0 8.814 7.145 15.97 15.967 15.97 5.638 0 10.569-2.947 13.405-7.366a15.905 15.905 0 0 1-8.517 2.466c-8.81 0-15.955-7.149-15.955-15.962z"/></svg></svg><svg width="27" height="27" xmlns="http://www.w3.org/2000/svg" xmlns:xlink="http://www.w3.org/1999/xlink" xmlns:svgjs="http://svgjs.com/svgjs" viewBox="1.076 0 24.848 27" fill="#b7b284" x="1596" y="805"><svg xmlns="http://www.w3.org/2000/svg" xmlns:xlink="http://www.w3.org/1999/xlink" width="27" height="27" viewBox="1.173 1.289 25.321 27.514"><path paint-order="stroke fill markers" fill-rule="evenodd" d="M11.414 1.799c1.126-.301 2.294-.51 3.516-.51-1.222 0-2.39.209-3.516.51zM5.396 10.83c0-2.705.781-5.225 2.137-7.35-3.815 2.444-6.36 6.699-6.36 11.563 0 7.603 6.16 13.76 13.757 13.76 4.868 0 9.123-2.538 11.564-6.351a13.678 13.678 0 0 1-7.345 2.132c-7.597 0-13.753-6.16-13.753-13.754z"/></svg></svg><svg width="25" height="25" xmlns="http://www.w3.org/2000/svg" xmlns:xlink="http://www.w3.org/1999/xlink" xmlns:svgjs="http://svgjs.com/svgjs" viewBox="0.003 0 24.993 25" fill="#b7b284" x="1515" y="788"><svg xmlns="http://www.w3.org/2000/svg" xmlns:xlink="http://www.w3.org/1999/xlink" width="25" height="25" viewBox="1.635 1.514 23.055 23.061"><path paint-order="stroke fill markers" fill-rule="evenodd" d="M5.472 8.204c0-2.463.715-4.759 1.94-6.69C3.941 3.743 1.634 7.61 1.634 12.04c0 6.924 5.602 12.535 12.525 12.535 4.428 0 8.298-2.31 10.53-5.783A12.527 12.527 0 0 1 18 20.733c-6.927 0-12.528-5.602-12.528-12.53z"/></svg></svg><svg width="42" height="42" xmlns="http://www.w3.org/2000/svg" xmlns:xlink="http://www.w3.org/1999/xlink" xmlns:svgjs="http://svgjs.com/svgjs" viewBox="0 0.005 42 41.991" fill="#b7b284" x="1480" y="707"><svg xmlns="http://www.w3.org/2000/svg" xmlns:xlink="http://www.w3.org/1999/xlink" width="42" height="42" viewBox="1.685 1.783 39.375 39.366"><path paint-order="stroke fill markers" fill-rule="evenodd" d="M8.238 13.196c0-4.197 1.226-8.107 3.31-11.413C5.622 5.59 1.684 12.198 1.684 19.759c0 11.816 9.576 21.39 21.396 21.39 7.567 0 14.171-3.949 17.979-9.872a21.246 21.246 0 0 1-11.423 3.315c-11.824 0-21.4-9.571-21.4-21.396z"/></svg></svg><svg width="153" height="174" xmlns="http://www.w3.org/2000/svg" xmlns:xlink="http://www.w3.org/1999/xlink" xmlns:svgjs="http://svgjs.com/svgjs" viewBox="0.173 0 152.653 174" fill="#fff" x="1412" y="687"><svg xmlns="http://www.w3.org/2000/svg" xmlns:xlink="http://www.w3.org/1999/xlink" width="153" height="174" viewBox="1.546 1.546 151.204 172.348"><path paint-order="stroke fill markers" fill-rule="evenodd" d="M151.913 1.546c-31.712 0-58.563 20.695-67.892 49.298-17.839 3.967-32.373 16.56-39.044 33.203-24.117.819-43.43 20.572-43.43 44.876 0 24.283 19.252 43.997 43.302 44.891v.08H152.75V1.583c-.279-.005-.551-.038-.837-.038z"/></svg></svg><svg width="123" height="174" xmlns="http://www.w3.org/2000/svg" xmlns:xlink="http://www.w3.org/1999/xlink" xmlns:svgjs="http://svgjs.com/svgjs" viewBox="0.629 0 121.742 174" fill="#f2f4f9" x="1563" y="687"><svg xmlns="http://www.w3.org/2000/svg" xmlns:xlink="http://www.w3.org/1999/xlink" width="123" height="174" viewBox="1.75 1.585 120.559 172.309"><path paint-order="stroke fill markers" fill-rule="evenodd" d="M71.765 64.207C67.465 29.183 37.853 1.997 1.75 1.585v172.308H69.77v-.13c29.224-1.268 52.54-25.29 52.54-54.825 0-28.862-22.273-52.482-50.544-54.731z"/></svg></svg><svg width="72" height="64" xmlns="http://www.w3.org/2000/svg" xmlns:xlink="http://www.w3.org/1999/xlink" xmlns:svgjs="http://svgjs.com/svgjs" viewBox="0 0.152 72 63.696" fill="#00e1ff" x="1437" y="825"><svg xmlns="http://www.w3.org/2000/svg" xmlns:xlink="http://www.w3.org/1999/xlink" width="72" height="64" viewBox="4.258 1.268 70.542 62.406"><path paint-order="stroke fill markers" fill-rule="evenodd" d="M71.925 1.433L28.501 13.09l-3.68.988a29.82 29.82 0 0 0-11.792 7.23c-11.695 11.708-11.695 30.668 0 42.366L74.8 1.908c-.606-.607-1.601-.82-2.875-.475z"/></svg></svg><svg width="64" height="73" xmlns="http://www.w3.org/2000/svg" xmlns:xlink="http://www.w3.org/1999/xlink" xmlns:svgjs="http://svgjs.com/svgjs" viewBox="0 0.334 64 72.332" fill="#00c6f4" x="1446" y="825"><svg xmlns="http://www.w3.org/2000/svg" xmlns:xlink="http://www.w3.org/1999/xlink" width="64" height="73" viewBox="1.029 1.908 62.405 70.53"><path paint-order="stroke fill markers" fill-rule="evenodd" d="M50.621 51.904l.995-3.722 11.657-43.42c.335-1.244.134-2.25-.473-2.854L1.029 63.674c11.7 11.685 30.668 11.685 42.36 0 3.422-3.421 5.807-7.467 7.232-11.77z"/></svg></svg><svg width="72" height="64" xmlns="http://www.w3.org/2000/svg" xmlns:xlink="http://www.w3.org/1999/xlink" xmlns:svgjs="http://svgjs.com/svgjs" viewBox="0 0.154 72 63.693" fill="#00e1ff" x="1575" y="834"><svg xmlns="http://www.w3.org/2000/svg" xmlns:xlink="http://www.w3.org/1999/xlink" width="72" height="64" viewBox="4.464 1.253 70.546 62.407"><path paint-order="stroke fill markers" fill-rule="evenodd" d="M72.142 1.415L28.719 13.08l-3.683.991a29.794 29.794 0 0 0-11.797 7.231c-11.7 11.697-11.7 30.662 0 42.36L75.011 1.89c-.605-.603-1.6-.816-2.87-.476z"/></svg></svg><svg width="64" height="73" xmlns="http://www.w3.org/2000/svg" xmlns:xlink="http://www.w3.org/1999/xlink" xmlns:svgjs="http://svgjs.com/svgjs" viewBox="0 0.33 64 72.341" fill="#00c6f4" x="1584" y="834"><svg xmlns="http://www.w3.org/2000/svg" xmlns:xlink="http://www.w3.org/1999/xlink" width="64" height="73" viewBox="1.239 1.891 62.409 70.542"><path paint-order="stroke fill markers" fill-rule="evenodd" d="M50.838 51.896l.989-3.724L63.49 4.766c.333-1.261.122-2.271-.48-2.875L1.24 63.66c11.706 11.696 30.667 11.696 42.362 0 3.42-3.419 5.81-7.465 7.236-11.765z"/></svg></svg><svg width="45" height="40" xmlns="http://www.w3.org/2000/svg" xmlns:xlink="http://www.w3.org/1999/xlink" xmlns:svgjs="http://svgjs.com/svgjs" viewBox="0 0.1 45 39.8" fill="#00e1ff" x="1508" y="873"><svg xmlns="http://www.w3.org/2000/svg" xmlns:xlink="http://www.w3.org/1999/xlink" width="45" height="40" viewBox="2.793 1.963 42.825 37.876"><path paint-order="stroke fill markers" fill-rule="evenodd" d="M43.871 2.057L17.523 9.133l-2.251.596a17.997 17.997 0 0 0-7.152 4.398c-7.102 7.1-7.102 18.604 0 25.712L45.618 2.347c-.376-.373-.976-.485-1.747-.29z"/></svg></svg><svg width="39" height="45" xmlns="http://www.w3.org/2000/svg" xmlns:xlink="http://www.w3.org/1999/xlink" xmlns:svgjs="http://svgjs.com/svgjs" viewBox="0 0.46 39 44.079" fill="#00c6f4" x="1514" y="874"><svg xmlns="http://www.w3.org/2000/svg" xmlns:xlink="http://www.w3.org/1999/xlink" width="39" height="45" viewBox="1.12 1.347 37.877 42.809"><path paint-order="stroke fill markers" fill-rule="evenodd" d="M31.219 31.685l.607-2.25 7.07-26.355c.207-.752.086-1.371-.278-1.733L1.12 38.84c7.097 7.09 18.61 7.09 25.707 0a18.11 18.11 0 0 0 4.392-7.154z"/></svg></svg><svg width="44" height="36" xmlns="http://www.w3.org/2000/svg" xmlns:xlink="http://www.w3.org/1999/xlink" xmlns:svgjs="http://svgjs.com/svgjs" viewBox="0 0.146 44 35.708" fill="#d0d5d8" x="1499" y="825"><svg xmlns="http://www.w3.org/2000/svg" xmlns:xlink="http://www.w3.org/1999/xlink" width="44" height="36" viewBox="1.915 1.908 41.877 33.985"><path paint-order="stroke fill markers" fill-rule="evenodd" d="M10.273 4.762L1.915 35.893h41.877L9.8 1.908c.607.604.808 1.61.473 2.854z"/></svg></svg><svg width="22" height="25" xmlns="http://www.w3.org/2000/svg" xmlns:xlink="http://www.w3.org/1999/xlink" xmlns:svgjs="http://svgjs.com/svgjs" viewBox="0.415 0 21.17 25" fill="#d0d5d8" x="1640" y="835"><svg xmlns="http://www.w3.org/2000/svg" width="22" height="25" viewBox="1.892 1.891 20.053 23.68"><path paint-order="stroke fill markers" fill-rule="evenodd" d="M7.49 4.766L1.892 25.571a54.856 54.856 0 0 0 20.053-8.731L7.01 1.89c.601.605.812 1.615.48 2.876z"/></svg></svg></svg>