<svg width="286" height="293" xmlns="http://www.w3.org/2000/svg" xmlns:xlink="http://www.w3.org/1999/xlink" xmlns:svgjs="http://svgjs.com/svgjs" viewBox="226 2529 286 293"><svg width="195" height="195" xmlns="http://www.w3.org/2000/svg" xmlns:xlink="http://www.w3.org/1999/xlink" xmlns:svgjs="http://svgjs.com/svgjs" viewBox="0.004 0 194.993 195" fill="#d1d1b0" x="314" y="2529"><svg xmlns="http://www.w3.org/2000/svg" xmlns:xlink="http://www.w3.org/1999/xlink" width="195" height="195" viewBox="1.094 1.425 193.274 193.281"><path paint-order="stroke fill markers" fill-rule="evenodd" d="M80.238 1.425c-22.564 0-43.576 6.576-61.287 17.87C7.657 37.007 1.094 58.017 1.094 80.582c0 63.033 51.085 114.124 114.13 114.124 22.552 0 43.57-6.57 61.281-17.863 11.288-17.712 17.863-38.724 17.863-61.287 0-63.034-51.096-114.131-114.13-114.131z"/></svg></svg><svg width="212" height="212" xmlns="http://www.w3.org/2000/svg" xmlns:xlink="http://www.w3.org/1999/xlink" xmlns:svgjs="http://svgjs.com/svgjs" fill="#c6c5a3" x="279" y="2547"><svg xmlns="http://www.w3.org/2000/svg" xmlns:xlink="http://www.w3.org/1999/xlink" width="212" height="212" viewBox="1.108 1.435 210.252 210.252"><path paint-order="stroke fill markers" fill-rule="evenodd" d="M36.094 62.582c0-22.51 6.539-43.473 17.778-61.147C22.18 21.71 1.108 57.134 1.108 97.555c0 63.034 51.103 114.131 114.13 114.131 40.415 0 75.844-21.061 96.122-52.758-17.682 11.239-38.645 17.778-61.136 17.778-63.045 0-114.13-51.09-114.13-114.124z"/></svg></svg><svg width="38" height="38" xmlns="http://www.w3.org/2000/svg" xmlns:xlink="http://www.w3.org/1999/xlink" xmlns:svgjs="http://svgjs.com/svgjs" viewBox="0 0.003 38 37.993" fill="#c1be99" x="304" y="2608"><svg xmlns="http://www.w3.org/2000/svg" xmlns:xlink="http://www.w3.org/1999/xlink" width="38" height="38" viewBox="1.789 1.084 36.236 36.23"><path paint-order="stroke fill markers" fill-rule="evenodd" d="M16.625 1.084A21.38 21.38 0 0 0 5.138 4.432 21.36 21.36 0 0 0 1.789 15.92c0 11.823 9.572 21.393 21.4 21.393 4.227 0 8.164-1.231 11.482-3.354a21.203 21.203 0 0 0 3.354-11.476c0-11.815-9.583-21.399-21.4-21.399z"/></svg></svg><svg width="53" height="53" xmlns="http://www.w3.org/2000/svg" xmlns:xlink="http://www.w3.org/1999/xlink" xmlns:svgjs="http://svgjs.com/svgjs" viewBox="0.001 0 52.999 53" fill="#c1be99" x="377" y="2608"><svg xmlns="http://www.w3.org/2000/svg" xmlns:xlink="http://www.w3.org/1999/xlink" width="53" height="53" viewBox="1.644 1.697 50.78 50.781"><path paint-order="stroke fill markers" fill-rule="evenodd" d="M22.442 1.697a29.763 29.763 0 0 0-16.098 4.7 29.816 29.816 0 0 0-4.7 16.092c0 16.56 13.423 29.99 29.987 29.99a29.91 29.91 0 0 0 16.099-4.69 29.876 29.876 0 0 0 4.694-16.098c0-16.571-13.423-29.994-29.982-29.994z"/></svg></svg><svg width="23" height="23" xmlns="http://www.w3.org/2000/svg" xmlns:xlink="http://www.w3.org/1999/xlink" xmlns:svgjs="http://svgjs.com/svgjs" viewBox="0 0.001 23 22.999" fill="#c1be99" x="337" y="2690"><svg xmlns="http://www.w3.org/2000/svg" xmlns:xlink="http://www.w3.org/1999/xlink" width="23" height="23" viewBox="1.022 1.237 21.218 21.217"><path paint-order="stroke fill markers" fill-rule="evenodd" d="M9.707 1.237c-2.474 0-4.779.715-6.731 1.964a12.452 12.452 0 0 0-1.954 6.722c0 6.927 5.598 12.531 12.526 12.531a12.5 12.5 0 0 0 6.726-1.96 12.451 12.451 0 0 0 1.966-6.732c0-6.914-5.611-12.525-12.533-12.525z"/></svg></svg><svg width="28" height="28" xmlns="http://www.w3.org/2000/svg" xmlns:xlink="http://www.w3.org/1999/xlink" xmlns:svgjs="http://svgjs.com/svgjs" viewBox="0 0.003 28 27.995" fill="#c1be99" x="436" y="2562"><svg xmlns="http://www.w3.org/2000/svg" xmlns:xlink="http://www.w3.org/1999/xlink" width="28" height="28" viewBox="1.134 1.343 26.021 26.017"><path paint-order="stroke fill markers" fill-rule="evenodd" d="M11.797 1.343c-3.045 0-5.87.88-8.25 2.409A15.187 15.187 0 0 0 1.135 12c0 8.48 6.89 15.358 15.363 15.358 3.04 0 5.867-.874 8.256-2.402a15.285 15.285 0 0 0 2.403-8.25c0-8.48-6.867-15.364-15.359-15.364z"/></svg></svg><svg width="17" height="17" xmlns="http://www.w3.org/2000/svg" xmlns:xlink="http://www.w3.org/1999/xlink" xmlns:svgjs="http://svgjs.com/svgjs" viewBox="0.007 0 16.986 17" fill="#c1be99" x="355" y="2551"><svg xmlns="http://www.w3.org/2000/svg" xmlns:xlink="http://www.w3.org/1999/xlink" width="17" height="17" viewBox="1.413 1.298 14.812 14.824"><path paint-order="stroke fill markers" fill-rule="evenodd" d="M7.479 1.298c-1.736 0-3.343.51-4.695 1.37a8.716 8.716 0 0 0-1.371 4.695c0 4.841 3.906 8.759 8.746 8.759a8.76 8.76 0 0 0 4.696-1.37 8.724 8.724 0 0 0 1.37-4.708c0-4.827-3.918-8.746-8.746-8.746z"/></svg></svg><svg width="29" height="29" xmlns="http://www.w3.org/2000/svg" xmlns:xlink="http://www.w3.org/1999/xlink" xmlns:svgjs="http://svgjs.com/svgjs" viewBox="0 0 29 28.999" fill="#c1be99" x="465" y="2639"><svg xmlns="http://www.w3.org/2000/svg" xmlns:xlink="http://www.w3.org/1999/xlink" width="29" height="29" viewBox="1.303 1.328 27.022 27.021"><path paint-order="stroke fill markers" fill-rule="evenodd" d="M12.373 1.328c-3.166 0-6.108.903-8.577 2.506a15.757 15.757 0 0 0-2.493 8.557c0 8.814 7.146 15.959 15.96 15.959 3.153 0 6.089-.91 8.564-2.487a15.854 15.854 0 0 0 2.498-8.577c0-8.813-7.145-15.958-15.952-15.958z"/></svg></svg><svg width="26" height="25" xmlns="http://www.w3.org/2000/svg" xmlns:xlink="http://www.w3.org/1999/xlink" xmlns:svgjs="http://svgjs.com/svgjs" viewBox="0.497 0 25.005 25" fill="#c1be99" x="417" y="2707"><svg xmlns="http://www.w3.org/2000/svg" xmlns:xlink="http://www.w3.org/1999/xlink" width="26" height="25" viewBox="1.943 1.014 23.298 23.293"><path paint-order="stroke fill markers" fill-rule="evenodd" d="M11.478 1.014c-2.717 0-5.246.788-7.382 2.147a13.673 13.673 0 0 0-2.153 7.388c0 7.594 6.157 13.757 13.75 13.757 2.718 0 5.254-.788 7.388-2.148a13.674 13.674 0 0 0 2.16-7.392c0-7.595-6.163-13.752-13.763-13.752z"/></svg></svg><svg width="30" height="31" xmlns="http://www.w3.org/2000/svg" xmlns:xlink="http://www.w3.org/1999/xlink" xmlns:svgjs="http://svgjs.com/svgjs" viewBox="0 0.497 30 30.006" fill="#b7b284" x="431" y="2564"><svg xmlns="http://www.w3.org/2000/svg" xmlns:xlink="http://www.w3.org/1999/xlink" width="30" height="31" viewBox="1.427 1.794 28.278 28.283"><path paint-order="stroke fill markers" fill-rule="evenodd" d="M6.134 10c0-3.02.873-5.835 2.383-8.206-4.258 2.735-7.09 7.48-7.09 12.913 0 8.491 6.878 15.37 15.37 15.37 5.435 0 10.178-2.838 12.908-7.097a15.268 15.268 0 0 1-8.208 2.38c-8.473 0-15.363-6.88-15.363-15.36z"/></svg></svg><svg width="18" height="18" xmlns="http://www.w3.org/2000/svg" xmlns:xlink="http://www.w3.org/1999/xlink" xmlns:svgjs="http://svgjs.com/svgjs" viewBox="0.004 0 17.993 18" fill="#b7b284" x="352" y="2552"><svg xmlns="http://www.w3.org/2000/svg" xmlns:xlink="http://www.w3.org/1999/xlink" width="18" height="18" viewBox="1.726 1.692 16.104 16.11"><path paint-order="stroke fill markers" fill-rule="evenodd" d="M4.413 6.363c0-1.716.497-3.311 1.359-4.67-2.427 1.554-4.046 4.258-4.046 7.35a8.75 8.75 0 0 0 8.753 8.76c3.087 0 5.786-1.62 7.35-4.04a8.744 8.744 0 0 1-4.67 1.359c-4.84 0-8.746-3.918-8.746-8.759z"/></svg></svg><svg width="57" height="57" xmlns="http://www.w3.org/2000/svg" xmlns:xlink="http://www.w3.org/1999/xlink" xmlns:svgjs="http://svgjs.com/svgjs" viewBox="0.003 0 56.993 57" fill="#b7b284" x="368" y="2613"><svg xmlns="http://www.w3.org/2000/svg" xmlns:xlink="http://www.w3.org/1999/xlink" width="57" height="57" viewBox="1.453 1.421 55.234 55.24"><path paint-order="stroke fill markers" fill-rule="evenodd" d="M10.644 17.49A29.902 29.902 0 0 1 15.32 1.42C6.992 6.754 1.453 16.064 1.453 26.692c0 16.546 13.424 29.97 29.989 29.97 10.615 0 19.926-5.531 25.245-13.86a29.792 29.792 0 0 1-16.056 4.677c-16.564 0-29.987-13.43-29.987-29.989z"/></svg></svg><svg width="31" height="32" xmlns="http://www.w3.org/2000/svg" xmlns:xlink="http://www.w3.org/1999/xlink" xmlns:svgjs="http://svgjs.com/svgjs" viewBox="0 0.497 31 31.005" fill="#b7b284" x="460" y="2641"><svg xmlns="http://www.w3.org/2000/svg" xmlns:xlink="http://www.w3.org/1999/xlink" width="31" height="32" viewBox="1.402 1.87 29.376 29.381"><path paint-order="stroke fill markers" fill-rule="evenodd" d="M6.303 10.39c0-3.147.904-6.064 2.475-8.52C4.35 4.708 1.402 9.639 1.402 15.286c0 8.808 7.146 15.965 15.971 15.965 5.635 0 10.566-2.947 13.405-7.363a15.948 15.948 0 0 1-8.516 2.462c-8.813 0-15.959-7.145-15.959-15.96z"/></svg></svg><svg width="27" height="27" xmlns="http://www.w3.org/2000/svg" xmlns:xlink="http://www.w3.org/1999/xlink" xmlns:svgjs="http://svgjs.com/svgjs" viewBox="1.074 0 24.851 27" fill="#b7b284" x="413" y="2709"><svg xmlns="http://www.w3.org/2000/svg" xmlns:xlink="http://www.w3.org/1999/xlink" width="27" height="27" viewBox="1.722 1.014 25.324 27.514"><path paint-order="stroke fill markers" fill-rule="evenodd" d="M11.966 1.523c1.122-.303 2.293-.51 3.512-.51-1.219 0-2.39.207-3.512.51zM5.943 10.55c0-2.704.782-5.223 2.141-7.352-3.82 2.45-6.362 6.702-6.362 11.569 0 7.598 6.156 13.761 13.756 13.761 4.871 0 9.123-2.54 11.568-6.356a13.707 13.707 0 0 1-7.352 2.135c-7.594 0-13.75-6.163-13.75-13.757z"/></svg></svg><svg width="25" height="25" xmlns="http://www.w3.org/2000/svg" xmlns:xlink="http://www.w3.org/1999/xlink" xmlns:svgjs="http://svgjs.com/svgjs" viewBox="0.003 0 24.994 25" fill="#b7b284" x="333" y="2692"><svg xmlns="http://www.w3.org/2000/svg" xmlns:xlink="http://www.w3.org/1999/xlink" width="25" height="25" viewBox="1.182 1.238 23.056 23.061"><path paint-order="stroke fill markers" fill-rule="evenodd" d="M5.022 7.923c0-2.463.715-4.757 1.94-6.685-3.468 2.227-5.78 6.09-5.78 10.524 0 6.92 5.6 12.538 12.525 12.538 4.429 0 8.299-2.317 10.531-5.787a12.502 12.502 0 0 1-6.69 1.941c-6.928 0-12.526-5.604-12.526-12.531z"/></svg></svg><svg width="41" height="41" xmlns="http://www.w3.org/2000/svg" xmlns:xlink="http://www.w3.org/1999/xlink" xmlns:svgjs="http://svgjs.com/svgjs" viewBox="0 0.002 41 40.996" fill="#b7b284" x="298" y="2611"><svg xmlns="http://www.w3.org/2000/svg" xmlns:xlink="http://www.w3.org/1999/xlink" width="41" height="41" viewBox="1.233 1.505 39.371 39.367"><path paint-order="stroke fill markers" fill-rule="evenodd" d="M7.79 12.92c0-4.198 1.225-8.109 3.305-11.415-5.926 3.81-9.862 10.414-9.862 17.978 0 11.816 9.577 21.389 21.392 21.389 7.57 0 14.176-3.95 17.979-9.877a21.213 21.213 0 0 1-11.415 3.318c-11.828 0-21.4-9.57-21.4-21.393z"/></svg></svg><svg width="160" height="181" xmlns="http://www.w3.org/2000/svg" xmlns:xlink="http://www.w3.org/1999/xlink" xmlns:svgjs="http://svgjs.com/svgjs" viewBox="0.605 0 158.789 181" fill="#fff" x="226" y="2593"><svg xmlns="http://www.w3.org/2000/svg" xmlns:xlink="http://www.w3.org/1999/xlink" width="160" height="181" viewBox="1.81 1.162 157.739 179.803"><path paint-order="stroke fill markers" fill-rule="evenodd" d="M158.676 1.162c-33.092 0-61.102 21.587-70.828 51.432-18.61 4.134-33.78 17.274-40.737 34.64-25.157.855-45.301 21.46-45.301 46.82 0 25.33 20.074 45.898 45.17 46.826v.085h112.57V1.205c-.292-.012-.577-.043-.874-.043z"/></svg></svg><svg width="128" height="181" xmlns="http://www.w3.org/2000/svg" xmlns:xlink="http://www.w3.org/1999/xlink" xmlns:svgjs="http://svgjs.com/svgjs" viewBox="0.678 0 126.644 181" fill="#f2f4f9" x="384" y="2593"><svg xmlns="http://www.w3.org/2000/svg" xmlns:xlink="http://www.w3.org/1999/xlink" width="128" height="181" viewBox="1.549 1.205 125.776 179.76"><path paint-order="stroke fill markers" fill-rule="evenodd" d="M74.591 66.537C70.102 29.992 39.204 1.636 1.55 1.205v179.76h70.955v-.134c30.498-1.322 54.822-26.385 54.822-57.198 0-30.11-23.232-54.748-52.735-57.096z"/></svg></svg><svg width="112" height="15" xmlns="http://www.w3.org/2000/svg" xmlns:xlink="http://www.w3.org/1999/xlink" xmlns:svgjs="http://svgjs.com/svgjs" viewBox="0 0.689 112 13.622" fill="#00e1ff" x="252" y="2728"><svg xmlns="http://www.w3.org/2000/svg" xmlns:xlink="http://www.w3.org/1999/xlink" width="112" height="15" viewBox="1.167 1.165 110.418 13.43"><path paint-order="stroke fill markers" fill-rule="evenodd" d="M111.585 11.379a3.225 3.225 0 0 1-3.22 3.216H4.387a3.227 3.227 0 0 1-3.22-3.216V4.392a3.238 3.238 0 0 1 3.22-3.227h103.976a3.236 3.236 0 0 1 3.221 3.227v6.987z"/></svg></svg><svg width="112" height="16" xmlns="http://www.w3.org/2000/svg" xmlns:xlink="http://www.w3.org/1999/xlink" xmlns:svgjs="http://svgjs.com/svgjs" viewBox="0 1.183 112 13.634" fill="#00e1ff" x="266" y="2806"><svg xmlns="http://www.w3.org/2000/svg" xmlns:xlink="http://www.w3.org/1999/xlink" width="112" height="16" viewBox="1.221 1.908 110.418 13.441"><path paint-order="stroke fill markers" fill-rule="evenodd" d="M1.221 5.135a3.241 3.241 0 0 1 3.227-3.227h103.977c1.764 0 3.215 1.455 3.215 3.227v6.974c0 1.774-1.45 3.24-3.215 3.24H4.448c-1.77 0-3.227-1.466-3.227-3.24V5.135z"/></svg></svg><svg width="77" height="16" xmlns="http://www.w3.org/2000/svg" xmlns:xlink="http://www.w3.org/1999/xlink" xmlns:svgjs="http://svgjs.com/svgjs" viewBox="0 1.081 77 13.839" fill="#00e1ff" x="367" y="2766"><svg xmlns="http://www.w3.org/2000/svg" xmlns:xlink="http://www.w3.org/1999/xlink" width="77" height="16" viewBox="1.413 1.736 74.686 13.423"><path paint-order="stroke fill markers" fill-rule="evenodd" d="M76.1 11.944a3.223 3.223 0 0 1-3.228 3.215H4.634a3.226 3.226 0 0 1-3.22-3.215V4.956a3.23 3.23 0 0 1 3.22-3.22h68.238a3.228 3.228 0 0 1 3.228 3.22v6.988z"/></svg></svg><svg width="77" height="16" xmlns="http://www.w3.org/2000/svg" xmlns:xlink="http://www.w3.org/1999/xlink" xmlns:svgjs="http://svgjs.com/svgjs" viewBox="0 1.08 77 13.84" fill="#00e1ff" x="402" y="2806"><svg xmlns="http://www.w3.org/2000/svg" xmlns:xlink="http://www.w3.org/1999/xlink" width="77" height="16" viewBox="1.424 1.92 74.685 13.424"><path paint-order="stroke fill markers" fill-rule="evenodd" d="M1.424 5.135A3.223 3.223 0 0 1 4.651 1.92H72.89a3.225 3.225 0 0 1 3.22 3.215v6.988a3.23 3.23 0 0 1-3.22 3.22H4.651a3.228 3.228 0 0 1-3.227-3.22V5.135z"/></svg></svg><svg width="49" height="16" xmlns="http://www.w3.org/2000/svg" xmlns:xlink="http://www.w3.org/1999/xlink" xmlns:svgjs="http://svgjs.com/svgjs" viewBox="0 1.059 49 13.881" fill="#00e1ff" x="287" y="2766"><svg xmlns="http://www.w3.org/2000/svg" xmlns:xlink="http://www.w3.org/1999/xlink" width="49" height="16" viewBox="1.123 1.742 47.36 13.417"><path paint-order="stroke fill markers" fill-rule="evenodd" d="M1.123 12.053a3.114 3.114 0 0 0 3.106 3.106h41.149a3.114 3.114 0 0 0 3.106-3.106V4.848a3.113 3.113 0 0 0-3.106-3.106H4.228a3.113 3.113 0 0 0-3.105 3.106v7.205z"/></svg></svg><svg width="49" height="15" xmlns="http://www.w3.org/2000/svg" xmlns:xlink="http://www.w3.org/1999/xlink" xmlns:svgjs="http://svgjs.com/svgjs" viewBox="0 0.556 49 13.889" fill="#00e1ff" x="442" y="2728"><svg xmlns="http://www.w3.org/2000/svg" xmlns:xlink="http://www.w3.org/1999/xlink" width="49" height="15" viewBox="1.403 1.177 47.36 13.424"><path paint-order="stroke fill markers" fill-rule="evenodd" d="M1.403 11.494a3.112 3.112 0 0 0 3.106 3.107h41.149a3.11 3.11 0 0 0 3.105-3.107V4.282a3.11 3.11 0 0 0-3.105-3.105H4.508a3.111 3.111 0 0 0-3.105 3.105v7.212z"/></svg></svg><svg width="20" height="15" xmlns="http://www.w3.org/2000/svg" xmlns:xlink="http://www.w3.org/1999/xlink" xmlns:svgjs="http://svgjs.com/svgjs" viewBox="0.023 0 19.953 15" fill="#00e1ff" x="390" y="2728"><svg xmlns="http://www.w3.org/2000/svg" xmlns:xlink="http://www.w3.org/1999/xlink" width="20" height="15" viewBox="1.384 1.177 17.857 13.424"><path paint-order="stroke fill markers" fill-rule="evenodd" d="M1.384 11.494a3.112 3.112 0 0 0 3.106 3.107h11.646a3.11 3.11 0 0 0 3.105-3.107V4.282a3.11 3.11 0 0 0-3.105-3.105H4.49a3.111 3.111 0 0 0-3.106 3.105v7.212z"/></svg></svg><svg width="252" height="45" xmlns="http://www.w3.org/2000/svg" xmlns:xlink="http://www.w3.org/1999/xlink" xmlns:svgjs="http://svgjs.com/svgjs" viewBox="0 0.63 252 43.74" fill="#d0d5d8" x="253" y="2729"><svg xmlns="http://www.w3.org/2000/svg" width="252" height="45" viewBox="1.156 1.583 249.939 43.382"><path paint-order="stroke fill markers" fill-rule="evenodd" d="M156.24 3.282v7.212a3.11 3.11 0 0 1-3.104 3.107H141.49c-.85 0-1.625-.347-2.184-.905l26.04 26.04h21.526a3.228 3.228 0 0 1 3.228 3.22v3.009h8.94L155.677 1.603c.327.49.564 1.048.564 1.68zm-45.655.11v6.987a3.225 3.225 0 0 1-3.22 3.216H3.387a3.185 3.185 0 0 1-2.193-.893l-.04.043 32.221 32.22h1.747v-3.117a3.113 3.113 0 0 1 3.106-3.106h41.149a3.113 3.113 0 0 1 3.106 3.106v3.117h32.93v-3.009a3.23 3.23 0 0 1 3.22-3.22H147.1L109.973 1.61c.357.52.612 1.109.612 1.783zm28.6 9.127l-.025.032.128.127c-.043-.042-.061-.11-.103-.159zm98.093-10.936l-.085.012c.327.493.57 1.05.57 1.687v7.212a3.11 3.11 0 0 1-3.105 3.107h-41.15c-.728 0-1.37-.292-1.904-.717l-.037.054 28.636 28.636c13.217-4.687 24.165-14.09 30.892-26.173L237.278 1.583z"/></svg></svg></svg>