<svg width="279" height="236" xmlns="http://www.w3.org/2000/svg" xmlns:xlink="http://www.w3.org/1999/xlink" xmlns:svgjs="http://svgjs.com/svgjs" viewBox="1962 625 279 236"><svg width="195" height="195" xmlns="http://www.w3.org/2000/svg" xmlns:xlink="http://www.w3.org/1999/xlink" xmlns:svgjs="http://svgjs.com/svgjs" viewBox="0.004 0 194.992 195" fill="#d1d1b0" x="2046" y="625"><svg xmlns="http://www.w3.org/2000/svg" xmlns:xlink="http://www.w3.org/1999/xlink" width="195" height="195" viewBox="1.236 1.704 193.273 193.281"><path paint-order="stroke fill markers" fill-rule="evenodd" d="M80.38 1.704c-22.565 0-43.576 6.575-61.288 17.872C7.798 37.281 1.236 58.296 1.236 80.86c0 63.03 51.083 114.124 114.128 114.124 22.553 0 43.57-6.57 61.282-17.86 11.288-17.711 17.863-38.723 17.863-61.29 0-63.033-51.097-114.13-114.129-114.13z"/></svg></svg><svg width="212" height="212" xmlns="http://www.w3.org/2000/svg" xmlns:xlink="http://www.w3.org/1999/xlink" xmlns:svgjs="http://svgjs.com/svgjs" fill="#c6c5a3" x="2011" y="643"><svg xmlns="http://www.w3.org/2000/svg" xmlns:xlink="http://www.w3.org/1999/xlink" width="212" height="212" viewBox="1.248 1.712 210.251 210.251"><path paint-order="stroke fill markers" fill-rule="evenodd" d="M36.236 62.86c0-22.51 6.537-43.472 17.777-61.148C22.32 21.99 1.248 57.416 1.248 97.834c0 63.033 51.103 114.13 114.132 114.13 40.413 0 75.843-21.062 96.12-52.755-17.681 11.236-38.643 17.775-61.136 17.775-63.045 0-114.128-51.093-114.128-114.124z"/></svg></svg><svg width="39" height="38" xmlns="http://www.w3.org/2000/svg" xmlns:xlink="http://www.w3.org/1999/xlink" xmlns:svgjs="http://svgjs.com/svgjs" viewBox="0.495 0 38.01 38" fill="#c1be99" x="2036" y="704"><svg xmlns="http://www.w3.org/2000/svg" xmlns:xlink="http://www.w3.org/1999/xlink" width="39" height="38" viewBox="1.93 1.365 36.236 36.227"><path paint-order="stroke fill markers" fill-rule="evenodd" d="M16.767 1.365A21.342 21.342 0 0 0 5.278 4.711 21.343 21.343 0 0 0 1.93 16.196c0 11.825 9.572 21.396 21.4 21.396 4.227 0 8.164-1.228 11.48-3.35a21.223 21.223 0 0 0 3.356-11.483c0-11.816-9.585-21.394-21.4-21.394z"/></svg></svg><svg width="53" height="52" xmlns="http://www.w3.org/2000/svg" xmlns:xlink="http://www.w3.org/1999/xlink" xmlns:svgjs="http://svgjs.com/svgjs" viewBox="0.5 0 52 52" fill="#c1be99" x="2109" y="705"><svg xmlns="http://www.w3.org/2000/svg" xmlns:xlink="http://www.w3.org/1999/xlink" width="53" height="52" viewBox="1.783 1.975 50.781 50.782"><path paint-order="stroke fill markers" fill-rule="evenodd" d="M22.582 1.975A29.82 29.82 0 0 0 6.485 6.673a29.837 29.837 0 0 0-4.702 16.094c0 16.56 13.424 29.99 29.99 29.99 5.925 0 11.44-1.726 16.097-4.693a29.876 29.876 0 0 0 4.695-16.097c0-16.566-13.423-29.992-29.983-29.992z"/></svg></svg><svg width="23" height="23" xmlns="http://www.w3.org/2000/svg" xmlns:xlink="http://www.w3.org/1999/xlink" xmlns:svgjs="http://svgjs.com/svgjs" viewBox="0.002 0 22.996 23" fill="#c1be99" x="2069" y="786"><svg xmlns="http://www.w3.org/2000/svg" xmlns:xlink="http://www.w3.org/1999/xlink" width="23" height="23" viewBox="1.162 1.512 21.218 21.222"><path paint-order="stroke fill markers" fill-rule="evenodd" d="M9.848 1.512c-2.474 0-4.778.721-6.733 1.965a12.47 12.47 0 0 0-1.953 6.727c0 6.927 5.599 12.53 12.526 12.53 2.475 0 4.78-.724 6.727-1.96a12.476 12.476 0 0 0 1.965-6.734c0-6.914-5.61-12.528-12.532-12.528z"/></svg></svg><svg width="28" height="28" xmlns="http://www.w3.org/2000/svg" xmlns:xlink="http://www.w3.org/1999/xlink" xmlns:svgjs="http://svgjs.com/svgjs" viewBox="0 0.001 28 27.997" fill="#c1be99" x="2168" y="658"><svg xmlns="http://www.w3.org/2000/svg" xmlns:xlink="http://www.w3.org/1999/xlink" width="28" height="28" viewBox="1.275 1.622 26.021 26.018"><path paint-order="stroke fill markers" fill-rule="evenodd" d="M11.938 1.622c-3.045 0-5.871.88-8.25 2.405a15.205 15.205 0 0 0-2.413 8.255c0 8.474 6.89 15.359 15.364 15.359 3.038 0 5.865-.88 8.255-2.406a15.297 15.297 0 0 0 2.401-8.249c0-8.483-6.866-15.364-15.357-15.364z"/></svg></svg><svg width="17" height="17" xmlns="http://www.w3.org/2000/svg" xmlns:xlink="http://www.w3.org/1999/xlink" xmlns:svgjs="http://svgjs.com/svgjs" viewBox="0.003 0 16.994 17" fill="#c1be99" x="2087" y="647"><svg xmlns="http://www.w3.org/2000/svg" xmlns:xlink="http://www.w3.org/1999/xlink" width="17" height="17" viewBox="1.554 1.579 14.813 14.818"><path paint-order="stroke fill markers" fill-rule="evenodd" d="M7.62 1.58a8.707 8.707 0 0 0-4.696 1.364 8.724 8.724 0 0 0-1.37 4.702 8.742 8.742 0 0 0 13.441 7.38A8.747 8.747 0 0 0 7.62 1.58z"/></svg></svg><svg width="29" height="29" xmlns="http://www.w3.org/2000/svg" xmlns:xlink="http://www.w3.org/1999/xlink" xmlns:svgjs="http://svgjs.com/svgjs" viewBox="0.002 0 28.996 29" fill="#c1be99" x="2197" y="735"><svg xmlns="http://www.w3.org/2000/svg" xmlns:xlink="http://www.w3.org/1999/xlink" width="29" height="29" viewBox="1.445 1.606 27.021 27.025"><path paint-order="stroke fill markers" fill-rule="evenodd" d="M12.514 1.606c-3.166 0-6.109.907-8.577 2.503a15.785 15.785 0 0 0-2.492 8.56c0 8.814 7.144 15.963 15.958 15.963 3.154 0 6.09-.916 8.564-2.494a15.823 15.823 0 0 0 2.499-8.576c0-8.81-7.145-15.956-15.952-15.956z"/></svg></svg><svg width="25" height="25" xmlns="http://www.w3.org/2000/svg" xmlns:xlink="http://www.w3.org/1999/xlink" xmlns:svgjs="http://svgjs.com/svgjs" viewBox="0 0.002 25 24.996" fill="#c1be99" x="2150" y="803"><svg xmlns="http://www.w3.org/2000/svg" xmlns:xlink="http://www.w3.org/1999/xlink" width="25" height="25" viewBox="1.083 1.289 23.299 23.295"><path paint-order="stroke fill markers" fill-rule="evenodd" d="M10.618 1.289c-2.716 0-5.245.795-7.38 2.153a13.664 13.664 0 0 0-2.155 7.388c0 7.595 6.157 13.754 13.752 13.754 2.717 0 5.252-.788 7.387-2.15a13.67 13.67 0 0 0 2.16-7.39c0-7.595-6.163-13.755-13.764-13.755z"/></svg></svg><svg width="30" height="30" xmlns="http://www.w3.org/2000/svg" xmlns:xlink="http://www.w3.org/1999/xlink" xmlns:svgjs="http://svgjs.com/svgjs" viewBox="0.001 0 29.997 30" fill="#b7b284" x="2163" y="661"><svg xmlns="http://www.w3.org/2000/svg" xmlns:xlink="http://www.w3.org/1999/xlink" width="30" height="30" viewBox="1.568 1.073 28.277 28.28"><path paint-order="stroke fill markers" fill-rule="evenodd" d="M6.275 9.282c0-3.027.873-5.84 2.384-8.21C4.4 3.806 1.568 8.556 1.568 13.987c0 8.489 6.878 15.366 15.37 15.366 5.434 0 10.178-2.837 12.907-7.092a15.248 15.248 0 0 1-8.206 2.38c-8.475 0-15.364-6.884-15.364-15.358z"/></svg></svg><svg width="18" height="18" xmlns="http://www.w3.org/2000/svg" xmlns:xlink="http://www.w3.org/1999/xlink" xmlns:svgjs="http://svgjs.com/svgjs" viewBox="0.003 0 17.994 18" fill="#b7b284" x="2084" y="649"><svg xmlns="http://www.w3.org/2000/svg" xmlns:xlink="http://www.w3.org/1999/xlink" width="18" height="18" viewBox="1.866 1.969 16.105 16.11"><path paint-order="stroke fill markers" fill-rule="evenodd" d="M4.554 6.646a8.7 8.7 0 0 1 1.358-4.677C3.486 3.524 1.866 6.227 1.866 9.326a8.748 8.748 0 0 0 8.753 8.753c3.087 0 5.786-1.617 7.352-4.04a8.719 8.719 0 0 1-4.671 1.358 8.742 8.742 0 0 1-8.746-8.751z"/></svg></svg><svg width="57" height="57" xmlns="http://www.w3.org/2000/svg" xmlns:xlink="http://www.w3.org/1999/xlink" xmlns:svgjs="http://svgjs.com/svgjs" viewBox="0.002 0 56.996 57" fill="#b7b284" x="2100" y="709"><svg xmlns="http://www.w3.org/2000/svg" xmlns:xlink="http://www.w3.org/1999/xlink" width="57" height="57" viewBox="1.595 1.703 55.232 55.236"><path paint-order="stroke fill markers" fill-rule="evenodd" d="M10.783 17.767c0-5.913 1.73-11.421 4.677-16.064C7.132 7.031 1.595 16.34 1.595 26.967c0 16.553 13.422 29.972 29.987 29.972 10.616 0 19.926-5.531 25.245-13.856a29.812 29.812 0 0 1-16.054 4.674c-16.566 0-29.99-13.43-29.99-29.99z"/></svg></svg><svg width="31" height="31" xmlns="http://www.w3.org/2000/svg" xmlns:xlink="http://www.w3.org/1999/xlink" xmlns:svgjs="http://svgjs.com/svgjs" viewBox="0.006 0 30.987 31" fill="#b7b284" x="2192" y="738"><svg xmlns="http://www.w3.org/2000/svg" xmlns:xlink="http://www.w3.org/1999/xlink" width="31" height="31" viewBox="1.542 1.144 29.376 29.388"><path paint-order="stroke fill markers" fill-rule="evenodd" d="M6.445 9.67c0-3.146.904-6.066 2.474-8.526C4.49 3.986 1.542 8.918 1.542 14.562c0 8.814 7.147 15.97 15.972 15.97 5.636 0 10.565-2.947 13.404-7.366a15.912 15.912 0 0 1-8.515 2.466c-8.814 0-15.958-7.149-15.958-15.962z"/></svg></svg><svg width="28" height="27" xmlns="http://www.w3.org/2000/svg" xmlns:xlink="http://www.w3.org/1999/xlink" xmlns:svgjs="http://svgjs.com/svgjs" viewBox="1.574 0 24.851 27" fill="#b7b284" x="2145" y="805"><svg xmlns="http://www.w3.org/2000/svg" xmlns:xlink="http://www.w3.org/1999/xlink" width="28" height="27" viewBox="1.862 1.289 25.324 27.514"><path paint-order="stroke fill markers" fill-rule="evenodd" d="M12.107 1.799c1.123-.301 2.293-.51 3.511-.51-1.218 0-2.388.209-3.511.51zM6.083 10.83c0-2.705.783-5.225 2.143-7.35-3.822 2.444-6.364 6.699-6.364 11.563 0 7.603 6.157 13.76 13.756 13.76 4.871 0 9.123-2.538 11.569-6.351a13.708 13.708 0 0 1-7.352 2.132c-7.595 0-13.752-6.16-13.752-13.754z"/></svg></svg><svg width="25" height="25" xmlns="http://www.w3.org/2000/svg" xmlns:xlink="http://www.w3.org/1999/xlink" xmlns:svgjs="http://svgjs.com/svgjs" viewBox="0.003 0 24.993 25" fill="#b7b284" x="2065" y="788"><svg xmlns="http://www.w3.org/2000/svg" xmlns:xlink="http://www.w3.org/1999/xlink" width="25" height="25" viewBox="1.323 1.514 23.055 23.061"><path paint-order="stroke fill markers" fill-rule="evenodd" d="M5.162 8.204c0-2.463.716-4.759 1.94-6.69C3.635 3.743 1.324 7.61 1.324 12.04c0 6.924 5.598 12.535 12.525 12.535 4.428 0 8.299-2.31 10.53-5.783a12.525 12.525 0 0 1-6.69 1.941c-6.927 0-12.526-5.602-12.526-12.53z"/></svg></svg><svg width="41" height="42" xmlns="http://www.w3.org/2000/svg" xmlns:xlink="http://www.w3.org/1999/xlink" xmlns:svgjs="http://svgjs.com/svgjs" viewBox="0 0.504 41 40.993" fill="#b7b284" x="2030" y="707"><svg xmlns="http://www.w3.org/2000/svg" xmlns:xlink="http://www.w3.org/1999/xlink" width="41" height="42" viewBox="1.372 1.783 39.373 39.366"><path paint-order="stroke fill markers" fill-rule="evenodd" d="M7.93 13.196c0-4.197 1.226-8.107 3.307-11.413C5.31 5.59 1.372 12.198 1.372 19.759c0 11.816 9.58 21.39 21.395 21.39 7.57 0 14.176-3.949 17.978-9.872a21.219 21.219 0 0 1-11.415 3.315c-11.828 0-21.4-9.571-21.4-21.396z"/></svg></svg><svg width="153" height="174" xmlns="http://www.w3.org/2000/svg" xmlns:xlink="http://www.w3.org/1999/xlink" xmlns:svgjs="http://svgjs.com/svgjs" viewBox="0.176 0 152.649 174" fill="#fff" x="1962" y="687"><svg xmlns="http://www.w3.org/2000/svg" xmlns:xlink="http://www.w3.org/1999/xlink" width="153" height="174" viewBox="1.235 1.546 151.199 172.348"><path paint-order="stroke fill markers" fill-rule="evenodd" d="M151.599 1.546c-31.71 0-58.562 20.695-67.89 49.298-17.839 3.967-32.373 16.56-39.044 33.203-24.117.819-43.43 20.572-43.43 44.876 0 24.283 19.252 43.997 43.303 44.891v.08h107.897V1.583c-.279-.005-.545-.038-.836-.038z"/></svg></svg><svg width="122" height="174" xmlns="http://www.w3.org/2000/svg" xmlns:xlink="http://www.w3.org/1999/xlink" xmlns:svgjs="http://svgjs.com/svgjs" viewBox="0.128 0 121.744 174" fill="#f2f4f9" x="2113" y="687"><svg xmlns="http://www.w3.org/2000/svg" width="122" height="174" viewBox="1.435 1.585 120.561 172.309"><path paint-order="stroke fill markers" fill-rule="evenodd" d="M71.457 64.207C67.151 29.183 37.537 1.997 1.435 1.585v172.308h68.02v-.13c29.224-1.268 52.54-25.29 52.54-54.825 0-28.862-22.273-52.482-50.538-54.731z"/></svg></svg></svg>