<svg width="274" height="341" xmlns="http://www.w3.org/2000/svg" xmlns:xlink="http://www.w3.org/1999/xlink" xmlns:svgjs="http://svgjs.com/svgjs" viewBox="233 1076 274 341"><svg width="196" height="195" xmlns="http://www.w3.org/2000/svg" xmlns:xlink="http://www.w3.org/1999/xlink" xmlns:svgjs="http://svgjs.com/svgjs" viewBox="0.503 0 194.994 195" fill="#d1d1b0" x="311" y="1076"><svg xmlns="http://www.w3.org/2000/svg" xmlns:xlink="http://www.w3.org/1999/xlink" width="196" height="195" viewBox="1.765 1.011 193.274 193.28"><path paint-order="stroke fill markers" fill-rule="evenodd" d="M80.909 1.01c-22.565 0-43.576 6.576-61.287 17.873C8.328 36.588 1.765 57.603 1.765 80.167c0 63.03 51.084 114.124 114.13 114.124 22.552 0 43.57-6.569 61.28-17.86 11.29-17.711 17.864-38.723 17.864-61.29 0-63.033-51.097-114.13-114.13-114.13z"/></svg></svg><svg width="212" height="212" xmlns="http://www.w3.org/2000/svg" xmlns:xlink="http://www.w3.org/1999/xlink" xmlns:svgjs="http://svgjs.com/svgjs" viewBox="0 0 211.999 212" fill="#c6c5a3" x="276" y="1094"><svg xmlns="http://www.w3.org/2000/svg" xmlns:xlink="http://www.w3.org/1999/xlink" width="212" height="212" viewBox="1.779 1.02 210.251 210.252"><path paint-order="stroke fill markers" fill-rule="evenodd" d="M36.765 62.167c0-22.51 6.538-43.473 17.778-61.147C22.851 21.297 1.78 56.723 1.78 97.14c0 63.034 51.102 114.13 114.13 114.13 40.415 0 75.844-21.063 96.121-52.755-17.681 11.237-38.643 17.775-61.135 17.775-63.046 0-114.13-51.093-114.13-114.124z"/></svg></svg><svg width="38" height="38" xmlns="http://www.w3.org/2000/svg" xmlns:xlink="http://www.w3.org/1999/xlink" xmlns:svgjs="http://svgjs.com/svgjs" viewBox="0 0.005 38 37.991" fill="#c1be99" x="302" y="1154"><svg xmlns="http://www.w3.org/2000/svg" xmlns:xlink="http://www.w3.org/1999/xlink" width="38" height="38" viewBox="1.461 1.673 36.235 36.227"><path paint-order="stroke fill markers" fill-rule="evenodd" d="M16.297 1.673A21.351 21.351 0 0 0 4.808 5.018a21.356 21.356 0 0 0-3.347 11.485c0 11.825 9.571 21.396 21.398 21.396 4.228 0 8.165-1.228 11.483-3.351a21.216 21.216 0 0 0 3.354-11.482c0-11.816-9.583-21.393-21.4-21.393z"/></svg></svg><svg width="53" height="53" xmlns="http://www.w3.org/2000/svg" xmlns:xlink="http://www.w3.org/1999/xlink" xmlns:svgjs="http://svgjs.com/svgjs" viewBox="0 0 53 52.999" fill="#c1be99" x="375" y="1155"><svg xmlns="http://www.w3.org/2000/svg" xmlns:xlink="http://www.w3.org/1999/xlink" width="53" height="53" viewBox="1.314 1.282 50.782 50.781"><path paint-order="stroke fill markers" fill-rule="evenodd" d="M22.113 1.282A29.813 29.813 0 0 0 6.015 5.98a29.829 29.829 0 0 0-4.701 16.095c0 16.56 13.423 29.988 29.989 29.988A29.858 29.858 0 0 0 47.4 47.372a29.873 29.873 0 0 0 4.695-16.099c0-16.565-13.423-29.99-29.983-29.99z"/></svg></svg><svg width="23" height="24" xmlns="http://www.w3.org/2000/svg" xmlns:xlink="http://www.w3.org/1999/xlink" xmlns:svgjs="http://svgjs.com/svgjs" viewBox="0 0.498 23 23.004" fill="#c1be99" x="334" y="1236"><svg xmlns="http://www.w3.org/2000/svg" xmlns:xlink="http://www.w3.org/1999/xlink" width="23" height="24" viewBox="1.693 1.818 21.218 21.221"><path paint-order="stroke fill markers" fill-rule="evenodd" d="M10.379 1.818c-2.475 0-4.78.723-6.733 1.966a12.471 12.471 0 0 0-1.953 6.727c0 6.926 5.598 12.528 12.525 12.528 2.475 0 4.78-.721 6.727-1.959a12.469 12.469 0 0 0 1.965-6.733c0-6.914-5.61-12.529-12.531-12.529z"/></svg></svg><svg width="28" height="28" xmlns="http://www.w3.org/2000/svg" xmlns:xlink="http://www.w3.org/1999/xlink" xmlns:svgjs="http://svgjs.com/svgjs" viewBox="0 0.001 28 27.997" fill="#c1be99" x="433" y="1108"><svg xmlns="http://www.w3.org/2000/svg" xmlns:xlink="http://www.w3.org/1999/xlink" width="28" height="28" viewBox="1.804 1.929 26.022 26.019"><path paint-order="stroke fill markers" fill-rule="evenodd" d="M12.468 1.929c-3.045 0-5.872.88-8.249 2.405a15.208 15.208 0 0 0-2.414 8.255c0 8.473 6.89 15.359 15.364 15.359 3.039 0 5.865-.88 8.255-2.406a15.299 15.299 0 0 0 2.402-8.25c0-8.481-6.866-15.363-15.358-15.363z"/></svg></svg><svg width="16" height="17" xmlns="http://www.w3.org/2000/svg" xmlns:xlink="http://www.w3.org/1999/xlink" xmlns:svgjs="http://svgjs.com/svgjs" viewBox="0 0.496 16 16.007" fill="#c1be99" x="353" y="1097"><svg xmlns="http://www.w3.org/2000/svg" xmlns:xlink="http://www.w3.org/1999/xlink" width="16" height="17" viewBox="1.083 1.886 14.813 14.819"><path paint-order="stroke fill markers" fill-rule="evenodd" d="M7.15 1.886A8.703 8.703 0 0 0 2.453 3.25a8.723 8.723 0 0 0-1.37 4.701 8.744 8.744 0 0 0 13.44 7.382A8.747 8.747 0 0 0 7.149 1.886z"/></svg></svg><svg width="28" height="29" xmlns="http://www.w3.org/2000/svg" xmlns:xlink="http://www.w3.org/1999/xlink" xmlns:svgjs="http://svgjs.com/svgjs" viewBox="0 0.499 28 28.003" fill="#c1be99" x="463" y="1185"><svg xmlns="http://www.w3.org/2000/svg" xmlns:xlink="http://www.w3.org/1999/xlink" width="28" height="29" viewBox="1.974 1.913 27.022 27.025"><path paint-order="stroke fill markers" fill-rule="evenodd" d="M13.044 1.913c-3.166 0-6.108.907-8.577 2.502a15.787 15.787 0 0 0-2.493 8.562c0 8.813 7.146 15.961 15.958 15.961 3.155 0 6.09-.916 8.565-2.493a15.825 15.825 0 0 0 2.5-8.576c0-8.81-7.146-15.956-15.953-15.956z"/></svg></svg><svg width="25" height="25" xmlns="http://www.w3.org/2000/svg" xmlns:xlink="http://www.w3.org/1999/xlink" xmlns:svgjs="http://svgjs.com/svgjs" viewBox="0 0.001 25 24.997" fill="#c1be99" x="415" y="1253"><svg xmlns="http://www.w3.org/2000/svg" xmlns:xlink="http://www.w3.org/1999/xlink" width="25" height="25" viewBox="1.614 1.596 23.298 23.295"><path paint-order="stroke fill markers" fill-rule="evenodd" d="M11.149 1.596c-2.717 0-5.247.795-7.382 2.154a13.658 13.658 0 0 0-2.153 7.388c0 7.593 6.156 13.753 13.75 13.753 2.718 0 5.254-.788 7.389-2.15a13.682 13.682 0 0 0 2.159-7.391c0-7.594-6.163-13.754-13.763-13.754z"/></svg></svg><svg width="30" height="30" xmlns="http://www.w3.org/2000/svg" xmlns:xlink="http://www.w3.org/1999/xlink" xmlns:svgjs="http://svgjs.com/svgjs" viewBox="0.001 0 29.997 30" fill="#b7b284" x="429" y="1111"><svg xmlns="http://www.w3.org/2000/svg" xmlns:xlink="http://www.w3.org/1999/xlink" width="30" height="30" viewBox="1.097 1.379 28.278 28.281"><path paint-order="stroke fill markers" fill-rule="evenodd" d="M5.805 9.589c0-3.026.874-5.841 2.384-8.21C3.93 4.112 1.097 8.86 1.097 14.293c0 8.489 6.88 15.367 15.371 15.367 5.435 0 10.178-2.839 12.908-7.093a15.247 15.247 0 0 1-8.207 2.38c-8.474 0-15.364-6.885-15.364-15.358z"/></svg></svg><svg width="18" height="18" xmlns="http://www.w3.org/2000/svg" xmlns:xlink="http://www.w3.org/1999/xlink" xmlns:svgjs="http://svgjs.com/svgjs" viewBox="0.004 0 17.993 18" fill="#b7b284" x="350" y="1099"><svg xmlns="http://www.w3.org/2000/svg" xmlns:xlink="http://www.w3.org/1999/xlink" width="18" height="18" viewBox="1.397 1.275 16.104 16.11"><path paint-order="stroke fill markers" fill-rule="evenodd" d="M4.083 5.952c0-1.72.498-3.315 1.36-4.677-2.427 1.556-4.046 4.258-4.046 7.358a8.748 8.748 0 0 0 8.752 8.753c3.088 0 5.787-1.618 7.352-4.04a8.721 8.721 0 0 1-4.67 1.359 8.744 8.744 0 0 1-8.748-8.753z"/></svg></svg><svg width="57" height="57" xmlns="http://www.w3.org/2000/svg" xmlns:xlink="http://www.w3.org/1999/xlink" xmlns:svgjs="http://svgjs.com/svgjs" viewBox="0.002 0 56.996 57" fill="#b7b284" x="366" y="1160"><svg xmlns="http://www.w3.org/2000/svg" xmlns:xlink="http://www.w3.org/1999/xlink" width="57" height="57" viewBox="1.125 1.01 55.233 55.237"><path paint-order="stroke fill markers" fill-rule="evenodd" d="M10.314 17.075A29.88 29.88 0 0 1 14.99 1.01C6.663 6.34 1.125 15.646 1.125 26.273c0 16.554 13.423 29.974 29.988 29.974 10.615 0 19.925-5.532 25.245-13.857a29.813 29.813 0 0 1-16.055 4.673c-16.566 0-29.99-13.429-29.99-29.988z"/></svg></svg><svg width="31" height="31" xmlns="http://www.w3.org/2000/svg" xmlns:xlink="http://www.w3.org/1999/xlink" xmlns:svgjs="http://svgjs.com/svgjs" viewBox="0.006 0 30.987 31" fill="#b7b284" x="458" y="1188"><svg xmlns="http://www.w3.org/2000/svg" xmlns:xlink="http://www.w3.org/1999/xlink" width="31" height="31" viewBox="1.073 1.452 29.375 29.388"><path paint-order="stroke fill markers" fill-rule="evenodd" d="M5.974 9.977c0-3.145.904-6.066 2.475-8.525C4.02 4.292 1.073 9.225 1.073 14.87c0 8.814 7.145 15.97 15.97 15.97 5.636 0 10.567-2.947 13.406-7.366a15.923 15.923 0 0 1-8.517 2.465c-8.812 0-15.958-7.148-15.958-15.96z"/></svg></svg><svg width="27" height="28" xmlns="http://www.w3.org/2000/svg" xmlns:xlink="http://www.w3.org/1999/xlink" xmlns:svgjs="http://svgjs.com/svgjs" viewBox="0.614 0 25.771 28" fill="#b7b284" x="411" y="1255"><svg xmlns="http://www.w3.org/2000/svg" xmlns:xlink="http://www.w3.org/1999/xlink" width="27" height="28" viewBox="1.392 1.596 25.324 27.514"><path paint-order="stroke fill markers" fill-rule="evenodd" d="M11.637 2.106c1.122-.3 2.292-.51 3.512-.51-1.22 0-2.39.21-3.512.51zm-6.023 9.032c0-2.705.782-5.226 2.141-7.352-3.821 2.444-6.363 6.7-6.363 11.564 0 7.603 6.157 13.76 13.757 13.76 4.87 0 9.123-2.538 11.567-6.351a13.698 13.698 0 0 1-7.351 2.132c-7.595 0-13.751-6.16-13.751-13.753z"/></svg></svg><svg width="25" height="25" xmlns="http://www.w3.org/2000/svg" xmlns:xlink="http://www.w3.org/1999/xlink" xmlns:svgjs="http://svgjs.com/svgjs" viewBox="0.004 0 24.993 25" fill="#b7b284" x="330" y="1238"><svg xmlns="http://www.w3.org/2000/svg" xmlns:xlink="http://www.w3.org/1999/xlink" width="25" height="25" viewBox="1.853 1.82 23.055 23.062"><path paint-order="stroke fill markers" fill-rule="evenodd" d="M5.693 8.51c0-2.462.716-4.757 1.94-6.69-3.469 2.23-5.78 6.096-5.78 10.527 0 6.924 5.599 12.535 12.526 12.535 4.428 0 8.298-2.31 10.53-5.783a12.522 12.522 0 0 1-6.69 1.94c-6.928 0-12.526-5.602-12.526-12.528z"/></svg></svg><svg width="42" height="41" xmlns="http://www.w3.org/2000/svg" xmlns:xlink="http://www.w3.org/1999/xlink" xmlns:svgjs="http://svgjs.com/svgjs" viewBox="0.497 0 41.006 41" fill="#b7b284" x="295" y="1158"><svg xmlns="http://www.w3.org/2000/svg" xmlns:xlink="http://www.w3.org/1999/xlink" width="42" height="41" viewBox="1.903 1.09 39.372 39.366"><path paint-order="stroke fill markers" fill-rule="evenodd" d="M8.46 12.503c0-4.198 1.226-8.107 3.306-11.413C5.84 4.897 1.903 11.505 1.903 19.066c0 11.816 9.578 21.39 21.394 21.39 7.57 0 14.175-3.948 17.978-9.871a21.222 21.222 0 0 1-11.416 3.314c-11.827 0-21.398-9.57-21.398-21.396z"/></svg></svg><svg width="151" height="172" xmlns="http://www.w3.org/2000/svg" xmlns:xlink="http://www.w3.org/1999/xlink" xmlns:svgjs="http://svgjs.com/svgjs" viewBox="0.053 0 150.895 172" fill="#fff" x="233" y="1135"><svg xmlns="http://www.w3.org/2000/svg" xmlns:xlink="http://www.w3.org/1999/xlink" width="151" height="172" viewBox="1.619 1.799 148.725 169.527"><path paint-order="stroke fill markers" fill-rule="evenodd" d="M149.522 1.8C118.32 1.8 91.91 22.155 82.74 50.29c-17.548 3.901-31.85 16.287-38.41 32.664-23.72.807-42.711 20.232-42.711 44.146 0 23.88 18.924 43.275 42.586 44.15v.077h106.14V1.839c-.276-.009-.544-.04-.823-.04z"/></svg></svg><svg width="120" height="172" xmlns="http://www.w3.org/2000/svg" xmlns:xlink="http://www.w3.org/1999/xlink" xmlns:svgjs="http://svgjs.com/svgjs" viewBox="0 0.245 120 171.51" fill="#f2f4f9" x="382" y="1135"><svg xmlns="http://www.w3.org/2000/svg" xmlns:xlink="http://www.w3.org/1999/xlink" width="120" height="172" viewBox="1.344 1.839 118.585 169.488"><path paint-order="stroke fill markers" fill-rule="evenodd" d="M70.206 63.441C65.982 28.982 36.852 2.245 1.344 1.84v169.488h66.904v-.124c28.748-1.25 51.681-24.879 51.681-53.93 0-28.39-21.902-51.622-49.723-53.832z"/></svg></svg><svg width="72" height="63" xmlns="http://www.w3.org/2000/svg" xmlns:xlink="http://www.w3.org/1999/xlink" xmlns:svgjs="http://svgjs.com/svgjs" viewBox="0.392 0 71.216 63" fill="#00e1ff" x="257" y="1271"><svg xmlns="http://www.w3.org/2000/svg" xmlns:xlink="http://www.w3.org/1999/xlink" width="72" height="63" viewBox="3.921 1.268 69.39 61.385"><path paint-order="stroke fill markers" fill-rule="evenodd" d="M70.488 1.423L27.774 12.9l-3.625.971a29.207 29.207 0 0 0-11.597 7.115c-11.507 11.506-11.51 30.16 0 41.667L73.31 1.892c-.598-.59-1.586-.797-2.823-.469z"/></svg></svg><svg width="63" height="72" xmlns="http://www.w3.org/2000/svg" xmlns:xlink="http://www.w3.org/1999/xlink" xmlns:svgjs="http://svgjs.com/svgjs" viewBox="0 0.396 63 71.209" fill="#00c6f4" x="266" y="1271"><svg xmlns="http://www.w3.org/2000/svg" xmlns:xlink="http://www.w3.org/1999/xlink" width="63" height="72" viewBox="1.552 1.893 61.384 69.382"><path paint-order="stroke fill markers" fill-rule="evenodd" d="M50.331 51.073l.978-3.655L62.778 4.711c.33-1.225.127-2.22-.467-2.818l-60.76 60.76c11.501 11.497 30.159 11.497 41.666 0a29.375 29.375 0 0 0 7.114-11.58z"/></svg></svg><svg width="43" height="35" xmlns="http://www.w3.org/2000/svg" xmlns:xlink="http://www.w3.org/1999/xlink" xmlns:svgjs="http://svgjs.com/svgjs" viewBox="0 0.047 43 34.907" fill="#d0d5d8" x="319" y="1272"><svg xmlns="http://www.w3.org/2000/svg" xmlns:xlink="http://www.w3.org/1999/xlink" width="43" height="35" viewBox="1.556 1.893 41.186 33.434"><path paint-order="stroke fill markers" fill-rule="evenodd" d="M9.778 4.71L1.556 35.328h41.186L9.31 1.893c.594.598.798 1.593.467 2.818z"/></svg></svg><svg width="21" height="25" xmlns="http://www.w3.org/2000/svg" xmlns:xlink="http://www.w3.org/1999/xlink" xmlns:svgjs="http://svgjs.com/svgjs" viewBox="0 0.103 21 24.795" fill="#d0d5d8" x="458" y="1280"><svg xmlns="http://www.w3.org/2000/svg" xmlns:xlink="http://www.w3.org/1999/xlink" width="21" height="25" viewBox="1.228 1.737 19.725 23.29"><path paint-order="stroke fill markers" fill-rule="evenodd" d="M6.73 4.56L1.227 25.027a53.994 53.994 0 0 0 19.725-8.592L6.256 1.737c.594.595.804 1.583.473 2.824z"/></svg></svg><svg width="72" height="63" xmlns="http://www.w3.org/2000/svg" xmlns:xlink="http://www.w3.org/1999/xlink" xmlns:svgjs="http://svgjs.com/svgjs" viewBox="0.394 0 71.212 63" fill="#00e1ff" x="393" y="1280"><svg xmlns="http://www.w3.org/2000/svg" xmlns:xlink="http://www.w3.org/1999/xlink" width="72" height="63" viewBox="4.868 2.108 69.389 61.387"><path paint-order="stroke fill markers" fill-rule="evenodd" d="M71.438 2.267L28.725 13.74l-3.625.973a29.33 29.33 0 0 0-11.603 7.115c-11.506 11.507-11.506 30.162 0 41.668l60.76-60.76c-.592-.593-1.577-.803-2.819-.469z"/></svg></svg><svg width="63" height="72" xmlns="http://www.w3.org/2000/svg" xmlns:xlink="http://www.w3.org/1999/xlink" xmlns:svgjs="http://svgjs.com/svgjs" viewBox="0 0.395 63 71.21" fill="#00c6f4" x="402" y="1280"><svg xmlns="http://www.w3.org/2000/svg" xmlns:xlink="http://www.w3.org/1999/xlink" width="63" height="72" viewBox="1.497 1.737 61.389 69.389"><path paint-order="stroke fill markers" fill-rule="evenodd" d="M50.282 50.92l.972-3.66 11.475-42.7c.331-1.24.121-2.228-.473-2.823L1.497 62.496c11.51 11.507 30.167 11.507 41.67 0a29.343 29.343 0 0 0 7.115-11.576z"/></svg></svg><svg width="82" height="112" xmlns="http://www.w3.org/2000/svg" xmlns:xlink="http://www.w3.org/1999/xlink" xmlns:svgjs="http://svgjs.com/svgjs" viewBox="0 0.261 82 111.478" fill="#ffda24" x="321" y="1305"><svg xmlns="http://www.w3.org/2000/svg" xmlns:xlink="http://www.w3.org/1999/xlink" width="82" height="112" viewBox="1.96 1.327 81.015 110.14"><path paint-order="stroke fill markers" fill-rule="evenodd" d="M71.654 1.327H23.263L1.96 54.747h34.192l-20.905 56.72L82.976 35.29H49.002L71.654 1.327z"/></svg></svg><svg width="50" height="31" xmlns="http://www.w3.org/2000/svg" xmlns:xlink="http://www.w3.org/1999/xlink" xmlns:svgjs="http://svgjs.com/svgjs" viewBox="0 0.462 50 30.076" fill="#ffa300" x="342" y="1305"><svg xmlns="http://www.w3.org/2000/svg" width="50" height="31" viewBox="1.217 1.327 48.437 29.136"><path paint-order="stroke fill markers" fill-rule="evenodd" d="M49.654 1.327H1.263l-.046.124 29.009 29.012L49.654 1.327z"/></svg></svg></svg>