<svg width="285" height="307" xmlns="http://www.w3.org/2000/svg" xmlns:xlink="http://www.w3.org/1999/xlink" xmlns:svgjs="http://svgjs.com/svgjs" viewBox="1366 2062 285 307"><svg width="195" height="195" xmlns="http://www.w3.org/2000/svg" xmlns:xlink="http://www.w3.org/1999/xlink" xmlns:svgjs="http://svgjs.com/svgjs" viewBox="0.003 0 194.995 195" fill="#d1d1b0" x="1454" y="2062"><svg xmlns="http://www.w3.org/2000/svg" xmlns:xlink="http://www.w3.org/1999/xlink" width="195" height="195" viewBox="1.105 1.551 193.274 193.279"><path paint-order="stroke fill markers" fill-rule="evenodd" d="M80.248 1.55c-22.562 0-43.575 6.575-61.286 17.869C7.668 37.13 1.105 58.142 1.105 80.706c0 63.033 51.084 114.124 114.13 114.124 22.551 0 43.569-6.568 61.28-17.862 11.29-17.712 17.864-38.724 17.864-61.288 0-63.033-51.096-114.13-114.13-114.13z"/></svg></svg><svg width="212" height="212" xmlns="http://www.w3.org/2000/svg" xmlns:xlink="http://www.w3.org/1999/xlink" xmlns:svgjs="http://svgjs.com/svgjs" viewBox="0 0 211.999 212" fill="#c6c5a3" x="1419" y="2080"><svg xmlns="http://www.w3.org/2000/svg" xmlns:xlink="http://www.w3.org/1999/xlink" width="212" height="212" viewBox="1.119 1.559 210.252 210.253"><path paint-order="stroke fill markers" fill-rule="evenodd" d="M36.105 62.706c0-22.51 6.539-43.472 17.778-61.147C22.191 21.837 1.118 57.259 1.118 97.68c0 63.035 51.103 114.131 114.13 114.131 40.416 0 75.845-21.06 96.122-52.76-17.681 11.24-38.643 17.779-61.135 17.779-63.046 0-114.13-51.09-114.13-114.124z"/></svg></svg><svg width="39" height="38" xmlns="http://www.w3.org/2000/svg" xmlns:xlink="http://www.w3.org/1999/xlink" xmlns:svgjs="http://svgjs.com/svgjs" viewBox="0.498 0 38.005 38" fill="#c1be99" x="1444" y="2141"><svg xmlns="http://www.w3.org/2000/svg" xmlns:xlink="http://www.w3.org/1999/xlink" width="39" height="38" viewBox="1.8 1.209 36.235 36.231"><path paint-order="stroke fill markers" fill-rule="evenodd" d="M16.637 1.209A21.378 21.378 0 0 0 5.149 4.557 21.363 21.363 0 0 0 1.8 16.045c0 11.822 9.572 21.394 21.4 21.394 4.227 0 8.165-1.231 11.482-3.354a21.206 21.206 0 0 0 3.353-11.477c0-11.816-9.583-21.4-21.398-21.4z"/></svg></svg><svg width="53" height="53" xmlns="http://www.w3.org/2000/svg" xmlns:xlink="http://www.w3.org/1999/xlink" xmlns:svgjs="http://svgjs.com/svgjs" fill="#c1be99" x="1517" y="2141"><svg xmlns="http://www.w3.org/2000/svg" xmlns:xlink="http://www.w3.org/1999/xlink" width="53" height="53" viewBox="1.654 1.821 50.781 50.781"><path paint-order="stroke fill markers" fill-rule="evenodd" d="M22.453 1.821a29.771 29.771 0 0 0-16.098 4.7 29.818 29.818 0 0 0-4.701 16.093c0 16.559 13.423 29.988 29.988 29.988 5.927 0 11.44-1.728 16.1-4.689a29.885 29.885 0 0 0 4.693-16.098c0-16.57-13.422-29.994-29.982-29.994z"/></svg></svg><svg width="23" height="23" xmlns="http://www.w3.org/2000/svg" xmlns:xlink="http://www.w3.org/1999/xlink" xmlns:svgjs="http://svgjs.com/svgjs" viewBox="0.001 0 22.999 23" fill="#c1be99" x="1477" y="2223"><svg xmlns="http://www.w3.org/2000/svg" xmlns:xlink="http://www.w3.org/1999/xlink" width="23" height="23" viewBox="1.034 1.361 21.216 21.217"><path paint-order="stroke fill markers" fill-rule="evenodd" d="M9.719 1.361c-2.474 0-4.78.715-6.732 1.965a12.45 12.45 0 0 0-1.953 6.722c0 6.926 5.597 12.53 12.524 12.53 2.476 0 4.78-.722 6.727-1.959a12.447 12.447 0 0 0 1.964-6.731C22.25 6.972 16.64 1.36 9.72 1.36z"/></svg></svg><svg width="28" height="28" xmlns="http://www.w3.org/2000/svg" xmlns:xlink="http://www.w3.org/1999/xlink" xmlns:svgjs="http://svgjs.com/svgjs" viewBox="0 0.004 28 27.992" fill="#c1be99" x="1576" y="2095"><svg xmlns="http://www.w3.org/2000/svg" xmlns:xlink="http://www.w3.org/1999/xlink" width="28" height="28" viewBox="1.145 1.469 26.021 26.015"><path paint-order="stroke fill markers" fill-rule="evenodd" d="M11.808 1.469a15.19 15.19 0 0 0-8.25 2.407 15.183 15.183 0 0 0-2.413 8.25c0 8.48 6.89 15.357 15.364 15.357 3.038 0 5.864-.873 8.256-2.402a15.29 15.29 0 0 0 2.401-8.25c0-8.479-6.867-15.362-15.358-15.362z"/></svg></svg><svg width="17" height="17" xmlns="http://www.w3.org/2000/svg" xmlns:xlink="http://www.w3.org/1999/xlink" xmlns:svgjs="http://svgjs.com/svgjs" viewBox="0.007 0 16.986 17" fill="#c1be99" x="1495" y="2084"><svg xmlns="http://www.w3.org/2000/svg" xmlns:xlink="http://www.w3.org/1999/xlink" width="17" height="17" viewBox="1.424 1.422 14.812 14.825"><path paint-order="stroke fill markers" fill-rule="evenodd" d="M7.49 1.422a8.7 8.7 0 0 0-4.696 1.372 8.715 8.715 0 0 0-1.37 4.694c0 4.841 3.905 8.759 8.746 8.759 1.723 0 3.336-.51 4.697-1.371a8.715 8.715 0 0 0 1.37-4.707c0-4.828-3.92-8.747-8.747-8.747z"/></svg></svg><svg width="29" height="29" xmlns="http://www.w3.org/2000/svg" xmlns:xlink="http://www.w3.org/1999/xlink" xmlns:svgjs="http://svgjs.com/svgjs" viewBox="0 0.001 29 28.999" fill="#c1be99" x="1605" y="2172"><svg xmlns="http://www.w3.org/2000/svg" xmlns:xlink="http://www.w3.org/1999/xlink" width="29" height="29" viewBox="1.314 1.452 27.023 27.022"><path paint-order="stroke fill markers" fill-rule="evenodd" d="M12.384 1.452c-3.166 0-6.108.904-8.576 2.506a15.741 15.741 0 0 0-2.494 8.559c0 8.813 7.145 15.957 15.959 15.957 3.154 0 6.09-.91 8.564-2.486a15.858 15.858 0 0 0 2.5-8.577c0-8.814-7.146-15.959-15.953-15.959z"/></svg></svg><svg width="26" height="25" xmlns="http://www.w3.org/2000/svg" xmlns:xlink="http://www.w3.org/1999/xlink" xmlns:svgjs="http://svgjs.com/svgjs" viewBox="0.496 0 25.007 25" fill="#c1be99" x="1557" y="2240"><svg xmlns="http://www.w3.org/2000/svg" xmlns:xlink="http://www.w3.org/1999/xlink" width="26" height="25" viewBox="1.954 1.139 23.299 23.292"><path paint-order="stroke fill markers" fill-rule="evenodd" d="M11.489 1.139c-2.717 0-5.246.788-7.382 2.146a13.68 13.68 0 0 0-2.153 7.389c0 7.593 6.158 13.757 13.75 13.757 2.718 0 5.253-.789 7.389-2.148a13.677 13.677 0 0 0 2.16-7.394c0-7.594-6.164-13.75-13.764-13.75z"/></svg></svg><svg width="30" height="31" xmlns="http://www.w3.org/2000/svg" xmlns:xlink="http://www.w3.org/1999/xlink" xmlns:svgjs="http://svgjs.com/svgjs" viewBox="0 0.497 30 30.006" fill="#b7b284" x="1571" y="2097"><svg xmlns="http://www.w3.org/2000/svg" xmlns:xlink="http://www.w3.org/1999/xlink" width="30" height="31" viewBox="1.438 1.919 28.278 28.284"><path paint-order="stroke fill markers" fill-rule="evenodd" d="M6.145 10.126c0-3.02.873-5.836 2.383-8.207-4.258 2.735-7.09 7.478-7.09 12.913 0 8.492 6.878 15.371 15.37 15.371 5.435 0 10.178-2.84 12.908-7.099a15.262 15.262 0 0 1-8.207 2.38c-8.474 0-15.364-6.879-15.364-15.358z"/></svg></svg><svg width="18" height="18" xmlns="http://www.w3.org/2000/svg" xmlns:xlink="http://www.w3.org/1999/xlink" xmlns:svgjs="http://svgjs.com/svgjs" viewBox="0.004 0 17.991 18" fill="#b7b284" x="1492" y="2085"><svg xmlns="http://www.w3.org/2000/svg" xmlns:xlink="http://www.w3.org/1999/xlink" width="18" height="18" viewBox="1.738 1.817 16.103 16.11"><path paint-order="stroke fill markers" fill-rule="evenodd" d="M4.424 6.488c0-1.717.497-3.311 1.359-4.67-2.427 1.553-4.045 4.257-4.045 7.35a8.75 8.75 0 0 0 8.752 8.76c3.086 0 5.786-1.62 7.35-4.04a8.754 8.754 0 0 1-4.67 1.359c-4.84 0-8.746-3.918-8.746-8.759z"/></svg></svg><svg width="57" height="57" xmlns="http://www.w3.org/2000/svg" xmlns:xlink="http://www.w3.org/1999/xlink" xmlns:svgjs="http://svgjs.com/svgjs" viewBox="0.003 0 56.994 57" fill="#b7b284" x="1508" y="2146"><svg xmlns="http://www.w3.org/2000/svg" xmlns:xlink="http://www.w3.org/1999/xlink" width="57" height="57" viewBox="1.464 1.547 55.234 55.24"><path paint-order="stroke fill markers" fill-rule="evenodd" d="M10.654 17.614c0-5.915 1.73-11.42 4.676-16.067C7.003 6.877 1.464 16.188 1.464 26.815c0 16.548 13.424 29.972 29.99 29.972 10.614 0 19.924-5.533 25.245-13.86a29.802 29.802 0 0 1-16.057 4.675c-16.565 0-29.988-13.43-29.988-29.988z"/></svg></svg><svg width="31" height="31" xmlns="http://www.w3.org/2000/svg" xmlns:xlink="http://www.w3.org/1999/xlink" xmlns:svgjs="http://svgjs.com/svgjs" viewBox="0.003 0 30.995 31" fill="#b7b284" x="1600" y="2175"><svg xmlns="http://www.w3.org/2000/svg" xmlns:xlink="http://www.w3.org/1999/xlink" width="31" height="31" viewBox="1.413 1.995 29.376 29.381"><path paint-order="stroke fill markers" fill-rule="evenodd" d="M6.314 10.517c0-3.149.903-6.066 2.475-8.522-4.428 2.838-7.376 7.768-7.376 13.416 0 8.808 7.146 15.965 15.971 15.965 5.635 0 10.565-2.947 13.405-7.364a15.95 15.95 0 0 1-8.516 2.462c-8.814 0-15.96-7.144-15.96-15.957z"/></svg></svg><svg width="27" height="27" xmlns="http://www.w3.org/2000/svg" xmlns:xlink="http://www.w3.org/1999/xlink" xmlns:svgjs="http://svgjs.com/svgjs" viewBox="1.074 0 24.851 27" fill="#b7b284" x="1553" y="2242"><svg xmlns="http://www.w3.org/2000/svg" xmlns:xlink="http://www.w3.org/1999/xlink" width="27" height="27" viewBox="1.733 1.139 25.324 27.514"><path paint-order="stroke fill markers" fill-rule="evenodd" d="M11.978 1.647c1.121-.301 2.292-.508 3.51-.508-1.218 0-2.389.207-3.51.508zm-6.024 9.027c0-2.705.783-5.223 2.141-7.352-3.82 2.451-6.362 6.702-6.362 11.567 0 7.6 6.155 13.763 13.756 13.763 4.872 0 9.123-2.542 11.568-6.357a13.7 13.7 0 0 1-7.353 2.136c-7.592 0-13.75-6.164-13.75-13.757z"/></svg></svg><svg width="25" height="25" xmlns="http://www.w3.org/2000/svg" xmlns:xlink="http://www.w3.org/1999/xlink" xmlns:svgjs="http://svgjs.com/svgjs" viewBox="0.004 0 24.993 25" fill="#b7b284" x="1473" y="2225"><svg xmlns="http://www.w3.org/2000/svg" xmlns:xlink="http://www.w3.org/1999/xlink" width="25" height="25" viewBox="1.195 1.362 23.055 23.061"><path paint-order="stroke fill markers" fill-rule="evenodd" d="M5.034 8.048c0-2.463.714-4.756 1.94-6.686-3.47 2.227-5.78 6.091-5.78 10.526 0 6.92 5.598 12.536 12.525 12.536 4.428 0 8.298-2.317 10.53-5.786a12.496 12.496 0 0 1-6.691 1.94c-6.927 0-12.524-5.604-12.524-12.53z"/></svg></svg><svg width="41" height="41" xmlns="http://www.w3.org/2000/svg" xmlns:xlink="http://www.w3.org/1999/xlink" xmlns:svgjs="http://svgjs.com/svgjs" viewBox="0 0.003 41 40.994" fill="#b7b284" x="1438" y="2144"><svg xmlns="http://www.w3.org/2000/svg" xmlns:xlink="http://www.w3.org/1999/xlink" width="41" height="41" viewBox="1.243 1.63 39.372 39.366"><path paint-order="stroke fill markers" fill-rule="evenodd" d="M7.8 13.045c0-4.197 1.226-8.11 3.307-11.415C5.18 5.44 1.243 12.044 1.243 19.608c0 11.817 9.579 21.388 21.394 21.388 7.57 0 14.174-3.95 17.979-9.876A21.219 21.219 0 0 1 29.2 34.44c-11.828 0-21.4-9.573-21.4-21.395z"/></svg></svg><svg width="160" height="182" xmlns="http://www.w3.org/2000/svg" xmlns:xlink="http://www.w3.org/1999/xlink" xmlns:svgjs="http://svgjs.com/svgjs" viewBox="0.167 0 159.667 182" fill="#fff" x="1366" y="2123"><svg xmlns="http://www.w3.org/2000/svg" xmlns:xlink="http://www.w3.org/1999/xlink" width="160" height="182" viewBox="1.299 1.6 157.738 179.802"><path paint-order="stroke fill markers" fill-rule="evenodd" d="M158.168 1.6c-33.094 0-61.105 21.587-70.832 51.43-18.608 4.137-33.779 17.276-40.735 34.64-25.157.857-45.302 21.462-45.302 46.822 0 25.33 20.075 45.898 45.17 46.826v.084h112.568V1.643c-.29-.012-.575-.043-.869-.043z"/></svg></svg><svg width="127" height="182" xmlns="http://www.w3.org/2000/svg" xmlns:xlink="http://www.w3.org/1999/xlink" xmlns:svgjs="http://svgjs.com/svgjs" viewBox="0 0.244 127 181.511" fill="#f2f4f9" x="1524" y="2123"><svg xmlns="http://www.w3.org/2000/svg" xmlns:xlink="http://www.w3.org/1999/xlink" width="127" height="182" viewBox="1.037 1.643 125.774 179.759"><path paint-order="stroke fill markers" fill-rule="evenodd" d="M74.077 66.974c-4.483-36.544-35.381-64.9-73.04-65.33v179.758h70.96v-.133c30.492-1.322 54.815-26.385 54.815-57.198 0-30.11-23.232-54.749-52.735-57.097z"/></svg></svg><svg width="87" height="97" xmlns="http://www.w3.org/2000/svg" xmlns:xlink="http://www.w3.org/1999/xlink" xmlns:svgjs="http://svgjs.com/svgjs" viewBox="0 0.159 87 96.682" fill="#00e1ff" x="1387" y="2260"><svg xmlns="http://www.w3.org/2000/svg" xmlns:xlink="http://www.w3.org/1999/xlink" width="87" height="97" viewBox="1.166 1.174 85.431 94.939"><path paint-order="stroke fill markers" fill-rule="evenodd" d="M86.12 68.508l-10.903-6.296 9.486-2.542a.957.957 0 0 0 .68-1.17l-1.532-5.714a.961.961 0 0 0-1.174-.68l-17.05 4.575-13.915-8.038 13.915-8.037 17.05 4.573a.961.961 0 0 0 1.174-.679l1.532-5.713a.97.97 0 0 0-.68-1.178l-9.486-2.536 10.902-6.296a.96.96 0 0 0 .349-1.31l-2.956-5.118a.953.953 0 0 0-1.308-.352l-10.902 6.289 2.544-9.48a.96.96 0 0 0-.679-1.176l-5.712-1.53a.955.955 0 0 0-1.176.674l-4.572 17.057-13.91 8.031V26.527l12.48-12.483a.949.949 0 0 0 0-1.352l-4.18-4.186a.965.965 0 0 0-1.354 0l-6.946 6.952V2.132a.962.962 0 0 0-.96-.958H40.92a.962.962 0 0 0-.958.958v13.326L33.02 8.506a.964.964 0 0 0-1.354 0l-4.181 4.186a.958.958 0 0 0 0 1.352l12.48 12.483v15.335L26.69 34.194l-4.569-17.05a.96.96 0 0 0-1.176-.68L15.234 18a.955.955 0 0 0-.68 1.17l2.545 9.486-11.54-6.659a.952.952 0 0 0-1.307.352l-2.96 5.118a.963.963 0 0 0 .353 1.31l11.536 6.66-9.486 2.542a.963.963 0 0 0-.676 1.177l1.527 5.707c.14.51.668.819 1.174.68l17.053-4.567 13.276 7.667-13.276 7.667L5.72 51.736a.958.958 0 0 0-1.171.68l-1.53 5.714a.953.953 0 0 0 .676 1.17l9.49 2.548-11.54 6.66a.961.961 0 0 0-.353 1.31l2.96 5.12a.952.952 0 0 0 1.307.351l11.54-6.66-2.544 9.486a.956.956 0 0 0 .679 1.171l5.71 1.534a.965.965 0 0 0 1.177-.68l4.569-17.05 13.273-7.666v16.068l-12.48 12.483a.96.96 0 0 0 0 1.353l4.182 4.178a.953.953 0 0 0 1.354 0l6.944-6.939v12.586c0 .529.434.96.958.96h5.915c.528 0 .961-.431.961-.96V82.567l6.946 6.939a.954.954 0 0 0 1.355 0l4.179-4.178a.951.951 0 0 0 0-1.353l-12.48-12.483V55.424l13.91 8.037 4.572 17.044a.964.964 0 0 0 1.176.68l5.712-1.529a.964.964 0 0 0 .679-1.177l-2.544-9.486 10.902 6.296a.954.954 0 0 0 1.308-.352l2.956-5.12a.958.958 0 0 0-.349-1.31z"/></svg></svg><svg width="92" height="45" xmlns="http://www.w3.org/2000/svg" xmlns:xlink="http://www.w3.org/1999/xlink" xmlns:svgjs="http://svgjs.com/svgjs" viewBox="0 0.754 92 43.493" fill="#d0d5d8" x="1401" y="2260"><svg xmlns="http://www.w3.org/2000/svg" xmlns:xlink="http://www.w3.org/1999/xlink" width="92" height="45" viewBox="1.653 1.895 89.916 42.508"><path paint-order="stroke fill markers" fill-rule="evenodd" d="M51.845 18.394l-5.368-5.369-.084-.054c.175.358.18.777-.116 1.073l-12.48 12.483v15.335l13.91-8.03 4.138-15.438zM1.653 42.887c3.16.8 6.436 1.31 9.816 1.431v.084h3.237l-5.933-3.426-7.12 1.91zm11.037-8.693l13.273 7.668v-6.746L8.17 17.326l4.52 16.868zm21.107-18.736l6.73-6.732L33.7 1.895c.025.084.097.145.097.237v13.326zM91.57 44.402L69.512 22.35l2.956 5.118a.96.96 0 0 1-.349 1.31l-10.902 6.296 9.486 2.536a.97.97 0 0 1 .68 1.178l-1.504 5.615h21.69zM65.347 23.646l-5.67-5.671-.044.011c.183.226.295.51.213.82l-2.544 9.48 8.045-4.64zM45.052 44.402h20.742l-14.167-3.796-6.575 3.796z"/></svg></svg><svg width="88" height="97" xmlns="http://www.w3.org/2000/svg" xmlns:xlink="http://www.w3.org/1999/xlink" xmlns:svgjs="http://svgjs.com/svgjs" viewBox="0.357 0 87.287 97" fill="#00e1ff" x="1532" y="2260"><svg xmlns="http://www.w3.org/2000/svg" xmlns:xlink="http://www.w3.org/1999/xlink" width="88" height="97" viewBox="1.613 1.174 85.432 94.939"><path paint-order="stroke fill markers" fill-rule="evenodd" d="M86.567 68.508l-10.904-6.296 9.489-2.542a.955.955 0 0 0 .677-1.17l-1.53-5.714a.962.962 0 0 0-1.175-.68l-17.049 4.575-13.916-8.038 13.916-8.037 17.05 4.573a.963.963 0 0 0 1.173-.679l1.531-5.713a.968.968 0 0 0-.677-1.178l-9.489-2.536 10.904-6.296a.96.96 0 0 0 .35-1.31l-2.958-5.118a.954.954 0 0 0-1.307-.352l-10.904 6.289 2.544-9.48a.959.959 0 0 0-.678-1.176l-5.71-1.53a.954.954 0 0 0-1.177.674l-4.571 17.057-13.912 8.031V26.527l12.48-12.483a.95.95 0 0 0 0-1.352l-4.179-4.186a.967.967 0 0 0-1.356 0l-6.945 6.952V2.132a.962.962 0 0 0-.961-.958h-5.914a.962.962 0 0 0-.958.958v13.326l-6.946-6.952a.961.961 0 0 0-1.351 0l-4.184 4.186a.956.956 0 0 0 0 1.352l12.481 12.483v15.335l-13.275-7.668-4.567-17.05a.962.962 0 0 0-1.177-.68L15.681 18a.956.956 0 0 0-.679 1.17l2.544 9.486-11.539-6.659a.953.953 0 0 0-1.308.352l-2.96 5.118a.964.964 0 0 0 .352 1.31l11.536 6.66-9.486 2.542a.964.964 0 0 0-.677 1.177l1.53 5.707a.96.96 0 0 0 1.173.68l17.054-4.567 13.274 7.667-13.274 7.667-17.054-4.574a.956.956 0 0 0-1.17.68L3.464 58.13a.954.954 0 0 0 .677 1.17l9.49 2.548-11.54 6.66a.962.962 0 0 0-.351 1.31l2.96 5.12a.953.953 0 0 0 1.307.351l11.54-6.66-2.545 9.486a.957.957 0 0 0 .679 1.171l5.711 1.534a.967.967 0 0 0 1.177-.68l4.567-17.05 13.275-7.666v16.068L27.93 83.975a.958.958 0 0 0 0 1.353l4.184 4.178a.951.951 0 0 0 1.351 0l6.946-6.939v12.586c0 .529.434.96.958.96h5.914c.528 0 .961-.431.961-.96V82.567l6.945 6.939a.957.957 0 0 0 1.356 0l4.179-4.178a.953.953 0 0 0 0-1.353l-12.48-12.483V55.424l13.912 8.037 4.57 17.044a.963.963 0 0 0 1.178.68l5.71-1.529a.963.963 0 0 0 .678-1.177l-2.544-9.486 10.904 6.296a.954.954 0 0 0 1.307-.352l2.957-5.12a.958.958 0 0 0-.35-1.31z"/></svg></svg><svg width="87" height="45" xmlns="http://www.w3.org/2000/svg" xmlns:xlink="http://www.w3.org/1999/xlink" xmlns:svgjs="http://svgjs.com/svgjs" viewBox="0 0.652 87 43.696" fill="#d0d5d8" x="1541" y="2260"><svg xmlns="http://www.w3.org/2000/svg" xmlns:xlink="http://www.w3.org/1999/xlink" width="87" height="45" viewBox="1.434 1.895 84.635 42.508"><path paint-order="stroke fill markers" fill-rule="evenodd" d="M50.5 44.402h4.497v-.133c1.785-.079 3.551-.254 5.292-.49a61.573 61.573 0 0 0 4.992-.924c.036-.005.073-.011.103-.017l-8.309-2.232-6.576 3.796zm20.294-20.756l-5.67-5.671-.044.011c.185.232.294.51.212.82l-2.544 9.48 8.046-4.64zm-13.502-5.252l-5.367-5.369-.086-.054c.09.176.14.34.112.528a.769.769 0 0 1-.227.545l-12.48 12.483v15.335l13.912-8.03 4.136-15.438zM1.434 44.402h18.719l-5.932-3.426-12.787 3.426zM74.959 22.35l2.957 5.118a.96.96 0 0 1-.35 1.31l-10.903 6.296 9.489 2.536a.968.968 0 0 1 .677 1.178l-.035.133a57.023 57.023 0 0 0 4.776-2.525c.01 0 .015-.011.027-.011a59.011 59.011 0 0 0 4.472-2.929l-11.11-11.106zm-35.715-6.891l6.73-6.732-6.827-6.831c.025.084.097.145.097.237v13.326zM18.136 34.194l13.275 7.668v-6.746l-17.794-17.79 4.519 16.868z"/></svg></svg><svg width="77" height="15" xmlns="http://www.w3.org/2000/svg" xmlns:xlink="http://www.w3.org/1999/xlink" xmlns:svgjs="http://svgjs.com/svgjs" viewBox="0 0.581 77 13.838" fill="#00e1ff" x="1465" y="2354"><svg xmlns="http://www.w3.org/2000/svg" width="77" height="15" viewBox="1.745 1.239 74.689 13.423"><path paint-order="stroke fill markers" fill-rule="evenodd" d="M76.434 11.446a3.227 3.227 0 0 1-3.227 3.216H4.967a3.227 3.227 0 0 1-3.222-3.216V4.46c0-1.77 1.453-3.22 3.221-3.22h68.241a3.232 3.232 0 0 1 3.227 3.22v6.987z"/></svg></svg></svg>