<svg width="286" height="241" xmlns="http://www.w3.org/2000/svg" xmlns:xlink="http://www.w3.org/1999/xlink" xmlns:svgjs="http://svgjs.com/svgjs" viewBox="796 179 286 241"><svg width="160" height="182" xmlns="http://www.w3.org/2000/svg" xmlns:xlink="http://www.w3.org/1999/xlink" xmlns:svgjs="http://svgjs.com/svgjs" viewBox="0.167 0 159.666 182" fill="#fff" x="796" y="179"><svg xmlns="http://www.w3.org/2000/svg" xmlns:xlink="http://www.w3.org/1999/xlink" width="160" height="182" viewBox="1.943 1.346 157.738 179.802"><path paint-order="stroke fill markers" fill-rule="evenodd" d="M158.811 1.346c-33.093 0-61.105 21.587-70.83 51.43-18.61 4.137-33.78 17.274-40.737 34.64-25.157.855-45.3 21.46-45.3 46.82 0 25.33 20.073 45.899 45.17 46.827v.084H159.68V1.387c-.29-.011-.575-.041-.87-.041z"/></svg></svg><svg width="128" height="182" xmlns="http://www.w3.org/2000/svg" xmlns:xlink="http://www.w3.org/1999/xlink" xmlns:svgjs="http://svgjs.com/svgjs" viewBox="0.329 0 127.341 182" fill="#f2f4f9" x="954" y="179"><svg xmlns="http://www.w3.org/2000/svg" xmlns:xlink="http://www.w3.org/1999/xlink" width="128" height="182" viewBox="1.681 1.388 125.774 179.76"><path paint-order="stroke fill markers" fill-rule="evenodd" d="M74.72 66.72C70.24 30.177 39.34 1.819 1.682 1.389v179.76h70.96v-.134c30.491-1.322 54.814-26.385 54.814-57.198 0-30.109-23.231-54.748-52.734-57.095z"/></svg></svg><svg width="76" height="67" xmlns="http://www.w3.org/2000/svg" xmlns:xlink="http://www.w3.org/1999/xlink" xmlns:svgjs="http://svgjs.com/svgjs" viewBox="0.131 0 75.737 67" fill="#00e1ff" x="822" y="323"><svg xmlns="http://www.w3.org/2000/svg" xmlns:xlink="http://www.w3.org/1999/xlink" width="76" height="67" viewBox="4.718 2.024 73.595 65.105"><path paint-order="stroke fill markers" fill-rule="evenodd" d="M75.32 2.191L30.015 14.36l-3.842 1.03a30.987 30.987 0 0 0-12.302 7.546c-12.203 12.205-12.206 31.99 0 44.194l64.442-64.44c-.634-.63-1.68-.85-2.993-.498z"/></svg></svg><svg width="67" height="76" xmlns="http://www.w3.org/2000/svg" xmlns:xlink="http://www.w3.org/1999/xlink" xmlns:svgjs="http://svgjs.com/svgjs" viewBox="0 0.138 67 75.724" fill="#00c6f4" x="831" y="323"><svg xmlns="http://www.w3.org/2000/svg" xmlns:xlink="http://www.w3.org/1999/xlink" width="67" height="76" viewBox="1.871 1.689 65.106 73.584"><path paint-order="stroke fill markers" fill-rule="evenodd" d="M53.608 53.847l1.035-3.876L66.81 4.67c.352-1.296.134-2.351-.497-2.982L1.87 66.129c12.198 12.192 31.988 12.192 44.192 0a31.12 31.12 0 0 0 7.545-12.282z"/></svg></svg><svg width="76" height="67" xmlns="http://www.w3.org/2000/svg" xmlns:xlink="http://www.w3.org/1999/xlink" xmlns:svgjs="http://svgjs.com/svgjs" viewBox="0.132 0 75.736 67" fill="#00e1ff" x="966" y="332"><svg xmlns="http://www.w3.org/2000/svg" xmlns:xlink="http://www.w3.org/1999/xlink" width="76" height="67" viewBox="4.907 1.401 73.594 65.106"><path paint-order="stroke fill markers" fill-rule="evenodd" d="M75.51 1.568L30.207 13.736l-3.845 1.031a31.075 31.075 0 0 0-12.301 7.546c-12.204 12.204-12.204 31.99 0 44.194L78.5 2.066c-.63-.63-1.674-.848-2.99-.498z"/></svg></svg><svg width="67" height="75" xmlns="http://www.w3.org/2000/svg" xmlns:xlink="http://www.w3.org/1999/xlink" xmlns:svgjs="http://svgjs.com/svgjs" viewBox="0.325 0 66.35 75" fill="#00c6f4" x="976" y="333"><svg xmlns="http://www.w3.org/2000/svg" xmlns:xlink="http://www.w3.org/1999/xlink" width="67" height="75" viewBox="1.06 1.066 65.106 73.594"><path paint-order="stroke fill markers" fill-rule="evenodd" d="M52.8 53.23l1.03-3.882L65.998 4.062c.352-1.316.134-2.365-.497-2.996L1.06 65.506c12.204 12.205 31.99 12.205 44.194 0 3.567-3.565 6.06-7.787 7.546-12.276z"/></svg></svg><svg width="46" height="42" xmlns="http://www.w3.org/2000/svg" xmlns:xlink="http://www.w3.org/1999/xlink" xmlns:svgjs="http://svgjs.com/svgjs" viewBox="0 0.653 46 40.694" fill="#00e1ff" x="897" y="373"><svg xmlns="http://www.w3.org/2000/svg" xmlns:xlink="http://www.w3.org/1999/xlink" width="46" height="42" viewBox="3.351 1.824 44.666 39.514"><path paint-order="stroke fill markers" fill-rule="evenodd" d="M46.203 1.924L18.708 9.306l-2.339.625a18.848 18.848 0 0 0-7.466 4.585c-7.403 7.406-7.403 19.41 0 26.822l39.114-39.11c-.382-.39-1.02-.51-1.814-.304z"/></svg></svg><svg width="42" height="46" xmlns="http://www.w3.org/2000/svg" xmlns:xlink="http://www.w3.org/1999/xlink" xmlns:svgjs="http://svgjs.com/svgjs" viewBox="0.65 0 40.7 46" fill="#00c6f4" x="902" y="374"><svg xmlns="http://www.w3.org/2000/svg" xmlns:xlink="http://www.w3.org/1999/xlink" width="42" height="46" viewBox="1.903 1.227 39.515 44.661"><path paint-order="stroke fill markers" fill-rule="evenodd" d="M33.307 32.877l.628-2.347 7.382-27.496c.212-.787.082-1.43-.3-1.807L1.903 40.338c7.406 7.4 19.416 7.4 26.822 0a18.908 18.908 0 0 0 4.582-7.46z"/></svg></svg><svg width="45" height="38" xmlns="http://www.w3.org/2000/svg" xmlns:xlink="http://www.w3.org/1999/xlink" xmlns:svgjs="http://svgjs.com/svgjs" viewBox="0 0.735 45 36.529" fill="#d0d5d8" x="888" y="323"><svg xmlns="http://www.w3.org/2000/svg" xmlns:xlink="http://www.w3.org/1999/xlink" width="45" height="38" viewBox="1.088 1.689 43.681 35.459"><path paint-order="stroke fill markers" fill-rule="evenodd" d="M9.81 4.672L1.088 37.147h43.68L9.314 1.69c.63.63.849 1.686.497 2.983z"/></svg></svg><svg width="23" height="26" xmlns="http://www.w3.org/2000/svg" xmlns:xlink="http://www.w3.org/1999/xlink" xmlns:svgjs="http://svgjs.com/svgjs" viewBox="0.489 0 22.023 26" fill="#d0d5d8" x="1035" y="333"><svg xmlns="http://www.w3.org/2000/svg" width="23" height="26" viewBox="1.163 1.066 20.92 24.699"><path paint-order="stroke fill markers" fill-rule="evenodd" d="M6.998 4.062L1.163 25.765a57.15 57.15 0 0 0 20.92-9.11L6.501 1.064c.63.632.849 1.681.497 2.997z"/></svg></svg></svg>