<svg width="285" height="246" xmlns="http://www.w3.org/2000/svg" xmlns:xlink="http://www.w3.org/1999/xlink" xmlns:svgjs="http://svgjs.com/svgjs" viewBox="805 2100 285 246"><svg width="159" height="182" xmlns="http://www.w3.org/2000/svg" xmlns:xlink="http://www.w3.org/1999/xlink" xmlns:svgjs="http://svgjs.com/svgjs" viewBox="0 0.379 159 181.242" fill="#fff" x="805" y="2100"><svg xmlns="http://www.w3.org/2000/svg" xmlns:xlink="http://www.w3.org/1999/xlink" width="159" height="182" viewBox="1.223 1.823 157.738 179.804"><path paint-order="stroke fill markers" fill-rule="evenodd" d="M158.091 1.823c-33.094 0-61.105 21.588-70.83 51.43-18.61 4.139-33.78 17.276-40.737 34.642-25.157.855-45.301 21.46-45.301 46.82 0 25.33 20.073 45.898 45.17 46.827v.085h112.568V1.867c-.29-.013-.576-.044-.87-.044z"/></svg></svg><svg width="128" height="182" xmlns="http://www.w3.org/2000/svg" xmlns:xlink="http://www.w3.org/1999/xlink" xmlns:svgjs="http://svgjs.com/svgjs" viewBox="0.33 0 127.34 182" fill="#f2f4f9" x="962" y="2100"><svg xmlns="http://www.w3.org/2000/svg" xmlns:xlink="http://www.w3.org/1999/xlink" width="128" height="182" viewBox="1.961 1.866 125.773 179.761"><path paint-order="stroke fill markers" fill-rule="evenodd" d="M75 67.2C70.518 30.653 39.62 2.297 1.961 1.866v179.76H72.92v-.133c30.492-1.323 54.816-26.385 54.816-57.2 0-30.109-23.232-54.746-52.735-57.093z"/></svg></svg><svg width="87" height="97" xmlns="http://www.w3.org/2000/svg" xmlns:xlink="http://www.w3.org/1999/xlink" xmlns:svgjs="http://svgjs.com/svgjs" viewBox="0 0.16 87 96.68" fill="#00e1ff" x="826" y="2237"><svg xmlns="http://www.w3.org/2000/svg" xmlns:xlink="http://www.w3.org/1999/xlink" width="87" height="97" viewBox="2.089 1.397 85.432 94.938"><path paint-order="stroke fill markers" fill-rule="evenodd" d="M87.043 68.73L76.14 62.435l9.487-2.542a.956.956 0 0 0 .678-1.17l-1.53-5.713a.964.964 0 0 0-1.174-.68l-17.05 4.573-13.915-8.037L66.55 40.83l17.05 4.574a.962.962 0 0 0 1.174-.679l1.531-5.714a.969.969 0 0 0-.678-1.177l-9.487-2.534L87.043 29a.958.958 0 0 0 .349-1.309l-2.957-5.12a.954.954 0 0 0-1.308-.352l-10.902 6.29 2.544-9.48a.962.962 0 0 0-.68-1.177l-5.71-1.53a.954.954 0 0 0-1.176.674l-4.571 17.057-13.911 8.03V26.752L61.2 14.269a.952.952 0 0 0 0-1.354L57.02 8.73a.966.966 0 0 0-1.356 0l-6.944 6.95V2.355a.963.963 0 0 0-.962-.958h-5.914a.962.962 0 0 0-.959.958v13.326l-6.945-6.95a.963.963 0 0 0-1.352 0l-4.183 4.184a.959.959 0 0 0 0 1.354l12.48 12.482v15.334l-13.274-7.667-4.567-17.05a.961.961 0 0 0-1.177-.68l-5.711 1.536a.956.956 0 0 0-.68 1.17l2.545 9.486-11.54-6.66a.952.952 0 0 0-1.306.352l-2.96 5.12a.962.962 0 0 0 .351 1.309l11.537 6.66-9.486 2.542a.964.964 0 0 0-.676 1.177l1.528 5.708a.96.96 0 0 0 1.173.679l17.054-4.568 13.274 7.667-13.274 7.667L6.643 51.96a.96.96 0 0 0-1.17.68l-1.531 5.713a.955.955 0 0 0 .676 1.171l9.489 2.548-11.54 6.66a.963.963 0 0 0-.352 1.31l2.96 5.12a.952.952 0 0 0 1.307.352l11.54-6.66-2.544 9.486a.958.958 0 0 0 .679 1.172l5.711 1.533a.965.965 0 0 0 1.177-.679l4.567-17.05 13.274-7.667v16.068l-12.48 12.483a.956.956 0 0 0 0 1.352l4.183 4.18a.952.952 0 0 0 1.352 0l6.945-6.94v12.587c0 .526.434.957.959.957h5.914c.528 0 .962-.43.962-.957V82.79l6.944 6.94a.956.956 0 0 0 1.356 0l4.18-4.18a.95.95 0 0 0 0-1.352L48.72 71.716V55.648l13.91 8.038 4.572 17.043a.962.962 0 0 0 1.176.68l5.71-1.528a.966.966 0 0 0 .68-1.179l-2.544-9.486 10.902 6.297a.954.954 0 0 0 1.308-.352l2.957-5.12a.959.959 0 0 0-.35-1.31z"/></svg></svg><svg width="92" height="44" xmlns="http://www.w3.org/2000/svg" xmlns:xlink="http://www.w3.org/1999/xlink" xmlns:svgjs="http://svgjs.com/svgjs" viewBox="0 0.253 92 43.493" fill="#d0d5d8" x="840" y="2238"><svg xmlns="http://www.w3.org/2000/svg" xmlns:xlink="http://www.w3.org/1999/xlink" width="92" height="44" viewBox="1.576 1.119 89.916 42.508"><path paint-order="stroke fill markers" fill-rule="evenodd" d="M51.769 17.618L46.4 12.25l-.085-.055c.176.357.182.776-.115 1.074L33.72 25.75v15.334l13.91-8.031 4.138-15.436zM1.576 42.11c3.16.802 6.435 1.312 9.817 1.433v.085h3.236l-5.932-3.428-7.121 1.91zm11.036-8.691l13.274 7.667V34.34L8.094 16.549l4.518 16.869zM33.721 14.68l6.729-6.732-6.827-6.83c.025.085.098.145.098.236v13.326zm57.771 28.946L69.435 21.572l2.957 5.12a.958.958 0 0 1-.35 1.309L61.14 34.299l9.487 2.534c.509.145.815.668.678 1.177l-1.503 5.617h21.69zM65.271 22.87l-5.672-5.67-.042.01c.182.225.294.51.212.82l-2.544 9.48 8.046-4.64zM44.975 43.627h20.741L51.55 39.829l-6.575 3.798z"/></svg></svg><svg width="87" height="97" xmlns="http://www.w3.org/2000/svg" xmlns:xlink="http://www.w3.org/1999/xlink" xmlns:svgjs="http://svgjs.com/svgjs" viewBox="0 0.16 87 96.681" fill="#00e1ff" x="971" y="2237"><svg xmlns="http://www.w3.org/2000/svg" xmlns:xlink="http://www.w3.org/1999/xlink" width="87" height="97" viewBox="1.536 1.397 85.431 94.938"><path paint-order="stroke fill markers" fill-rule="evenodd" d="M86.49 68.73l-10.903-6.295 9.487-2.542a.956.956 0 0 0 .679-1.17L84.22 53.01a.965.965 0 0 0-1.174-.68l-17.05 4.573-13.914-8.037 13.914-8.037 17.05 4.574a.963.963 0 0 0 1.174-.679l1.532-5.714a.97.97 0 0 0-.68-1.177l-9.486-2.534L86.49 29a.958.958 0 0 0 .349-1.309l-2.957-5.12a.953.953 0 0 0-1.307-.352l-10.904 6.29 2.545-9.48a.96.96 0 0 0-.679-1.177l-5.711-1.53a.955.955 0 0 0-1.177.674l-4.57 17.057-13.911 8.03V26.752l12.48-12.482a.953.953 0 0 0 0-1.354l-4.18-4.184a.967.967 0 0 0-1.355 0l-6.945 6.95V2.355a.963.963 0 0 0-.962-.958h-5.914a.962.962 0 0 0-.958.958v13.326l-6.945-6.95a.963.963 0 0 0-1.353 0l-4.183 4.184a.959.959 0 0 0 0 1.354l12.48 12.482v15.334L27.06 34.418l-4.567-17.05a.962.962 0 0 0-1.177-.68l-5.711 1.536a.957.957 0 0 0-.68 1.17l2.546 9.486-11.54-6.66a.953.953 0 0 0-1.308.352l-2.96 5.12a.961.961 0 0 0 .352 1.309l11.537 6.66-9.487 2.542a.965.965 0 0 0-.676 1.177l1.529 5.708a.96.96 0 0 0 1.173.679l17.054-4.568 13.274 7.667-13.274 7.667L6.09 51.96a.958.958 0 0 0-1.17.68l-1.532 5.713a.956.956 0 0 0 .676 1.171l9.49 2.548-11.54 6.66a.962.962 0 0 0-.352 1.31l2.96 5.12a.952.952 0 0 0 1.307.352l11.541-6.66-2.545 9.486a.959.959 0 0 0 .679 1.172l5.711 1.533a.965.965 0 0 0 1.177-.679l4.567-17.05 13.275-7.667v16.068l-12.48 12.483a.956.956 0 0 0 0 1.352l4.182 4.18a.953.953 0 0 0 1.353 0l6.945-6.94v12.587c0 .526.433.957.958.957h5.914c.528 0 .962-.43.962-.957V82.79l6.945 6.94a.956.956 0 0 0 1.355 0l4.18-4.18a.95.95 0 0 0 0-1.352l-12.48-12.483V55.648l13.91 8.038 4.571 17.043a.962.962 0 0 0 1.177.68l5.711-1.528a.965.965 0 0 0 .68-1.179l-2.546-9.486 10.904 6.297a.952.952 0 0 0 1.307-.352l2.957-5.12a.959.959 0 0 0-.35-1.31z"/></svg></svg><svg width="86" height="44" xmlns="http://www.w3.org/2000/svg" xmlns:xlink="http://www.w3.org/1999/xlink" xmlns:svgjs="http://svgjs.com/svgjs" viewBox="0 0.403 86 43.194" fill="#d0d5d8" x="980" y="2238"><svg xmlns="http://www.w3.org/2000/svg" xmlns:xlink="http://www.w3.org/1999/xlink" width="86" height="44" viewBox="1.357 1.119 84.633 42.508"><path paint-order="stroke fill markers" fill-rule="evenodd" d="M50.422 43.627h4.497v-.134a57.58 57.58 0 0 0 5.293-.492 60.763 60.763 0 0 0 4.992-.921c.037-.007.073-.013.103-.02l-8.31-2.231-6.575 3.798zM70.717 22.87l-5.67-5.67-.043.01c.185.231.294.51.212.82l-2.545 9.48 8.046-4.64zm-13.501-5.252l-5.368-5.368-.085-.055c.087.175.14.34.112.528a.778.778 0 0 1-.227.546L39.168 25.75v15.334l13.91-8.031 4.138-15.436zM1.357 43.627h18.719l-5.932-3.428-12.787 3.428zm73.525-22.055l2.957 5.12a.958.958 0 0 1-.35 1.309l-10.902 6.298 9.487 2.534a.97.97 0 0 1 .679 1.177l-.036.133a56.872 56.872 0 0 0 4.776-2.523c.01 0 .015-.012.027-.012a58.738 58.738 0 0 0 4.47-2.93L74.883 21.572zm-35.714-6.891l6.73-6.732-6.828-6.83c.025.085.098.145.098.236v13.326zm-21.11 18.737l13.276 7.667V34.34L13.54 16.549l4.519 16.869z"/></svg></svg><svg width="77" height="15" xmlns="http://www.w3.org/2000/svg" xmlns:xlink="http://www.w3.org/1999/xlink" xmlns:svgjs="http://svgjs.com/svgjs" viewBox="0 0.58 77 13.839" fill="#00e1ff" x="904" y="2331"><svg xmlns="http://www.w3.org/2000/svg" width="77" height="15" viewBox="1.668 1.462 74.688 13.424"><path paint-order="stroke fill markers" fill-rule="evenodd" d="M76.357 11.67a3.227 3.227 0 0 1-3.228 3.216H4.89a3.227 3.227 0 0 1-3.22-3.215V4.684a3.233 3.233 0 0 1 3.22-3.222h68.24a3.233 3.233 0 0 1 3.228 3.222v6.987z"/></svg></svg></svg>