<svg width="286" height="259" xmlns="http://www.w3.org/2000/svg" xmlns:xlink="http://www.w3.org/1999/xlink" xmlns:svgjs="http://svgjs.com/svgjs" viewBox="796 1104 286 259"><svg width="160" height="182" xmlns="http://www.w3.org/2000/svg" xmlns:xlink="http://www.w3.org/1999/xlink" xmlns:svgjs="http://svgjs.com/svgjs" viewBox="0.167 0 159.666 182" fill="#fff" x="796" y="1104"><svg xmlns="http://www.w3.org/2000/svg" xmlns:xlink="http://www.w3.org/1999/xlink" width="160" height="182" viewBox="1.943 1.81 157.738 179.802"><path paint-order="stroke fill markers" fill-rule="evenodd" d="M158.811 1.81c-33.093 0-61.105 21.587-70.83 51.43-18.61 4.137-33.78 17.275-40.737 34.64-25.157.856-45.3 21.461-45.3 46.821 0 25.33 20.073 45.898 45.17 46.827v.084H159.68V1.852c-.29-.012-.575-.042-.87-.042z"/></svg></svg><svg width="128" height="182" xmlns="http://www.w3.org/2000/svg" xmlns:xlink="http://www.w3.org/1999/xlink" xmlns:svgjs="http://svgjs.com/svgjs" viewBox="0.329 0 127.341 182" fill="#f2f4f9" x="954" y="1104"><svg xmlns="http://www.w3.org/2000/svg" xmlns:xlink="http://www.w3.org/1999/xlink" width="128" height="182" viewBox="1.681 1.852 125.774 179.76"><path paint-order="stroke fill markers" fill-rule="evenodd" d="M74.72 67.185C70.24 30.64 39.34 2.283 1.682 1.852v179.76h70.96v-.133c30.491-1.322 54.814-26.385 54.814-57.198 0-30.11-23.231-54.749-52.734-57.096z"/></svg></svg><svg width="45" height="51" xmlns="http://www.w3.org/2000/svg" xmlns:xlink="http://www.w3.org/1999/xlink" xmlns:svgjs="http://svgjs.com/svgjs" viewBox="0 0.495 45 50.009" fill="#00e1ff" x="909" y="1312"><svg xmlns="http://www.w3.org/2000/svg" xmlns:xlink="http://www.w3.org/1999/xlink" width="45" height="51" viewBox="2.027 1.815 43.506 48.349"><path paint-order="stroke fill markers" fill-rule="evenodd" d="M45.29 36.107L39.738 32.9l4.829-1.296c.26-.069.418-.339.348-.6l-.78-2.905a.489.489 0 0 0-.6-.345l-8.68 2.325-7.087-4.09 7.087-4.096 8.68 2.33a.49.49 0 0 0 .6-.346l.78-2.908a.495.495 0 0 0-.348-.6l-4.829-1.292 5.55-3.206a.49.49 0 0 0 .179-.667l-1.508-2.609a.488.488 0 0 0-.664-.175l-5.553 3.202 1.299-4.828a.497.497 0 0 0-.346-.6l-2.912-.777a.485.485 0 0 0-.597.343l-2.326 8.686-7.085 4.088v-7.81l6.354-6.357a.486.486 0 0 0 0-.688L30 5.551a.484.484 0 0 0-.688 0l-3.536 3.536V2.303a.493.493 0 0 0-.492-.488h-3.01a.491.491 0 0 0-.489.488v6.784L18.249 5.55a.484.484 0 0 0-.69 0l-2.131 2.13a.49.49 0 0 0 0 .687l6.357 6.358v7.81l-6.76-3.905-2.327-8.682a.49.49 0 0 0-.6-.346l-2.905.78a.49.49 0 0 0-.346.597l1.295 4.831-5.877-3.39a.489.489 0 0 0-.665.175l-1.51 2.609a.494.494 0 0 0 .181.667l5.875 3.394-4.831 1.294a.492.492 0 0 0-.346.598l.78 2.908a.49.49 0 0 0 .597.346l8.686-2.33 6.76 3.907-6.76 3.906-8.686-2.329a.482.482 0 0 0-.594.346L2.97 30.82a.491.491 0 0 0 .346.597l4.834 1.296-5.878 3.394a.49.49 0 0 0-.182.664l1.51 2.608a.486.486 0 0 0 .666.179l5.877-3.39-1.295 4.828a.49.49 0 0 0 .346.6l2.905.78a.49.49 0 0 0 .6-.346l2.327-8.683 6.76-3.903v8.182l-6.357 6.357a.49.49 0 0 0 0 .688l2.132 2.13a.486.486 0 0 0 .689 0l3.536-3.537v6.412c0 .266.22.488.488.488h3.011c.27 0 .492-.222.492-.488v-6.412l3.536 3.537a.485.485 0 0 0 .688 0l2.13-2.13c.19-.19.19-.5 0-.688l-6.354-6.357v-8.182l7.085 4.091 2.326 8.68a.49.49 0 0 0 .597.348l2.912-.779a.495.495 0 0 0 .346-.6l-1.299-4.829 5.553 3.203c.231.133.53.055.664-.18l1.508-2.607a.486.486 0 0 0-.179-.664z"/></svg></svg><svg width="88" height="97" xmlns="http://www.w3.org/2000/svg" xmlns:xlink="http://www.w3.org/1999/xlink" xmlns:svgjs="http://svgjs.com/svgjs" viewBox="0.356 0 87.287 97" fill="#00e1ff" x="817" y="1241"><svg xmlns="http://www.w3.org/2000/svg" xmlns:xlink="http://www.w3.org/1999/xlink" width="88" height="97" viewBox="1.809 1.384 85.432 94.938"><path paint-order="stroke fill markers" fill-rule="evenodd" d="M86.763 68.718L75.86 62.424l9.486-2.544a.96.96 0 0 0 .68-1.174l-1.532-5.71a.96.96 0 0 0-1.173-.68l-17.051 4.57-13.915-8.034 13.915-8.037 17.05 4.572a.957.957 0 0 0 1.174-.677l1.532-5.714a.967.967 0 0 0-.68-1.177l-9.486-2.538 10.902-6.293a.96.96 0 0 0 .35-1.31l-2.958-5.123a.957.957 0 0 0-1.307-.348l-10.903 6.29 2.545-9.483a.96.96 0 0 0-.68-1.175l-5.711-1.528a.955.955 0 0 0-1.176.673L62.352 34.04 48.44 42.07V26.737l12.48-12.483a.952.952 0 0 0 0-1.352L56.742 8.72a.961.961 0 0 0-1.356 0l-6.945 6.945V2.342a.963.963 0 0 0-.961-.958h-5.915a.962.962 0 0 0-.958.958v13.323L33.662 8.72a.958.958 0 0 0-1.353 0l-4.182 4.182a.957.957 0 0 0 0 1.352l12.48 12.483v15.334l-13.275-7.667-4.567-17.05a.956.956 0 0 0-1.176-.676l-5.712 1.531a.957.957 0 0 0-.679 1.17l2.545 9.488-11.54-6.66a.956.956 0 0 0-1.307.348l-2.96 5.123a.963.963 0 0 0 .351 1.31l11.537 6.66-9.486 2.541a.964.964 0 0 0-.676 1.177l1.528 5.711a.968.968 0 0 0 1.174.68l17.053-4.571 13.275 7.666-13.275 7.668-17.053-4.574a.96.96 0 0 0-1.171.679l-1.531 5.714a.955.955 0 0 0 .676 1.171l9.49 2.545-11.54 6.663a.959.959 0 0 0-.352 1.307l2.96 5.122a.958.958 0 0 0 1.307.352l11.54-6.66-2.545 9.483a.959.959 0 0 0 .68 1.173l5.71 1.536a.965.965 0 0 0 1.177-.68l4.567-17.05 13.275-7.667v16.068l-12.48 12.483a.958.958 0 0 0 0 1.352l4.182 4.183a.953.953 0 0 0 1.353 0l6.945-6.946v12.59c0 .524.433.958.958.958h5.915c.527 0 .96-.434.96-.958v-12.59l6.946 6.946a.956.956 0 0 0 1.356 0l4.18-4.183a.953.953 0 0 0 0-1.352L48.44 71.702V55.634l13.91 8.037 4.572 17.044a.964.964 0 0 0 1.176.683l5.71-1.532a.96.96 0 0 0 .68-1.174l-2.544-9.487L82.848 75.5a.959.959 0 0 0 1.307-.352l2.957-5.122a.955.955 0 0 0-.35-1.307z"/></svg></svg><svg width="92" height="44" xmlns="http://www.w3.org/2000/svg" xmlns:xlink="http://www.w3.org/1999/xlink" xmlns:svgjs="http://svgjs.com/svgjs" viewBox="0 0.256 92 43.489" fill="#d0d5d8" x="832" y="1242"><svg xmlns="http://www.w3.org/2000/svg" xmlns:xlink="http://www.w3.org/1999/xlink" width="92" height="44" viewBox="1.296 1.108 89.916 42.504"><path paint-order="stroke fill markers" fill-rule="evenodd" d="M51.49 17.603l-5.37-5.368-.084-.054c.176.358.182.78-.115 1.073l-12.48 12.483v15.334l13.91-8.031 4.138-15.437zM1.295 42.093c3.16.804 6.436 1.31 9.818 1.435v.084h3.235l-5.932-3.426-7.12 1.908zm11.036-8.689l13.275 7.667v-6.745L7.814 16.533l4.518 16.871zm21.109-18.739l6.73-6.73-6.827-6.827c.024.082.097.143.097.234v13.323zm57.772 28.947L69.155 21.555l2.957 5.123a.96.96 0 0 1-.35 1.31l-10.901 6.293 9.486 2.538c.51.143.816.667.68 1.177l-1.505 5.616h21.69zM64.99 22.856l-5.67-5.672-.044.014c.182.226.295.509.213.816l-2.545 9.483 8.046-4.64zM44.696 43.612h20.74l-14.165-3.797-6.575 3.797z"/></svg></svg><svg width="87" height="97" xmlns="http://www.w3.org/2000/svg" xmlns:xlink="http://www.w3.org/1999/xlink" xmlns:svgjs="http://svgjs.com/svgjs" viewBox="0 0.16 87 96.681" fill="#00e1ff" x="963" y="1241"><svg xmlns="http://www.w3.org/2000/svg" xmlns:xlink="http://www.w3.org/1999/xlink" width="87" height="97" viewBox="1.256 1.384 85.432 94.938"><path paint-order="stroke fill markers" fill-rule="evenodd" d="M86.21 68.718l-10.903-6.294 9.487-2.544a.96.96 0 0 0 .68-1.174l-1.532-5.71a.96.96 0 0 0-1.174-.68l-17.05 4.57-13.915-8.034 13.915-8.037 17.05 4.572a.956.956 0 0 0 1.174-.677l1.531-5.714a.968.968 0 0 0-.68-1.177l-9.486-2.538 10.903-6.293a.96.96 0 0 0 .35-1.31l-2.958-5.123a.957.957 0 0 0-1.307-.348l-10.903 6.29 2.545-9.483a.96.96 0 0 0-.68-1.175l-5.71-1.528a.956.956 0 0 0-1.178.673L61.8 34.04 47.888 42.07V26.737l12.48-12.483a.952.952 0 0 0 0-1.352l-4.18-4.182a.961.961 0 0 0-1.355 0l-6.945 6.945V2.342a.963.963 0 0 0-.961-.958h-5.914a.962.962 0 0 0-.959.958v13.323L33.109 8.72a.958.958 0 0 0-1.353 0l-4.182 4.182a.96.96 0 0 0 0 1.352l12.48 12.483v15.334L26.78 34.404l-4.568-17.05a.957.957 0 0 0-1.176-.676l-5.711 1.531a.956.956 0 0 0-.68 1.17l2.545 9.488-11.54-6.66a.956.956 0 0 0-1.307.348l-2.96 5.123a.964.964 0 0 0 .352 1.31l11.537 6.66-9.487 2.541a.964.964 0 0 0-.676 1.177l1.528 5.711a.967.967 0 0 0 1.173.68l17.054-4.571 13.275 7.666-13.275 7.668L5.81 51.946a.96.96 0 0 0-1.17.679l-1.531 5.714a.956.956 0 0 0 .676 1.171l9.49 2.545-11.54 6.663a.959.959 0 0 0-.352 1.307l2.96 5.122a.958.958 0 0 0 1.307.352l11.54-6.66-2.545 9.483a.958.958 0 0 0 .68 1.173l5.71 1.536a.965.965 0 0 0 1.177-.68l4.568-17.05 13.274-7.667v16.068l-12.48 12.483a.96.96 0 0 0 0 1.352l4.182 4.183a.953.953 0 0 0 1.353 0l6.945-6.946v12.59c0 .524.434.958.959.958h5.914a.965.965 0 0 0 .961-.958v-12.59l6.945 6.946a.956.956 0 0 0 1.356 0l4.179-4.183a.953.953 0 0 0 0-1.352l-12.48-12.483V55.634l13.911 8.037 4.57 17.044a.965.965 0 0 0 1.177.683l5.712-1.532a.961.961 0 0 0 .679-1.174l-2.545-9.487L82.295 75.5a.96.96 0 0 0 1.307-.352l2.957-5.122a.955.955 0 0 0-.35-1.307z"/></svg></svg><svg width="86" height="44" xmlns="http://www.w3.org/2000/svg" xmlns:xlink="http://www.w3.org/1999/xlink" xmlns:svgjs="http://svgjs.com/svgjs" viewBox="0 0.405 86 43.19" fill="#d0d5d8" x="972" y="1242"><svg xmlns="http://www.w3.org/2000/svg" width="86" height="44" viewBox="1.077 1.108 84.634 42.504"><path paint-order="stroke fill markers" fill-rule="evenodd" d="M50.142 43.612h4.499v-.133a57.355 57.355 0 0 0 5.291-.491 60.024 60.024 0 0 0 4.993-.922c.036-.009.072-.012.103-.021l-8.31-2.23-6.576 3.797zm20.296-20.756l-5.671-5.672-.043.014c.185.23.294.509.213.816l-2.545 9.483 8.046-4.64zm-13.502-5.253l-5.368-5.368-.085-.054c.088.176.14.34.112.528a.772.772 0 0 1-.227.545l-12.48 12.483v15.334l13.911-8.031 4.137-15.437zM1.077 43.613h18.72l-5.933-3.427-12.787 3.426zm73.525-22.058l2.957 5.123a.96.96 0 0 1-.35 1.31l-10.902 6.293 9.487 2.538c.51.143.816.667.68 1.177l-.037.13a56.662 56.662 0 0 0 4.777-2.517c.009-.006.015-.012.027-.014a59.056 59.056 0 0 0 4.47-2.931l-11.109-11.11zm-35.714-6.89l6.73-6.73-6.828-6.827c.025.082.098.143.098.234v13.323zM17.78 33.405l13.274 7.666v-6.745L13.261 16.533l4.519 16.871z"/></svg></svg></svg>