<svg width="285" height="233" xmlns="http://www.w3.org/2000/svg" xmlns:xlink="http://www.w3.org/1999/xlink" xmlns:svgjs="http://svgjs.com/svgjs" viewBox="1979 1130 285 233"><svg width="159" height="181" xmlns="http://www.w3.org/2000/svg" xmlns:xlink="http://www.w3.org/1999/xlink" xmlns:svgjs="http://svgjs.com/svgjs" viewBox="0.107 0 158.787 181" fill="#fff" x="1979" y="1130"><svg xmlns="http://www.w3.org/2000/svg" xmlns:xlink="http://www.w3.org/1999/xlink" width="159" height="181" viewBox="1.137 1.174 157.736 179.802"><path paint-order="stroke fill markers" fill-rule="evenodd" d="M158.006 1.174c-33.094 0-61.104 21.587-70.836 51.43-18.608 4.137-33.778 17.275-40.735 34.64-25.16.855-45.298 21.46-45.298 46.821 0 25.33 20.071 45.898 45.165 46.826v.085h112.571V1.216c-.29-.012-.577-.042-.867-.042z"/></svg></svg><svg width="128" height="181" xmlns="http://www.w3.org/2000/svg" xmlns:xlink="http://www.w3.org/1999/xlink" xmlns:svgjs="http://svgjs.com/svgjs" viewBox="0.681 0 126.638 181" fill="#f2f4f9" x="2136" y="1130"><svg xmlns="http://www.w3.org/2000/svg" xmlns:xlink="http://www.w3.org/1999/xlink" width="128" height="181" viewBox="1.873 1.216 125.771 179.76"><path paint-order="stroke fill markers" fill-rule="evenodd" d="M74.91 66.549C70.432 30.004 39.532 1.646 1.872 1.216v179.76h70.962v-.133c30.485-1.323 54.809-26.386 54.809-57.2 0-30.108-23.233-54.747-52.735-57.094z"/></svg></svg><svg width="75" height="67" xmlns="http://www.w3.org/2000/svg" xmlns:xlink="http://www.w3.org/1999/xlink" xmlns:svgjs="http://svgjs.com/svgjs" viewBox="0 0.325 75 66.351" fill="#00e1ff" x="2149" y="1283"><svg xmlns="http://www.w3.org/2000/svg" xmlns:xlink="http://www.w3.org/1999/xlink" width="75" height="67" viewBox="4.101 1.229 73.594 65.106"><path paint-order="stroke fill markers" fill-rule="evenodd" d="M74.698 1.396L29.401 13.564l-3.845 1.032a31.04 31.04 0 0 0-12.302 7.545c-12.204 12.204-12.204 31.99 0 44.194l64.44-64.442c-.63-.63-1.673-.848-2.996-.497z"/></svg></svg><svg width="67" height="76" xmlns="http://www.w3.org/2000/svg" xmlns:xlink="http://www.w3.org/1999/xlink" xmlns:svgjs="http://svgjs.com/svgjs" viewBox="0 0.133 67 75.735" fill="#00c6f4" x="2158" y="1283"><svg xmlns="http://www.w3.org/2000/svg" xmlns:xlink="http://www.w3.org/1999/xlink" width="67" height="76" viewBox="1.254 1.893 65.106 73.594"><path paint-order="stroke fill markers" fill-rule="evenodd" d="M52.993 54.058l1.032-3.882L66.193 4.89c.351-1.316.132-2.366-.498-2.998L1.255 66.335c12.203 12.203 31.99 12.203 44.192 0 3.567-3.566 6.055-7.788 7.546-12.277z"/></svg></svg><svg width="23" height="26" xmlns="http://www.w3.org/2000/svg" xmlns:xlink="http://www.w3.org/1999/xlink" xmlns:svgjs="http://svgjs.com/svgjs" viewBox="0.492 0 22.016 26" fill="#d0d5d8" x="2217" y="1284"><svg xmlns="http://www.w3.org/2000/svg" xmlns:xlink="http://www.w3.org/1999/xlink" width="23" height="26" viewBox="1.357 1.893 20.915 24.7"><path paint-order="stroke fill markers" fill-rule="evenodd" d="M7.193 4.89L1.357 26.594c7.643-1.637 14.74-4.767 20.915-9.11L6.695 1.893c.63.632.85 1.682.498 2.998z"/></svg></svg><svg width="87" height="97" xmlns="http://www.w3.org/2000/svg" xmlns:xlink="http://www.w3.org/1999/xlink" xmlns:svgjs="http://svgjs.com/svgjs" viewBox="0 0.159 87 96.683" fill="#00e1ff" x="1999" y="1266"><svg xmlns="http://www.w3.org/2000/svg" xmlns:xlink="http://www.w3.org/1999/xlink" width="87" height="97" viewBox="2.099 1.746 85.431 94.939"><path paint-order="stroke fill markers" fill-rule="evenodd" d="M87.054 69.081l-10.9-6.294 9.487-2.544a.962.962 0 0 0 .679-1.174l-1.535-5.71a.959.959 0 0 0-1.172-.68l-17.055 4.57-13.914-8.033 13.914-8.037 17.055 4.57a.954.954 0 0 0 1.172-.676l1.535-5.714a.97.97 0 0 0-.68-1.177l-9.485-2.538 10.899-6.293a.96.96 0 0 0 .346-1.31l-2.954-5.123a.956.956 0 0 0-1.305-.349L72.236 28.86l2.546-9.484a.962.962 0 0 0-.68-1.174l-5.713-1.528a.955.955 0 0 0-1.176.674l-4.574 17.056-13.908 8.03V27.101l12.477-12.483a.95.95 0 0 0 0-1.353l-4.174-4.182a.963.963 0 0 0-1.357 0l-6.946 6.945V2.705a.962.962 0 0 0-.964-.959H41.86a.96.96 0 0 0-.96.96v13.322l-6.95-6.945a.951.951 0 0 0-1.347 0l-4.186 4.182a.954.954 0 0 0 0 1.353L40.901 27.1v15.333l-13.278-7.667-4.567-17.05a.958.958 0 0 0-1.178-.676l-5.713 1.531a.96.96 0 0 0-.68 1.171l2.548 9.487-11.536-6.66a.961.961 0 0 0-1.311.348l-2.96 5.123a.96.96 0 0 0 .352 1.31l11.536 6.66-9.487 2.542a.97.97 0 0 0-.679 1.176l1.53 5.71a.972.972 0 0 0 1.176.681l17.056-4.571 13.273 7.667-13.273 7.667-17.056-4.574a.96.96 0 0 0-1.17.68l-1.536 5.713a.96.96 0 0 0 .68 1.171l9.486 2.545L2.578 69.08a.956.956 0 0 0-.352 1.307l2.96 5.122a.962.962 0 0 0 1.311.352l11.536-6.66-2.548 9.483a.961.961 0 0 0 .68 1.174l5.713 1.534a.966.966 0 0 0 1.178-.678l4.567-17.051 13.278-7.666v16.067L28.417 84.548a.954.954 0 0 0 0 1.353l4.186 4.182a.946.946 0 0 0 1.347 0l6.95-6.945v12.59c0 .523.43.957.96.957h5.907a.964.964 0 0 0 .964-.958V83.138l6.946 6.945a.958.958 0 0 0 1.357 0l4.174-4.182a.951.951 0 0 0 0-1.353L48.731 72.065V55.998l13.908 8.036 4.574 17.044a.962.962 0 0 0 1.176.683l5.714-1.532a.962.962 0 0 0 .68-1.173l-2.547-9.487 10.905 6.293a.956.956 0 0 0 1.305-.352l2.954-5.122a.956.956 0 0 0-.346-1.307z"/></svg></svg><svg width="92" height="44" xmlns="http://www.w3.org/2000/svg" xmlns:xlink="http://www.w3.org/1999/xlink" xmlns:svgjs="http://svgjs.com/svgjs" viewBox="0 0.255 92 43.49" fill="#d0d5d8" x="2013" y="1267"><svg xmlns="http://www.w3.org/2000/svg" width="92" height="44" viewBox="1.59 1.471 89.916 42.505"><path paint-order="stroke fill markers" fill-rule="evenodd" d="M51.775 17.966l-5.36-5.367-.085-.055c.17.358.18.78-.122 1.074L33.731 26.1v15.333l13.908-8.03 4.136-15.438zM1.59 42.456c3.153.804 6.43 1.31 9.813 1.435v.085h3.24L8.71 40.549l-7.12 1.908zm11.033-8.689l13.278 7.667V34.69L8.104 16.896l4.52 16.871zm21.108-18.739l6.727-6.73-6.824-6.827c.024.083.097.143.097.234v13.323zm57.775 28.948l-22.06-22.058 2.954 5.123a.96.96 0 0 1-.346 1.31l-10.9 6.293 9.487 2.538a.97.97 0 0 1 .679 1.177l-1.504 5.617h21.69zM65.28 23.22l-5.667-5.672-.048.013c.182.227.297.509.218.815l-2.546 9.484 8.043-4.64zM44.984 43.976h20.743l-14.17-3.797-6.573 3.797z"/></svg></svg></svg>