<svg width="270" height="270" xmlns="http://www.w3.org/2000/svg" xmlns:xlink="http://www.w3.org/1999/xlink" xmlns:svgjs="http://svgjs.com/svgjs" viewBox="228 139 270 270"><svg width="220" height="220" xmlns="http://www.w3.org/2000/svg" xmlns:xlink="http://www.w3.org/1999/xlink" xmlns:svgjs="http://svgjs.com/svgjs" viewBox="0 0.003 220 219.994" fill="#ffda24" x="253" y="164"><svg xmlns="http://www.w3.org/2000/svg" xmlns:xlink="http://www.w3.org/1999/xlink" width="220" height="220" viewBox="1.732 1.833 218.004 217.999"><path paint-order="stroke fill markers" fill-rule="evenodd" d="M219.736 110.832c0 60.201-48.804 109-108.999 109-60.2 0-109.005-48.799-109.005-109 0-60.195 48.805-109 109.005-109 60.195 0 108.999 48.805 108.999 109z"/></svg></svg><svg width="270" height="270" xmlns="http://www.w3.org/2000/svg" xmlns:xlink="http://www.w3.org/1999/xlink" xmlns:svgjs="http://svgjs.com/svgjs" fill="#ffda24" x="228" y="139"><svg xmlns="http://www.w3.org/2000/svg" xmlns:xlink="http://www.w3.org/1999/xlink" width="270" height="270" viewBox="1.808 1.904 267.857 267.857"><path paint-order="stroke fill markers" fill-rule="evenodd" d="M45.99 36.175l-9.91 9.91c-5.132 5.132-5.132 13.515 0 18.646l9.65 9.645a109.693 109.693 0 0 1 28.562-28.557l-9.656-9.644c-5.131-5.132-13.52-5.132-18.645 0zm179.494 0c-5.132-5.126-13.527-5.126-18.652 0l-9.65 9.65a109.495 109.495 0 0 1 28.557 28.563l9.65-9.65c5.126-5.132 5.126-13.52 0-18.652l-9.905-9.911zm-82.747-34.27h-14.005c-7.255 0-13.194 5.93-13.194 13.186v13.683c6.551-1.224 13.285-1.941 20.2-1.941 6.902 0 13.634.717 20.186 1.941V15.091c0-7.255-5.933-13.187-13.187-13.187zM14.995 115.634c-7.254 0-13.187 5.944-13.187 13.197v14c0 7.267 5.933 13.2 13.187 13.2h13.684c-1.23-6.558-1.947-13.297-1.947-20.2 0-6.902.716-13.648 1.947-20.198H14.995zm210.744 81.642a109.355 109.355 0 0 1-28.557 28.556l9.65 9.645c5.125 5.131 13.52 5.131 18.652 0l9.905-9.9c5.126-5.13 5.126-13.525 0-18.657l-9.65-9.644zm30.728-81.643h-13.673c1.226 6.55 1.942 13.296 1.942 20.198 0 6.903-.716 13.642-1.942 20.2h13.673c7.26 0 13.198-5.933 13.198-13.2v-14c0-7.253-5.938-13.198-13.198-13.198zM45.723 197.277l-9.644 9.65c-5.131 5.132-5.131 13.52 0 18.652l9.9 9.911c5.137 5.126 13.526 5.126 18.657 0l9.65-9.644a109.837 109.837 0 0 1-28.563-28.57zm69.815 45.613v13.684c0 7.254 5.939 13.187 13.194 13.187h14.005c7.254 0 13.187-5.933 13.187-13.187V242.89c-6.552 1.232-13.284 1.941-20.187 1.941-6.914 0-13.648-.71-20.199-1.94z"/></svg></svg><svg width="231" height="231" xmlns="http://www.w3.org/2000/svg" xmlns:xlink="http://www.w3.org/1999/xlink" xmlns:svgjs="http://svgjs.com/svgjs" viewBox="0 0 231 230.999" fill="#ffa300" x="248" y="159"><svg xmlns="http://www.w3.org/2000/svg" xmlns:xlink="http://www.w3.org/1999/xlink" width="231" height="231" viewBox="1.103 1.199 229.262 229.261"><path paint-order="stroke fill markers" fill-rule="evenodd" d="M95.538 3.085v5.69c6.551-1.225 13.285-1.942 20.2-1.942 6.902 0 13.634.717 20.186 1.941v-5.69C129.36 1.92 122.634 1.2 115.737 1.2c-6.902 0-13.63.72-20.199 1.886zm110.2 51.303l4.022-4.021a115.08 115.08 0 0 0-28.557-28.558l-4.021 4.016a109.495 109.495 0 0 1 28.557 28.563zM2.99 95.634c-1.177 6.575-1.887 13.296-1.887 20.198 0 6.903.71 13.63 1.887 20.2h5.69c-1.232-6.558-1.948-13.297-1.948-20.2 0-6.902.716-13.648 1.947-20.198H2.99zm174.192 110.199l4.027 4.016a115.137 115.137 0 0 0 28.557-28.551l-4.027-4.021a109.355 109.355 0 0 1-28.557 28.556zm51.303-110.199h-5.69c1.225 6.55 1.94 13.296 1.94 20.198 0 6.903-.715 13.642-1.94 20.2h5.69c1.164-6.57 1.88-13.297 1.88-20.2 0-6.902-.716-13.623-1.88-20.198zM95.538 222.89v5.69c6.57 1.164 13.297 1.88 20.2 1.88 6.896 0 13.622-.716 20.186-1.88v-5.69c-6.552 1.232-13.284 1.941-20.187 1.941-6.914 0-13.648-.71-20.199-1.94zm-69.815-45.613l-4.015 4.02a115.113 115.113 0 0 0 28.557 28.564l4.021-4.015a109.837 109.837 0 0 1-28.563-28.57zM21.708 50.36l4.021 4.015a109.693 109.693 0 0 1 28.563-28.557l-4.027-4.015A115.3 115.3 0 0 0 21.708 50.36z"/></svg></svg><svg width="232" height="232" xmlns="http://www.w3.org/2000/svg" xmlns:xlink="http://www.w3.org/1999/xlink" xmlns:svgjs="http://svgjs.com/svgjs" viewBox="0.003 0 231.994 232" fill="#fff" opacity=".2" x="228" y="139"><svg xmlns="http://www.w3.org/2000/svg" width="232" height="232" viewBox="1.808 1.904 229.401 229.407"><path paint-order="stroke fill markers" fill-rule="evenodd" d="M206.832 36.175l-9.65 9.65c-12.192-8.34-26.185-14.223-41.258-17.05V15.09c0-7.255-5.933-13.187-13.187-13.187h-14.005c-7.255 0-13.194 5.932-13.194 13.187v13.683c-15.066 2.828-29.053 8.71-41.246 17.045l-9.656-9.644c-5.131-5.132-13.52-5.132-18.645 0l-9.912 9.91c-5.131 5.132-5.131 13.515 0 18.646l9.65 9.645c-8.34 12.204-14.223 26.185-17.05 41.258H14.995c-7.254 0-13.187 5.945-13.187 13.198v14c0 7.267 5.933 13.2 13.187 13.2h13.684c2.827 15.067 8.71 29.053 17.044 41.245l-9.644 9.65c-5.131 5.132-5.131 13.52 0 18.652l5.727 5.732 189.403-189.41-5.725-5.726c-5.132-5.126-13.527-5.126-18.652 0z"/></svg></svg></svg>