<svg width="141" height="279" xmlns="http://www.w3.org/2000/svg" xmlns:xlink="http://www.w3.org/1999/xlink" xmlns:svgjs="http://svgjs.com/svgjs" viewBox="1457 2539 141 279"><svg width="67" height="168" xmlns="http://www.w3.org/2000/svg" xmlns:xlink="http://www.w3.org/1999/xlink" xmlns:svgjs="http://svgjs.com/svgjs" viewBox="0.59 0 65.82 168" fill="#f2f4f9" x="1484" y="2539"><svg xmlns="http://www.w3.org/2000/svg" xmlns:xlink="http://www.w3.org/1999/xlink" width="67" height="168" viewBox="1.852 1.846 64.962 165.81"><path paint-order="stroke fill markers" fill-rule="evenodd" d="M34.331 158.072c11.98 0 23.105 3.542 32.483 9.577V24.683c0-12.562-10.276-22.837-22.836-22.837h-19.29c-12.56 0-22.836 10.275-22.836 22.837v142.972c9.375-6.04 20.505-9.583 32.48-9.583z"/></svg></svg><svg width="122" height="122" xmlns="http://www.w3.org/2000/svg" xmlns:xlink="http://www.w3.org/1999/xlink" xmlns:svgjs="http://svgjs.com/svgjs" fill="#f2f4f9" x="1457" y="2696"><svg xmlns="http://www.w3.org/2000/svg" xmlns:xlink="http://www.w3.org/1999/xlink" width="122" height="122" viewBox="1.193 1.072 120.279 120.279"><path paint-order="stroke fill markers" fill-rule="evenodd" d="M121.472 61.218c0 33.21-26.924 60.133-60.14 60.133-33.214 0-60.14-26.923-60.14-60.133 0-33.214 26.926-60.146 60.14-60.146 33.216 0 60.14 26.932 60.14 60.146z"/></svg></svg><svg width="95" height="95" xmlns="http://www.w3.org/2000/svg" xmlns:xlink="http://www.w3.org/1999/xlink" xmlns:svgjs="http://svgjs.com/svgjs" viewBox="0 0 94.999 95" fill="#00e1ff" x="1470" y="2709"><svg xmlns="http://www.w3.org/2000/svg" xmlns:xlink="http://www.w3.org/1999/xlink" width="95" height="95" viewBox="1.895 1.779 92.87 92.871"><path paint-order="stroke fill markers" fill-rule="evenodd" d="M94.765 48.218c0 25.645-20.787 46.432-46.434 46.432-25.643 0-46.436-20.787-46.436-46.432 0-25.65 20.793-46.439 46.436-46.439 25.647 0 46.434 20.788 46.434 46.439z"/></svg></svg><svg width="52" height="55" xmlns="http://www.w3.org/2000/svg" xmlns:xlink="http://www.w3.org/1999/xlink" xmlns:svgjs="http://svgjs.com/svgjs" viewBox="0.386 0 51.227 55" fill="#98d24d" x="1492" y="2648"><svg xmlns="http://www.w3.org/2000/svg" xmlns:xlink="http://www.w3.org/1999/xlink" width="52" height="55" viewBox="1.468 1.111 49.727 53.389"><path paint-order="stroke fill markers" fill-rule="evenodd" d="M1.468 1.111V54.5c7.584-3.451 15.984-5.428 24.863-5.428 8.882 0 17.283 1.977 24.864 5.428V1.11H1.468z"/></svg></svg><svg width="52" height="103" xmlns="http://www.w3.org/2000/svg" xmlns:xlink="http://www.w3.org/1999/xlink" xmlns:svgjs="http://svgjs.com/svgjs" viewBox="0.557 0 50.886 103" fill="#d1d1b0" x="1492" y="2547"><svg xmlns="http://www.w3.org/2000/svg" xmlns:xlink="http://www.w3.org/1999/xlink" width="52" height="103" viewBox="1.468 1.458 49.727 100.653"><path paint-order="stroke fill markers" fill-rule="evenodd" d="M51.195 16.683c0-8.376-6.841-15.225-15.217-15.225h-19.29c-8.374 0-15.22 6.849-15.22 15.225v85.428h49.727V16.683z"/></svg></svg><svg width="67" height="20" xmlns="http://www.w3.org/2000/svg" xmlns:xlink="http://www.w3.org/1999/xlink" xmlns:svgjs="http://svgjs.com/svgjs" viewBox="0 0.666 67 18.667" fill="#122c3d" opacity=".2" x="1484" y="2687"><svg xmlns="http://www.w3.org/2000/svg" xmlns:xlink="http://www.w3.org/1999/xlink" width="67" height="20" viewBox="1.852 1.556 64.962 18.099"><path paint-order="stroke fill markers" fill-rule="evenodd" d="M34.331 1.556A68.42 68.42 0 0 0 1.851 9.72v9.935c9.376-6.04 20.506-9.583 32.48-9.583 11.98 0 23.105 3.542 32.483 9.577V9.72A68.424 68.424 0 0 0 34.33 1.557z"/></svg></svg><svg width="35" height="18" xmlns="http://www.w3.org/2000/svg" xmlns:xlink="http://www.w3.org/1999/xlink" xmlns:svgjs="http://svgjs.com/svgjs" viewBox="0 0.901 35 16.197" fill="#00e1ff" x="1563" y="2556"><svg xmlns="http://www.w3.org/2000/svg" xmlns:xlink="http://www.w3.org/1999/xlink" width="35" height="18" viewBox="1.099 1.648 33.578 15.539"><path paint-order="stroke fill markers" fill-rule="evenodd" d="M34.677 15.18a2.01 2.01 0 0 1-2.002 2.007H3.1c-1.104 0-2-.903-2-2.007V3.655c0-1.103.896-2.007 2-2.007h29.576c1.104 0 2.002.904 2.002 2.007V15.18z"/></svg></svg><svg width="21" height="18" xmlns="http://www.w3.org/2000/svg" xmlns:xlink="http://www.w3.org/1999/xlink" xmlns:svgjs="http://svgjs.com/svgjs" viewBox="0 0.436 21 17.128" fill="#00e1ff" x="1563" y="2597"><svg xmlns="http://www.w3.org/2000/svg" xmlns:xlink="http://www.w3.org/1999/xlink" width="21" height="18" viewBox="1.099 1.912 19.045 15.533"><path paint-order="stroke fill markers" fill-rule="evenodd" d="M20.144 15.444c0 1.104-.899 2.001-2.001 2.001H3.099c-1.104 0-2-.897-2-2V3.92c0-1.105.896-2.008 2-2.008h15.044c1.102 0 2 .903 2 2.008v11.524z"/></svg></svg><svg width="21" height="17" xmlns="http://www.w3.org/2000/svg" xmlns:xlink="http://www.w3.org/1999/xlink" xmlns:svgjs="http://svgjs.com/svgjs" viewBox="0.08 0 20.841 17" fill="#00e1ff" x="1563" y="2639"><svg xmlns="http://www.w3.org/2000/svg" xmlns:xlink="http://www.w3.org/1999/xlink" width="21" height="17" viewBox="1.099 1.176 19.045 15.535"><path paint-order="stroke fill markers" fill-rule="evenodd" d="M20.144 14.703a2.01 2.01 0 0 1-2.001 2.008H3.099c-1.104 0-2-.905-2-2.008V3.177c0-1.103.896-2.001 2-2.001h15.044c1.102 0 2 .898 2 2v11.527z"/></svg></svg><svg width="35" height="17" xmlns="http://www.w3.org/2000/svg" xmlns:xlink="http://www.w3.org/1999/xlink" xmlns:svgjs="http://svgjs.com/svgjs" viewBox="0 0.4 35 16.199" fill="#00e1ff" x="1563" y="2680"><svg xmlns="http://www.w3.org/2000/svg" width="35" height="17" viewBox="1.099 1.433 33.578 15.541"><path paint-order="stroke fill markers" fill-rule="evenodd" d="M34.677 14.966a2.01 2.01 0 0 1-2.002 2.009H3.1c-1.104 0-2-.904-2-2.01V3.442c0-1.103.896-2.008 2-2.008h29.576a2.01 2.01 0 0 1 2.002 2.008v11.525z"/></svg></svg></svg>