<svg width="285" height="298" xmlns="http://www.w3.org/2000/svg" xmlns:xlink="http://www.w3.org/1999/xlink" xmlns:svgjs="http://svgjs.com/svgjs" viewBox="219 593 285 298"><svg width="160" height="182" xmlns="http://www.w3.org/2000/svg" xmlns:xlink="http://www.w3.org/1999/xlink" xmlns:svgjs="http://svgjs.com/svgjs" viewBox="0.167 0 159.665 182" fill="#fff" x="219" y="593"><svg xmlns="http://www.w3.org/2000/svg" xmlns:xlink="http://www.w3.org/1999/xlink" width="160" height="182" viewBox="1.304 1.422 157.739 179.804"><path paint-order="stroke fill markers" fill-rule="evenodd" d="M158.172 1.422c-33.093 0-61.105 21.589-70.83 51.431-18.61 4.137-33.78 17.275-40.737 34.64-25.157.856-45.301 21.46-45.301 46.821 0 25.33 20.074 45.898 45.17 46.827v.085h112.569V1.465c-.292-.012-.577-.043-.87-.043z"/></svg></svg><svg width="127" height="182" xmlns="http://www.w3.org/2000/svg" xmlns:xlink="http://www.w3.org/1999/xlink" xmlns:svgjs="http://svgjs.com/svgjs" viewBox="0 0.243 127 181.514" fill="#f2f4f9" x="377" y="593"><svg xmlns="http://www.w3.org/2000/svg" xmlns:xlink="http://www.w3.org/1999/xlink" width="127" height="182" viewBox="1.043 1.465 125.773 179.761"><path paint-order="stroke fill markers" fill-rule="evenodd" d="M74.081 66.798C69.6 30.252 38.701 1.896 1.043 1.465v179.76H72v-.133c30.492-1.323 54.815-26.385 54.815-57.199 0-30.11-23.231-54.748-52.735-57.095z"/></svg></svg><svg width="75" height="67" xmlns="http://www.w3.org/2000/svg" xmlns:xlink="http://www.w3.org/1999/xlink" xmlns:svgjs="http://svgjs.com/svgjs" viewBox="0 0.325 75 66.35" fill="#00e1ff" x="245" y="737"><svg xmlns="http://www.w3.org/2000/svg" xmlns:xlink="http://www.w3.org/1999/xlink" width="75" height="67" viewBox="4.079 2.101 73.595 65.106"><path paint-order="stroke fill markers" fill-rule="evenodd" d="M74.68 2.269L29.376 14.435l-3.842 1.032a30.978 30.978 0 0 0-12.301 7.546c-12.204 12.204-12.207 31.99 0 44.194l64.44-64.442c-.633-.63-1.68-.848-2.993-.496z"/></svg></svg><svg width="67" height="76" xmlns="http://www.w3.org/2000/svg" xmlns:xlink="http://www.w3.org/1999/xlink" xmlns:svgjs="http://svgjs.com/svgjs" viewBox="0 0.137 67 75.726" fill="#00c6f4" x="254" y="737"><svg xmlns="http://www.w3.org/2000/svg" xmlns:xlink="http://www.w3.org/1999/xlink" width="67" height="76" viewBox="1.233 1.765 65.106 73.585"><path paint-order="stroke fill markers" fill-rule="evenodd" d="M52.969 53.924l1.034-3.877L66.17 4.75c.351-1.298.133-2.354-.498-2.985L1.233 66.207c12.198 12.191 31.987 12.191 44.19 0a31.111 31.111 0 0 0 7.546-12.283z"/></svg></svg><svg width="46" height="38" xmlns="http://www.w3.org/2000/svg" xmlns:xlink="http://www.w3.org/1999/xlink" xmlns:svgjs="http://svgjs.com/svgjs" viewBox="0 0.329 46 37.342" fill="#d0d5d8" x="310" y="737"><svg xmlns="http://www.w3.org/2000/svg" xmlns:xlink="http://www.w3.org/1999/xlink" width="46" height="38" viewBox="1.449 1.765 43.682 35.46"><path paint-order="stroke fill markers" fill-rule="evenodd" d="M10.17 4.75L1.45 37.226H45.13L9.673 1.766c.631.63.85 1.686.498 2.984z"/></svg></svg><svg width="23" height="26" xmlns="http://www.w3.org/2000/svg" xmlns:xlink="http://www.w3.org/1999/xlink" xmlns:svgjs="http://svgjs.com/svgjs" viewBox="0.489 0 22.022 26" fill="#d0d5d8" x="457" y="747"><svg xmlns="http://www.w3.org/2000/svg" xmlns:xlink="http://www.w3.org/1999/xlink" width="23" height="26" viewBox="1.524 1.144 20.92 24.699"><path paint-order="stroke fill markers" fill-rule="evenodd" d="M7.36 4.14L1.523 25.842a57.154 57.154 0 0 0 20.92-9.11L6.862 1.143c.631.63.849 1.68.497 2.996z"/></svg></svg><svg width="75" height="67" xmlns="http://www.w3.org/2000/svg" xmlns:xlink="http://www.w3.org/1999/xlink" xmlns:svgjs="http://svgjs.com/svgjs" viewBox="0 0.325 75 66.35" fill="#00e1ff" x="389" y="746"><svg xmlns="http://www.w3.org/2000/svg" xmlns:xlink="http://www.w3.org/1999/xlink" width="75" height="67" viewBox="4.268 1.478 73.594 65.106"><path paint-order="stroke fill markers" fill-rule="evenodd" d="M74.871 1.646L29.568 13.813l-3.846 1.032a31.073 31.073 0 0 0-12.3 7.545c-12.205 12.204-12.205 31.99 0 44.194l64.44-64.44c-.631-.632-1.674-.85-2.99-.498z"/></svg></svg><svg width="67" height="75" xmlns="http://www.w3.org/2000/svg" xmlns:xlink="http://www.w3.org/1999/xlink" xmlns:svgjs="http://svgjs.com/svgjs" viewBox="0.325 0 66.35 75" fill="#00c6f4" x="398" y="747"><svg xmlns="http://www.w3.org/2000/svg" xmlns:xlink="http://www.w3.org/1999/xlink" width="67" height="75" viewBox="1.421 1.144 65.106 73.594"><path paint-order="stroke fill markers" fill-rule="evenodd" d="M53.16 53.307l1.032-3.881L66.359 4.14c.352-1.317.134-2.366-.497-2.996l-64.44 64.44c12.203 12.204 31.989 12.204 44.193 0 3.566-3.566 6.06-7.788 7.545-12.277z"/></svg></svg><svg width="88" height="118" xmlns="http://www.w3.org/2000/svg" xmlns:xlink="http://www.w3.org/1999/xlink" xmlns:svgjs="http://svgjs.com/svgjs" viewBox="0.6 0 86.799 118" fill="#ffda24" x="311" y="773"><svg xmlns="http://www.w3.org/2000/svg" xmlns:xlink="http://www.w3.org/1999/xlink" width="88" height="118" viewBox="1.941 1.226 85.925 116.811"><path paint-order="stroke fill markers" fill-rule="evenodd" d="M75.856 1.226h-51.32L1.94 57.88h36.263l-22.173 60.156 71.835-80.791H51.833l24.023-36.02z"/></svg></svg><svg width="53" height="33" xmlns="http://www.w3.org/2000/svg" xmlns:xlink="http://www.w3.org/1999/xlink" xmlns:svgjs="http://svgjs.com/svgjs" viewBox="0 0.562 53 31.876" fill="#ffa300" x="334" y="773"><svg xmlns="http://www.w3.org/2000/svg" width="53" height="33" viewBox="1.484 1.226 51.372 30.897"><path paint-order="stroke fill markers" fill-rule="evenodd" d="M52.856 1.226H1.536l-.052.13L32.25 32.122 52.856 1.226z"/></svg></svg></svg>