<svg width="254" height="270" xmlns="http://www.w3.org/2000/svg" xmlns:xlink="http://www.w3.org/1999/xlink" xmlns:svgjs="http://svgjs.com/svgjs" viewBox="1971 2541 254 270"><svg width="12" height="229" xmlns="http://www.w3.org/2000/svg" xmlns:xlink="http://www.w3.org/1999/xlink" xmlns:svgjs="http://svgjs.com/svgjs" viewBox="1.019 0 9.961 229" fill="#fff" x="2093" y="2541"><svg xmlns="http://www.w3.org/2000/svg" xmlns:xlink="http://www.w3.org/1999/xlink" width="12" height="229" viewBox="1.455 1.945 9.839 226.18"><path paint-order="stroke fill markers" fill-rule="evenodd" d="M11.294 6.847v-.498h-.098c-.266-2.457-2.28-4.404-4.815-4.404-2.536 0-4.55 1.947-4.828 4.404h-.098V228.125h9.84V6.882 6.87v-.023z"/></svg></svg><svg width="49" height="43" xmlns="http://www.w3.org/2000/svg" xmlns:xlink="http://www.w3.org/1999/xlink" xmlns:svgjs="http://svgjs.com/svgjs" viewBox="0.027 0 48.945 43" fill="#98d24d" x="2056" y="2768"><svg xmlns="http://www.w3.org/2000/svg" xmlns:xlink="http://www.w3.org/1999/xlink" width="49" height="43" viewBox="1.38 1.125 46.914 41.216"><path paint-order="stroke fill markers" fill-rule="evenodd" d="M38.455 1.125v16.923c-.023 8.14-6.272 14.435-13.614 14.46-7.339-.025-13.58-6.32-13.605-14.46-.012-2.725-2.208-4.926-4.925-4.926a4.923 4.923 0 0 0-4.92 4.926H1.38C1.404 31.295 11.71 42.31 24.841 42.34c13.129-.03 23.43-11.046 23.453-24.293V1.125h-9.839z"/></svg></svg><svg width="127" height="111" xmlns="http://www.w3.org/2000/svg" xmlns:xlink="http://www.w3.org/1999/xlink" xmlns:svgjs="http://svgjs.com/svgjs" viewBox="0 0.333 127 110.334" fill="#00c6f4" x="2098" y="2554"><svg xmlns="http://www.w3.org/2000/svg" xmlns:xlink="http://www.w3.org/1999/xlink" width="127" height="111" viewBox="1.859 1.247 125.691 109.197"><path paint-order="stroke fill markers" fill-rule="evenodd" d="M127.55 107.764C120.37 47.866 66.87 1.314 1.859 1.247c56.277 17.59 63.167 108.567 63.205 109.197h.326c2.936-14.709 15.795-25.84 31.36-25.84 14.618 0 26.93 9.785 30.8 23.16z"/></svg></svg><svg width="128" height="111" xmlns="http://www.w3.org/2000/svg" xmlns:xlink="http://www.w3.org/1999/xlink" xmlns:svgjs="http://svgjs.com/svgjs" viewBox="0 0.043 128 110.914" fill="#00e1ff" x="1971" y="2554"><svg xmlns="http://www.w3.org/2000/svg" xmlns:xlink="http://www.w3.org/1999/xlink" width="128" height="111" viewBox="1.685 1.239 126.028 109.205"><path paint-order="stroke fill markers" fill-rule="evenodd" d="M64.483 110.444c.036-.63 6.92-91.627 63.23-109.205-65.62 0-119.531 47.343-126.028 107.974 3.379-14.109 16.038-24.609 31.183-24.609 15.559 0 28.424 11.131 31.347 25.84h.268z"/></svg></svg><svg width="66" height="111" xmlns="http://www.w3.org/2000/svg" xmlns:xlink="http://www.w3.org/1999/xlink" xmlns:svgjs="http://svgjs.com/svgjs" viewBox="0.786 0 64.429 111" fill="#00e1ff" x="2097" y="2554"><svg xmlns="http://www.w3.org/2000/svg" xmlns:xlink="http://www.w3.org/1999/xlink" width="66" height="111" viewBox="1.677 1.239 63.387 109.205"><path paint-order="stroke fill markers" fill-rule="evenodd" d="M1.859 1.247c-.05 0-.097-.008-.146-.008h-.036v109.205H2.1c2.924-14.709 15.783-25.84 31.36-25.84 15.552 0 28.423 11.131 31.348 25.84h.255c-.038-.63-6.928-91.601-63.205-109.197z"/></svg></svg><svg width="65" height="111" xmlns="http://www.w3.org/2000/svg" xmlns:xlink="http://www.w3.org/1999/xlink" xmlns:svgjs="http://svgjs.com/svgjs" viewBox="0.379 0 64.241 111" fill="#00c6f4" x="2034" y="2554"><svg xmlns="http://www.w3.org/2000/svg" xmlns:xlink="http://www.w3.org/1999/xlink" width="65" height="111" viewBox="1.483 1.253 63.194 109.191"><path paint-order="stroke fill markers" fill-rule="evenodd" d="M1.483 110.444h.32c2.93-14.709 15.79-25.84 31.349-25.84 15.57 0 28.431 11.131 31.355 25.84h.17V1.253C8.397 18.843 1.519 109.814 1.483 110.444z"/></svg></svg><svg width="12" height="6" xmlns="http://www.w3.org/2000/svg" xmlns:xlink="http://www.w3.org/1999/xlink" xmlns:svgjs="http://svgjs.com/svgjs" viewBox="0 0.565 12 4.869" fill="#d0d5d8" x="2093" y="2550"><svg xmlns="http://www.w3.org/2000/svg" xmlns:xlink="http://www.w3.org/1999/xlink" width="12" height="6" viewBox="1.455 1.509 9.839 3.992"><path paint-order="stroke fill markers" fill-rule="evenodd" d="M5.871 1.515c-.049 0-.11-.006-.158-.006h-.024c-1.42 0-2.826.054-4.234.097v3.828c1.42-.048 2.803-.195 4.222-.195h.036c.049 0 .097.008.146.008 1.83.006 3.616.175 5.435.254V1.637c-1.796-.06-3.604-.122-5.423-.122z"/></svg></svg><svg width="12" height="31" xmlns="http://www.w3.org/2000/svg" xmlns:xlink="http://www.w3.org/1999/xlink" xmlns:svgjs="http://svgjs.com/svgjs" viewBox="0.795 0 10.411 31" fill="#d0d5d8" x="2093" y="2651"><svg xmlns="http://www.w3.org/2000/svg" width="12" height="31" viewBox="1.455 1.46 9.839 29.297"><path paint-order="stroke fill markers" fill-rule="evenodd" d="M11.294 30.757V1.46C8.83 5.025 6.976 9.036 6.101 13.444h-.594C4.778 9.722 3.361 6.275 1.455 3.157v17.767l9.84 9.833z"/></svg></svg></svg>