<svg width="285" height="251" xmlns="http://www.w3.org/2000/svg" xmlns:xlink="http://www.w3.org/1999/xlink" xmlns:svgjs="http://svgjs.com/svgjs" viewBox="801 1630 285 251"><svg width="159" height="182" xmlns="http://www.w3.org/2000/svg" xmlns:xlink="http://www.w3.org/1999/xlink" xmlns:svgjs="http://svgjs.com/svgjs" viewBox="0 0.38 159 181.24" fill="#fff" x="801" y="1630"><svg xmlns="http://www.w3.org/2000/svg" xmlns:xlink="http://www.w3.org/1999/xlink" width="159" height="182" viewBox="1.085 1.691 157.739 179.803"><path paint-order="stroke fill markers" fill-rule="evenodd" d="M157.954 1.691c-33.093 0-61.105 21.588-70.83 51.43-18.61 4.138-33.78 17.275-40.737 34.642-25.157.855-45.302 21.46-45.302 46.82 0 25.33 20.075 45.898 45.171 46.826v.085h112.568V1.734c-.29-.011-.576-.043-.87-.043z"/></svg></svg><svg width="128" height="182" xmlns="http://www.w3.org/2000/svg" xmlns:xlink="http://www.w3.org/1999/xlink" xmlns:svgjs="http://svgjs.com/svgjs" viewBox="0.33 0 127.341 182" fill="#f2f4f9" x="958" y="1630"><svg xmlns="http://www.w3.org/2000/svg" xmlns:xlink="http://www.w3.org/1999/xlink" width="128" height="182" viewBox="1.824 1.734 125.773 179.76"><path paint-order="stroke fill markers" fill-rule="evenodd" d="M74.864 67.066C70.38 30.52 39.484 2.164 1.824 1.734v179.76h70.959v-.134c30.492-1.322 54.815-26.385 54.815-57.197 0-30.111-23.231-54.748-52.734-57.097z"/></svg></svg><svg width="112" height="15" xmlns="http://www.w3.org/2000/svg" xmlns:xlink="http://www.w3.org/1999/xlink" xmlns:svgjs="http://svgjs.com/svgjs" viewBox="0 0.686 112 13.628" fill="#00e1ff" x="835" y="1765"><svg xmlns="http://www.w3.org/2000/svg" xmlns:xlink="http://www.w3.org/1999/xlink" width="112" height="15" viewBox="1.371 1.205 110.418 13.435"><path paint-order="stroke fill markers" fill-rule="evenodd" d="M111.79 11.416a3.233 3.233 0 0 1-3.221 3.224H4.593a3.233 3.233 0 0 1-3.222-3.224V4.433a3.236 3.236 0 0 1 3.222-3.228h103.976a3.236 3.236 0 0 1 3.22 3.228v6.983z"/></svg></svg><svg width="112" height="15" xmlns="http://www.w3.org/2000/svg" xmlns:xlink="http://www.w3.org/1999/xlink" xmlns:svgjs="http://svgjs.com/svgjs" viewBox="0 0.683 112 13.634" fill="#00e1ff" x="835" y="1842"><svg xmlns="http://www.w3.org/2000/svg" xmlns:xlink="http://www.w3.org/1999/xlink" width="112" height="15" viewBox="1.371 1.303 110.418 13.441"><path paint-order="stroke fill markers" fill-rule="evenodd" d="M111.79 11.517c0 1.77-1.453 3.227-3.221 3.227H4.593c-1.769 0-3.222-1.457-3.222-3.227V4.54c0-1.77 1.453-3.238 3.222-3.238h103.976c1.768 0 3.22 1.467 3.22 3.238v6.976z"/></svg></svg><svg width="77" height="15" xmlns="http://www.w3.org/2000/svg" xmlns:xlink="http://www.w3.org/1999/xlink" xmlns:svgjs="http://svgjs.com/svgjs" viewBox="0 0.58 77 13.839" fill="#00e1ff" x="890" y="1803"><svg xmlns="http://www.w3.org/2000/svg" xmlns:xlink="http://www.w3.org/1999/xlink" width="77" height="15" viewBox="1.448 1.354 74.689 13.424"><path paint-order="stroke fill markers" fill-rule="evenodd" d="M76.136 11.563a3.226 3.226 0 0 1-3.227 3.215H4.667a3.227 3.227 0 0 1-3.22-3.215V4.575a3.234 3.234 0 0 1 3.22-3.22H72.91a3.234 3.234 0 0 1 3.227 3.22v6.988z"/></svg></svg><svg width="69" height="59" xmlns="http://www.w3.org/2000/svg" xmlns:xlink="http://www.w3.org/1999/xlink" xmlns:svgjs="http://svgjs.com/svgjs" viewBox="0 0.496 69 58.008" fill="#98d24d" x="959" y="1721"><svg xmlns="http://www.w3.org/2000/svg" xmlns:xlink="http://www.w3.org/1999/xlink" width="69" height="59" viewBox="1.012 1.415 67.431 56.689"><path paint-order="stroke fill markers" fill-rule="evenodd" d="M64.677 7.162c-6.712.71-10.99 4.078-10.99 4.078l-.47-1.085c-1.808.477-5.77 2.007-5.77 2.007l.04-1.585c-2.63.781-6.727 6.099-7.894 6.099-2.954-5.187-5.135-5.553-5.135-5.553l-.718 4.233C28.104 4.545 21.563 1.515 21.545 1.415c-1.307 3.517-1.122 13.854-1.122 13.854l-2.15-1.313C17 17.413 18.36 23.6 18.36 23.6s-2.474-.941-5.213-1.448c-.467 3.28.588 4.884 1.547 7.316-.598-.101-.61-.23-4.816-.365-5.611-.236-8.866 3.375-8.866 3.375l1.035 2.74c3 8.705 9.147 9.46 9.147 9.46l-3.934.2c2.539 5.508 8.804 5.18 8.804 5.18l-3.063.97c3.855 4.88 9.599 4.752 9.599 4.752l-1.734 1.204c1.315 1.259 4.749 1.135 6.868 1.099l40.71-51.255-3.767.334z"/></svg></svg><svg width="84" height="74" xmlns="http://www.w3.org/2000/svg" xmlns:xlink="http://www.w3.org/1999/xlink" xmlns:svgjs="http://svgjs.com/svgjs" viewBox="0 0.429 84 73.142" fill="#83ba36" x="960" y="1726"><svg xmlns="http://www.w3.org/2000/svg" xmlns:xlink="http://www.w3.org/1999/xlink" width="84" height="74" viewBox="1.684 1.819 82.216 71.589"><path paint-order="stroke fill markers" fill-rule="evenodd" d="M59.78 64.007c-1.128-4.053-1.256-4.04-1.498-4.593 2.59.344 4.41.99 7.476-.238-1.138-2.54-2.64-4.722-2.64-4.722s6.322-.158 9.381-2.215l-1.786-1.78S80.797 48.19 83.9 46.07c-.1.012-4.6-5.614-16.447-8.516l3.949-1.71s-.88-2.026-6.62-3.661c-.289-1.134 3.912-6.376 4.042-9.126l-1.532.421s.546-4.218.58-6.087l-1.165-.19s2.25-4.956 1.343-11.652l-.573-3.73-.897 1.118.864-1.11-40.71 51.255c-.503.473-3.466 2.208-11.536 5.877-8.067 3.664-11.48 3.027-12.659 3.233-1.182.222-.795 1.386-.795 1.386s.006 1.316 1.647 1.234c1.632-.09 7.695-.764 15.94-5.49 3.09-1.765 6.208-3.028 8.34-4.53.486 1.993 1.201 4.403 2.424 5.17l.752-1.967s1.237 5.61 6.903 8.188l.215-3.206s1.17 6.166 7.121 7.326l-.74-3.872s2.193 5.788 11.37 6.637l2.902.34s2.736-4.01 1.162-9.402z"/></svg></svg><svg width="65" height="43" xmlns="http://www.w3.org/2000/svg" xmlns:xlink="http://www.w3.org/1999/xlink" xmlns:svgjs="http://svgjs.com/svgjs" viewBox="0 0.571 65 41.859" fill="#83ba36" x="971" y="1838"><svg xmlns="http://www.w3.org/2000/svg" xmlns:xlink="http://www.w3.org/1999/xlink" width="65" height="43" viewBox="2.165 1.931 63.144 40.663"><path paint-order="stroke fill markers" fill-rule="evenodd" d="M2.171 13.648c-.425 19.301 20.784 22.856 23.046 23.33 7.13 1.103 37.325 4.875 40.091 5.616 0 0-24.099-26.24-60.086-40.663-2.875 5.99-2.972 9.728-3.05 11.717z"/></svg></svg><svg width="87" height="53" xmlns="http://www.w3.org/2000/svg" xmlns:xlink="http://www.w3.org/1999/xlink" xmlns:svgjs="http://svgjs.com/svgjs" viewBox="0 0.542 87 51.917" fill="#98d24d" x="949" y="1828"><svg xmlns="http://www.w3.org/2000/svg" xmlns:xlink="http://www.w3.org/1999/xlink" width="87" height="53" viewBox="1.246 12.833 85.063 50.761"><path paint-order="stroke fill markers" fill-rule="evenodd" d="M2.49 18.162c11.51-1.165 22.828 4.44 23.732 4.769C62.21 37.353 86.308 63.594 86.308 63.594c-1.668-3.277-2.256-7.365-3.281-14.947-2.012-14.399-7.92-22.26-9.97-24.71-22.312-22.54-43.68-4.088-46.29-2.28C11.732 15.274 1.794 16.9 1.794 16.9s-.658.024-.531.63c.151.691.655.667 1.229.631z"/></svg></svg><svg width="244" height="86" xmlns="http://www.w3.org/2000/svg" xmlns:xlink="http://www.w3.org/1999/xlink" xmlns:svgjs="http://svgjs.com/svgjs" viewBox="0 0.789 244 84.422" fill="#d0d5d8" x="836" y="1726"><svg xmlns="http://www.w3.org/2000/svg" width="244" height="86" viewBox="1.66 1.828 241.814 83.666"><path paint-order="stroke fill markers" fill-rule="evenodd" d="M191.486 1.868c.019.139.116.755.564 3.682.907 6.696-1.343 11.652-1.343 11.652l1.165.19c-.034 1.869-.58 6.087-.58 6.087l1.532-.421c-.13 2.75-4.331 7.992-4.043 9.126 5.74 1.635 6.62 3.66 6.62 3.66l-3.948 1.71c11.846 2.903 16.347 8.529 16.447 8.517-3.103 2.12-13.187 4.388-13.187 4.388l1.786 1.78c-3.06 2.057-9.38 2.215-9.38 2.215s1.501 2.183 2.64 4.722c-3.068 1.228-4.887.582-7.477.238.242.553.37.54 1.498 4.593 1.574 5.392-1.162 9.401-1.162 9.401l-2.902-.339c-9.177-.85-11.37-6.637-11.37-6.637l.74 3.872c-5.95-1.16-7.12-7.326-7.12-7.326l-.216 3.206c-5.666-2.578-6.903-8.188-6.903-8.188l-.752 1.968c-1.223-.768-1.938-3.178-2.424-5.17-2.132 1.5-5.25 2.764-8.34 4.53-8.245 4.725-14.308 5.398-15.94 5.49-1.64.081-1.647-1.235-1.647-1.235s-.387-1.164.795-1.386c.588-.102 1.732.003 3.733-.318l-19.825-19.826c.203.422.342.883.342 1.384v6.983a3.233 3.233 0 0 1-3.22 3.224H3.593c-.738 0-1.39-.293-1.933-.715l32.57 32.57h21.218v-3.92a3.234 3.234 0 0 1 3.22-3.22h68.24a3.234 3.234 0 0 1 3.228 3.22v3.92h64.647v-.135c21.335-.925 39.618-13.495 48.691-31.504L191.486 1.868zm-.042-.04l-.864 1.11.88-1.095-.016-.015z"/></svg></svg></svg>