<svg width="285" height="261" xmlns="http://www.w3.org/2000/svg" xmlns:xlink="http://www.w3.org/1999/xlink" xmlns:svgjs="http://svgjs.com/svgjs" viewBox="1958 1632 285 261"><svg width="160" height="182" xmlns="http://www.w3.org/2000/svg" xmlns:xlink="http://www.w3.org/1999/xlink" xmlns:svgjs="http://svgjs.com/svgjs" viewBox="0.167 0 159.667 182" fill="#fff" x="1958" y="1632"><svg xmlns="http://www.w3.org/2000/svg" xmlns:xlink="http://www.w3.org/1999/xlink" width="160" height="182" viewBox="1.432 1.76 157.739 179.803"><path paint-order="stroke fill markers" fill-rule="evenodd" d="M158.303 1.76c-33.096 0-61.107 21.589-70.833 51.43-18.61 4.137-33.78 17.275-40.736 34.641-25.159.855-45.302 21.46-45.302 46.82 0 25.33 20.074 45.899 45.17 46.826v.085H159.17V1.802c-.292-.012-.576-.042-.868-.042z"/></svg></svg><svg width="127" height="182" xmlns="http://www.w3.org/2000/svg" xmlns:xlink="http://www.w3.org/1999/xlink" xmlns:svgjs="http://svgjs.com/svgjs" viewBox="0 0.241 127 181.518" fill="#f2f4f9" x="2116" y="1632"><svg xmlns="http://www.w3.org/2000/svg" xmlns:xlink="http://www.w3.org/1999/xlink" width="127" height="182" viewBox="1.171 1.803 125.77 179.76"><path paint-order="stroke fill markers" fill-rule="evenodd" d="M74.206 67.136C69.731 30.589 38.833 2.233 1.171 1.803v179.76h70.961v-.134c30.486-1.323 54.809-26.384 54.809-57.199 0-30.11-23.23-54.747-52.735-57.094z"/></svg></svg><svg width="75" height="67" xmlns="http://www.w3.org/2000/svg" xmlns:xlink="http://www.w3.org/1999/xlink" xmlns:svgjs="http://svgjs.com/svgjs" viewBox="0 0.325 75 66.349" fill="#00e1ff" x="1984" y="1776"><svg xmlns="http://www.w3.org/2000/svg" xmlns:xlink="http://www.w3.org/1999/xlink" width="75" height="67" viewBox="4.207 1.438 73.595 65.107"><path paint-order="stroke fill markers" fill-rule="evenodd" d="M74.809 1.606L29.504 13.773l-3.842 1.03a30.982 30.982 0 0 0-12.3 7.548c-12.206 12.203-12.208 31.99 0 44.194l64.44-64.442c-.634-.63-1.68-.85-2.993-.497z"/></svg></svg><svg width="67" height="75" xmlns="http://www.w3.org/2000/svg" xmlns:xlink="http://www.w3.org/1999/xlink" xmlns:svgjs="http://svgjs.com/svgjs" viewBox="0.321 0 66.358 75" fill="#00c6f4" x="1993" y="1777"><svg xmlns="http://www.w3.org/2000/svg" xmlns:xlink="http://www.w3.org/1999/xlink" width="67" height="75" viewBox="1.361 1.103 65.106 73.585"><path paint-order="stroke fill markers" fill-rule="evenodd" d="M53.097 53.26l1.035-3.875L66.299 4.088c.353-1.298.134-2.354-.497-2.985L1.362 65.545c12.197 12.191 31.985 12.191 44.19 0 3.564-3.568 6.059-7.79 7.545-12.284z"/></svg></svg><svg width="75" height="67" xmlns="http://www.w3.org/2000/svg" xmlns:xlink="http://www.w3.org/1999/xlink" xmlns:svgjs="http://svgjs.com/svgjs" viewBox="0 0.325 75 66.35" fill="#00e1ff" x="2128" y="1785"><svg xmlns="http://www.w3.org/2000/svg" xmlns:xlink="http://www.w3.org/1999/xlink" width="75" height="67" viewBox="4.399 1.815 73.594 65.107"><path paint-order="stroke fill markers" fill-rule="evenodd" d="M74.997 1.983L29.7 14.15l-3.845 1.032a31.013 31.013 0 0 0-12.301 7.546c-12.205 12.202-12.205 31.99 0 44.194L77.993 2.48c-.63-.63-1.673-.85-2.996-.497z"/></svg></svg><svg width="67" height="76" xmlns="http://www.w3.org/2000/svg" xmlns:xlink="http://www.w3.org/1999/xlink" xmlns:svgjs="http://svgjs.com/svgjs" viewBox="0 0.133 67 75.735" fill="#00c6f4" x="2137" y="1786"><svg xmlns="http://www.w3.org/2000/svg" xmlns:xlink="http://www.w3.org/1999/xlink" width="67" height="76" viewBox="1.553 1.48 65.106 73.594"><path paint-order="stroke fill markers" fill-rule="evenodd" d="M53.291 53.643l1.032-3.88L66.49 4.476c.353-1.315.134-2.365-.497-2.996L1.553 65.922c12.203 12.203 31.99 12.203 44.194 0 3.566-3.568 6.052-7.788 7.544-12.279z"/></svg></svg><svg width="46" height="37" xmlns="http://www.w3.org/2000/svg" xmlns:xlink="http://www.w3.org/1999/xlink" xmlns:svgjs="http://svgjs.com/svgjs" viewBox="0.209 0 45.582 37" fill="#d0d5d8" x="2049" y="1777"><svg xmlns="http://www.w3.org/2000/svg" xmlns:xlink="http://www.w3.org/1999/xlink" width="46" height="37" viewBox="1.577 1.103 43.684 35.459"><path paint-order="stroke fill markers" fill-rule="evenodd" d="M10.3 4.088L1.576 36.562h43.684L9.801 1.103c.632.631.85 1.687.498 2.985z"/></svg></svg><svg width="23" height="27" xmlns="http://www.w3.org/2000/svg" xmlns:xlink="http://www.w3.org/1999/xlink" xmlns:svgjs="http://svgjs.com/svgjs" viewBox="0.069 0 22.862 27" fill="#d0d5d8" x="2196" y="1786"><svg xmlns="http://www.w3.org/2000/svg" xmlns:xlink="http://www.w3.org/1999/xlink" width="23" height="27" viewBox="1.655 1.48 20.914 24.699"><path paint-order="stroke fill markers" fill-rule="evenodd" d="M7.49 4.476L1.655 26.18c7.642-1.638 14.74-4.768 20.915-9.11L6.993 1.48c.631.631.85 1.681.497 2.996z"/></svg></svg><svg width="65" height="42" xmlns="http://www.w3.org/2000/svg" xmlns:xlink="http://www.w3.org/1999/xlink" xmlns:svgjs="http://svgjs.com/svgjs" viewBox="0 0.073 65 41.855" fill="#83ba36" x="2037" y="1851"><svg xmlns="http://www.w3.org/2000/svg" xmlns:xlink="http://www.w3.org/1999/xlink" width="65" height="42" viewBox="1.495 1.341 63.148 40.662"><path paint-order="stroke fill markers" fill-rule="evenodd" d="M64.637 13.059c.424 19.3-20.793 22.855-23.05 23.329-7.133 1.102-37.326 4.875-40.092 5.615 0 0 24.104-26.24 60.085-40.662 2.874 5.992 2.972 9.727 3.057 11.718z"/></svg></svg><svg width="87" height="52" xmlns="http://www.w3.org/2000/svg" xmlns:xlink="http://www.w3.org/1999/xlink" xmlns:svgjs="http://svgjs.com/svgjs" viewBox="0 0.042 87 51.915" fill="#98d24d" x="2037" y="1841"><svg xmlns="http://www.w3.org/2000/svg" width="87" height="52" viewBox="1.495 13.242 85.065 50.76"><path paint-order="stroke fill markers" fill-rule="evenodd" d="M85.309 18.572c-11.5-1.165-22.82 4.44-23.729 4.769C25.6 37.764 1.495 64.003 1.495 64.003c1.673-3.276 2.256-7.362 3.286-14.945 2.002-14.4 7.91-22.26 9.96-24.711 22.322-22.541 43.684-4.088 46.293-2.28 15.043-6.382 24.978-4.756 24.978-4.756s.655.024.533.63c-.157.69-.654.667-1.236.631z"/></svg></svg></svg>